<svg width="82px" height="25px" viewBox="0 0 69 21" version="1.1" xmlns="http://www.w3.org/2000/svg" xmlns:xlink="http://www.w3.org/1999/xlink">
    <g id="Page-1" stroke="none" stroke-width="1" fill="none" fill-rule="evenodd">
        <path d="M48.3304581,10.3180009 C47.9050501,10.3180009 47.5589554,10.674809 47.5589554,11.1118315 C47.5589554,11.5526738 47.9050501,11.906561 48.3304581,11.906561 C48.7554291,11.906561 49.1015238,11.5526738 49.1015238,11.1118315 C49.1015238,10.674809 48.7554291,10.3180009 48.3304581,10.3180009 L48.3304581,10.3180009 Z M21.5841582,11.0722861 C21.5841582,11.0722861 21.9693633,9.74706298 22.0279197,9.53944919 C22.183706,9.00019259 22.4161838,8.15086345 22.4161838,8.15086345 L22.4546387,8.15086345 C22.4546387,8.15086345 22.6689814,9.03119985 22.8088177,9.53158503 C22.8634412,9.72639147 23.2313853,11.0722861 23.2313853,11.0722861 L21.5841582,11.0722861 Z M23.9281629,13.4798421 L25.3210628,13.4798421 L23.2171831,6.86563523 C22.9958486,6.78856648 22.7192351,6.74070745 22.427327,6.74070745 C22.1081071,6.74070745 21.9942717,6.78429736 21.7440959,6.86563523 L19.5126157,13.4798421 L20.8471776,13.4798421 C20.8471776,13.4798421 21.0263428,12.9005906 21.2448369,12.1809077 L23.5523531,12.1809077 C23.7603595,12.8999165 23.9281629,13.4798421 23.9281629,13.4798421 L23.9281629,13.4798421 Z M69,13.4798421 C69,13.4798421 68.3401478,12.0319381 68.1788992,11.7043397 C67.9966751,11.3329268 67.8288716,11.0763305 67.4563392,10.9851062 L67.4563392,10.9630866 C67.7060779,10.9147782 67.9044706,10.7595172 68.1185948,10.2863196 C68.3257272,9.82390704 68.387124,9.72459395 68.5079513,9.61539449 C68.6265936,9.50439751 68.7887162,9.54686397 68.7887162,9.54686397 L68.850113,8.68540155 C68.6764102,8.66180908 68.4852279,8.66180908 68.2872722,8.67236952 C67.9608421,8.6934904 67.7897612,8.78898376 67.630042,8.95705206 C67.5050634,9.08490082 67.4178842,9.27566284 67.3121331,9.49945432 C67.1982976,9.73874944 67.1093705,9.93220774 66.9950981,10.1753226 C66.8790778,10.4247288 66.8222693,10.5361751 66.5089488,10.5361751 L66.3059677,10.5361751 L66.3059677,8.74831482 L65.091796,8.74831482 L65.091796,13.4798421 L66.3059677,13.4798421 L66.3059677,11.5461578 L66.4709308,11.5434615 C66.8161515,11.5434615 66.8751449,11.6322142 67.0586799,12.0065481 C67.2745521,12.4541311 67.6820436,13.4798421 67.6820436,13.4798421 L69,13.4798421 Z M64.0369065,13.4798421 L64.0369065,8.74831482 L62.8271047,8.74831482 L62.8271047,10.5370739 L61.4575836,10.5370739 L61.4575836,8.74831482 L60.2504037,8.74831482 L60.2504037,13.4798421 L61.4575836,13.4798421 L61.4575836,11.5479553 L62.8271047,11.5479553 L62.8271047,13.4798421 L64.0369065,13.4798421 Z M30.8032983,8.70472491 L30.7982729,13.2308853 C31.3716015,13.4798421 32.00152,13.5921872 32.5608649,13.5921872 C33.8449547,13.5921872 34.5325556,12.9091288 34.5325556,11.7843295 C34.5325556,10.7660333 33.9238311,10.1362265 32.7872247,10.1362265 C32.4983755,10.1362265 32.3292611,10.1753226 32.0120077,10.2539642 L32.0120077,8.70472491 L30.8032983,8.70472491 Z M33.2818954,11.8418502 C33.2818954,12.3087565 33.1221762,12.6284907 32.5412004,12.6284907 C32.3454297,12.6284907 32.2652423,12.6284907 32.0113522,12.5554664 L32.0113522,11.1909225 C32.3264207,11.1277846 32.3543879,11.1172241 32.5412004,11.1172241 C33.0961754,11.1172241 33.2818954,11.3947166 33.2818954,11.8418502 L33.2818954,11.8418502 Z M59.6165524,13.0259678 C59.2964585,12.5264814 59.2138677,12.2321371 59.2138677,11.6043526 L59.2138677,10.3299095 C59.2138677,9.64078449 59.1369578,9.38845734 58.9597591,9.13613019 C58.7139532,8.78156898 58.3051508,8.62877961 57.5502536,8.62877961 C57.0169095,8.62877961 56.4949271,8.68809784 55.9952311,8.81886756 L56.1743963,9.73178404 C56.5128437,9.68302626 56.8692075,9.64078449 57.1248456,9.64078449 C57.924097,9.64078449 58.0163016,9.76099377 58.0163016,10.3777685 L58.0163016,10.6089748 C57.8388844,10.5597676 57.6393992,10.5242665 57.4060475,10.5242665 C56.1971197,10.5242665 55.5608649,11.1307055 55.5608649,12.1319253 C55.5608649,13.0727033 56.241037,13.5865699 57.073718,13.5865699 C57.3835426,13.5865699 57.7056029,13.5272517 57.961241,13.4209732 C58.1157164,13.3510946 58.1827941,13.3115491 58.3820607,13.1762855 C58.5028879,13.3585093 58.7447609,13.5427553 58.8424278,13.5755601 L59.6165524,13.0259678 Z M58.0794464,12.4801952 C57.814413,12.5747898 57.6393992,12.5968094 57.4287709,12.5968094 C56.9954971,12.5968094 56.7518762,12.4208769 56.7518762,11.9647557 C56.7518762,11.4899852 57.0617008,11.3288823 57.6612486,11.3288823 C57.8063287,11.3288823 57.9500978,11.351576 58.0163016,11.3760673 L58.0163016,11.716473 C58.0163016,12.0836169 58.035966,12.3238107 58.0794464,12.4801952 L58.0794464,12.4801952 Z M46.2757396,13.0259678 C45.9565197,12.5264814 45.8737104,12.2321371 45.8737104,11.6043526 L45.8737104,10.3299095 C45.8737104,9.64078449 45.7959265,9.38845734 45.6185093,9.13613019 C45.3740144,8.78156898 44.964338,8.62877961 44.2098778,8.62877961 C43.6776262,8.62877961 43.1541143,8.68809784 42.6541998,8.81886756 L42.8335835,9.73178404 C43.1735603,9.68302626 43.5275208,9.64078449 43.7838143,9.64078449 C44.5843767,9.64078449 44.6770182,9.76099377 44.6770182,10.3777685 L44.6770182,10.6089748 C44.498727,10.5597676 44.2985864,10.5242665 44.0654532,10.5242665 C42.8560884,10.5242665 42.2189596,11.1307055 42.2189596,12.1319253 C42.2189596,13.0727033 42.8993502,13.5865699 43.7331237,13.5865699 C44.0429483,13.5865699 44.3656641,13.5272517 44.6210837,13.4209732 C44.7749036,13.3510946 44.8417628,13.3115491 45.0419034,13.1762855 C45.1627306,13.3585093 45.4035111,13.5427553 45.501615,13.5755601 L46.2757396,13.0259678 Z M44.7390705,12.4801952 C44.4736002,12.5747898 44.2985864,12.5968094 44.0886136,12.5968094 C43.6562138,12.5968094 43.4099709,12.4208769 43.4099709,11.9647557 C43.4099709,11.4899852 43.7202326,11.3288823 44.3195619,11.3288823 C44.463768,11.3288823 44.6088481,11.351576 44.6770182,11.3760673 L44.6770182,11.716473 C44.6770182,12.0836169 44.6940608,12.3238107 44.7390705,12.4801952 L44.7390705,12.4801952 Z M29.8447647,13.4798421 L29.8447647,8.92065224 C29.1807611,8.71708288 28.6701404,8.62877961 28.0039519,8.62877961 C27.3382004,8.62877961 26.8400338,8.71708288 26.1760302,8.92065224 L26.1760302,11.2545099 C26.1760302,11.8897092 26.165324,12.0800218 26.0980279,12.2853887 C26.0311687,12.4651409 25.9415861,12.6810682 25.6979652,12.8477884 L26.0274543,13.5755601 C26.9982235,13.2937985 27.3639827,12.8592476 27.3639827,11.478526 L27.3639827,9.76099377 C27.6849505,9.71291006 27.7483138,9.70145086 28.0039519,9.70145086 C28.260901,9.70145086 28.314869,9.71291006 28.6345259,9.76099377 L28.6345259,13.4798421 L29.8447647,13.4798421 Z M38.9948606,15.0299801 L38.9948606,13.3295243 C39.1478065,13.4225461 39.4532613,13.5607306 39.9684704,13.5607306 C40.9925522,13.5607306 41.7470123,12.6851127 41.7470123,11.0859922 C41.7470123,9.36306734 40.9971406,8.62540926 39.7652708,8.62540926 C39.4515133,8.62540926 39.2480953,8.65866341 38.9948606,8.78246774 L38.9948606,6.75194197 L37.7903027,6.75194197 L37.7903027,8.78246774 C37.537277,8.65866341 37.331902,8.62540926 37.0194555,8.62540926 C35.7875857,8.62540926 35.037277,9.39340053 35.037277,11.1149772 C35.037277,12.7152212 35.7154827,13.5607306 36.8142895,13.5607306 C37.3314651,13.5607306 37.6371383,13.4225461 37.7903027,13.3295243 L37.7903027,15.0299801 L38.9948606,15.0299801 L38.9948606,15.0299801 Z M36.2787605,11.1149772 C36.2787605,10.1652115 36.5573405,9.66325305 37.11166,9.66325305 C37.3461042,9.66325305 37.501235,9.66190537 37.7903027,9.8041343 L37.7903027,12.4163831 C37.5283282,12.5049111 37.4044421,12.5168197 37.1702164,12.5168197 C36.538113,12.5168197 36.2787605,11.986326 36.2787605,11.1149772 L36.2787605,11.1149772 Z M40.5055289,11.0859922 C40.5055289,11.9557681 40.1688294,12.5168197 39.6140729,12.5168197 C39.3811582,12.5168197 39.2579275,12.5049111 38.9948606,12.4163831 L38.9948606,9.8041343 C39.2834913,9.66190537 39.4388407,9.66325328 39.6721924,9.66325328 C40.2273859,9.66325328 40.5055289,10.1355524 40.5055289,11.0859922 L40.5055289,11.0859922 Z M55.0991868,11.4259485 C55.0991868,10.2535148 54.4316873,9.44597804 53.0285182,9.44597804 C52.6837345,9.44597804 52.442954,9.47990627 52.0712956,9.57023175 L52.0686736,7.88280799 C52.3000589,7.84865507 52.6959702,7.81922065 53.1323029,7.81922065 C53.5448198,7.81922065 54.0672392,7.84191436 54.5258583,7.89988445 L54.5579769,6.92203248 C54.0368685,6.80204789 53.2806604,6.72834949 52.6944408,6.72834949 C52.1160869,6.72834949 51.2174206,6.87731912 50.7893907,6.99618027 L50.7885167,13.2335816 C51.4560162,13.4845606 52.1071286,13.5993773 52.7755021,13.5993773 C54.3053978,13.5993773 55.0991868,12.7655518 55.0991868,11.4259485 L55.0991868,11.4259485 Z M53.8129121,11.5203184 C53.8129121,12.1521474 53.4727167,12.5682744 52.8458572,12.5682744 C52.5978664,12.5682744 52.3953223,12.5693972 52.0712956,12.4783976 L52.0712956,10.5647108 C52.2141907,10.5404442 52.5095947,10.493484 52.8458572,10.5058419 C53.482986,10.5307826 53.8129121,10.8368107 53.8129121,11.5203184 L53.8129121,11.5203184 Z M6.5443353,3.32092187 L4.73476716,8.90806959 L8.38252617,8.90806959 L6.5668402,3.32092187 L6.5443353,3.32092187 Z M0.202762525,18.1969892 C0.0906750518,18.1969892 0,18.2927072 0,18.4108943 L0,20.7863196 C0,20.9047313 0.0906750518,21 0.202762525,21 L12.907539,21 C13.018971,21 13.1085536,20.9047313 13.1085536,20.7863196 L13.1085536,18.4108943 C13.1085536,18.2927072 13.018971,18.1969892 12.907539,18.1969892 L0.202762525,18.1969892 L0.202762525,18.1969892 Z M6.55504151,0 C7.94531948,0 8.38252617,1.02413815 8.74784831,2.04939976 C8.90297912,2.48282725 12.5142496,12.652982 12.6219672,12.9581113 C12.6523379,13.0421455 12.6322364,13.1825769 12.5048544,13.2326828 C12.3770353,13.282564 10.500171,14.0332542 10.3966048,14.0736984 C10.2928201,14.1136933 10.1759258,14.054375 10.1379078,13.9480966 C10.0994528,13.8429415 9.32161382,11.6259228 9.23377919,11.3776401 L3.88307716,11.3776401 C3.79502403,11.6259228 3.00910075,13.8467613 2.97283073,13.9480966 C2.93677921,14.0498812 2.82447324,14.1184118 2.7147892,14.0736984 C2.60466817,14.0285357 0.719501073,13.2773962 0.608287576,13.2326828 C0.500351491,13.1906657 0.45075333,13.0648392 0.488989797,12.9581113 C0.62183421,12.5763626 4.17804419,2.56978237 4.36026827,2.04939976 C4.71182528,1.04054054 5.16520054,0 6.55504151,0 L6.55504151,0 Z" id="Fill-15" fill="#FFFFFE"></path>
    </g>
</svg>