<?xml version="1.0" encoding="UTF-8"?>
<svg width="56px" height="16px" viewBox="0 0 56 16" version="1.1" xmlns="http://www.w3.org/2000/svg" xmlns:xlink="http://www.w3.org/1999/xlink">
    <!-- Generator: Sketch 61.2 (89653) - https://sketch.com -->
    <title>american express</title>
    <desc>Created with Sketch.</desc>
    <g id="Page-1" stroke="none" stroke-width="1" fill="none" fill-rule="evenodd">
        <path d="M25.9275414,8.92053779 C27.5217936,8.92053779 28.4531562,9.94804979 28.4531562,11.2870338 C28.4531562,12.9033918 27.265656,13.7345358 25.6989918,13.7345358 L25.6989918,13.7345358 L23.8474524,13.7345358 L23.8474524,15.9563838 L22.0422018,15.9563838 L22.0422018,8.92053779 Z M13.941717,8.91934979 L13.941717,10.4931618 L9.97942322,10.4931618 L9.97942322,11.6966598 L13.84914,11.6966598 L13.84914,13.1778918 L9.97942322,13.1778918 L9.97942322,14.4276798 L13.941717,14.4276798 L13.941717,15.9552018 L8.20194542,15.9552018 L8.20194542,8.91934979 L13.941717,8.91934979 Z M42.0665994,8.91934979 L42.0665994,10.4931618 L38.104305,10.4931618 L38.104305,11.6966598 L41.955507,11.6966598 L41.955507,13.1778918 L38.104305,13.1778918 L38.104305,14.4276798 L42.0665994,14.4276798 L42.0665994,15.9552018 L36.3268272,15.9552018 L36.3268272,8.91934979 L42.0665994,8.91934979 Z M16.3140018,8.91934979 L18.0179964,11.1209418 L19.7277774,8.91934979 L21.8570478,8.91934979 L19.0334502,12.4372758 L21.833262,15.9552018 L19.6175514,15.9552018 L17.9630292,13.7883138 L16.3487184,15.9552018 L14.1644802,15.9552018 L16.9591476,12.4806678 L14.0979408,8.91934979 L16.3140018,8.91934979 Z M33.1311864,8.91934979 C34.4281656,8.91934979 35.5902618,9.72136379 35.5902618,11.2019478 C35.5902618,12.4676478 34.6104642,13.2828798 33.6606108,13.3630458 L33.6606108,13.3630458 L35.9750352,15.9552018 L33.8255136,15.9552018 L31.7164944,13.4556198 L30.975879,13.4556198 L30.975879,15.9552018 L29.2169166,15.9552018 L29.2169166,8.91934979 Z M48.8432334,8.91934979 L48.1026174,10.5024138 L45.1401546,10.5024138 C44.573862,10.5024138 44.3995386,10.7995698 44.3995386,11.0833398 C44.3995386,11.3750118 44.6149602,11.6966598 45.0475776,11.6966598 L46.713963,11.6966598 C48.2553804,11.6966598 48.9242382,12.5710038 48.9242382,13.7159958 C48.9242382,14.9469738 48.178911,15.9552018 46.6300506,15.9552018 L42.8812764,15.9552018 L42.8812764,14.4276798 L46.401516,14.4276798 C46.922385,14.4276798 47.1479178,14.1462078 47.1479178,13.8375018 C47.1479178,13.5417258 46.923096,13.2426978 46.401516,13.2426978 L44.81076,13.2426978 C43.4280174,13.2426978 42.6579348,12.4002438 42.6579348,11.1354138 C42.6579348,10.0072758 43.3631436,8.91934979 45.4178856,8.91934979 L48.8432334,8.91934979 Z M55.2990294,8.91934979 L54.5584134,10.5024138 L51.5959518,10.5024138 C51.0296598,10.5024138 50.8553364,10.7995698 50.8553364,11.0833398 C50.8553364,11.3750118 51.0707574,11.6966598 51.5033748,11.6966598 L53.1697614,11.6966598 C54.7111794,11.6966598 55.3800354,12.5710038 55.3800354,13.7159958 C55.3800354,14.9469738 54.6347094,15.9552018 53.0858454,15.9552018 L49.3370742,15.9552018 L49.3370742,14.4276798 L52.8573114,14.4276798 C53.3781834,14.4276798 53.6037174,14.1462078 53.6037174,13.8375018 C53.6037174,13.5417258 53.3788914,13.2426978 52.8573114,13.2426978 L51.2665578,13.2426978 C49.8838152,13.2426978 49.113732,12.4002438 49.113732,11.1354138 C49.113732,10.0072758 49.8189408,8.91934979 51.8736828,8.91934979 L55.2990294,8.91934979 Z M25.7973546,10.5117018 L23.8474524,10.5117018 L23.8474524,12.1317978 L25.7915688,12.1317978 C26.3053086,12.1317978 26.6652636,11.7913218 26.6652636,11.3217498 C26.6652636,10.8219078 26.3034822,10.5117018 25.7973546,10.5117018 L25.7973546,10.5117018 Z M32.9865348,10.4931618 L30.975879,10.4931618 L30.975879,11.9743878 L33.0125718,11.9743878 C33.3651234,11.9743878 33.8197272,11.7012078 33.8197272,11.2337718 C33.8197272,10.8704478 33.4688634,10.4931618 32.9865348,10.4931618 L32.9865348,10.4931618 Z M5.32028226,0.00118799879 L8.34349926,7.037034 L6.32995026,7.037034 L5.77448826,5.628138 L2.52850836,5.628138 L1.97015352,7.037034 L0,7.037034 L3.02610966,0.00118799879 L5.32028226,0.00118799879 Z M29.2224979,0.00118800244 C30.5194771,0.00118800244 31.6815733,0.803202002 31.6815733,2.283792 C31.6815733,3.549486 30.7017763,4.36473 29.7519223,4.444884 L29.7519223,4.444884 L32.0663467,7.037034 L29.9168251,7.037034 L27.8078059,4.537458 L27.0671905,4.537458 L27.0671905,7.037034 L25.3082281,7.037034 L25.3082281,0.00118800244 Z M44.5758091,0.00118800485 L47.5990255,7.037034 L45.5854765,7.037034 L45.0300151,5.628138 L41.7840349,5.628138 L41.2256803,7.037034 L39.2555269,7.037034 L42.2816359,0.00118800485 L44.5758091,0.00118800485 Z M17.3466091,-1.38422607e-12 L17.3466091,7.035852 L15.5876467,7.035852 L15.5876467,1.85154 L13.7231095,7.035852 L12.1804957,7.035852 L10.3107595,1.85154 L10.3107595,7.035852 L8.55179706,7.035852 L8.55179706,-1.38422607e-12 L11.3514949,0.010398 L12.9798943,4.546668 L14.5693003,-1.38422607e-12 L17.3466091,-1.38422607e-12 Z M24.2898817,1.20461241e-09 L24.2898817,1.573812 L20.3275873,1.573812 L20.3275873,2.77731 L24.1973047,2.77731 L24.1973047,4.258542 L20.3275873,4.258542 L20.3275873,5.50833 L24.2898817,5.50833 L24.2898817,7.035852 L18.5501095,7.035852 L18.5501095,1.20461241e-09 L24.2898817,1.20461241e-09 Z M34.1956171,3.65479114e-09 L34.1956171,7.035852 L32.3996239,7.035852 L32.3996239,3.65479114e-09 L34.1956171,3.65479114e-09 Z M40.4908507,4.56064786e-09 L40.4908507,1.666386 L38.4756565,1.666386 C37.5140965,1.666386 36.8340601,2.416788 36.8340601,3.564216 C36.8340601,4.926792 37.6116523,5.499072 38.7318883,5.499072 L39.1947727,5.499072 L38.4541573,7.035852 L38.0664913,7.035852 C36.1907881,7.035852 35.0519539,5.5581 35.0519539,3.546858 C35.0519539,1.48593 36.1780375,4.56064786e-09 38.5467343,4.56064786e-09 L40.4908507,4.56064786e-09 Z M50.0407429,5.1718283e-09 L52.8961639,4.42055401 L52.8961639,5.1718283e-09 L54.6551263,5.1718283e-09 L54.6551263,7.03585201 L52.4911399,7.03585201 L49.5633931,2.49958201 L49.5633931,7.03585201 L47.8044307,7.03585201 L47.8044307,5.1718283e-09 L50.0407429,5.1718283e-09 Z M4.14571206,1.638642 L3.15340266,4.100616 L5.13512886,4.100616 L4.14571206,1.638642 Z M43.4012389,1.638642 L42.4089295,4.100616 L44.3906551,4.100616 L43.4012389,1.638642 Z M29.0778463,1.574994 L27.0671905,1.574994 L27.0671905,3.056226 L29.1038839,3.056226 C29.4564355,3.056226 29.9110393,2.78304 29.9110393,2.31561 C29.9110393,1.952286 29.5601749,1.574994 29.0778463,1.574994 L29.0778463,1.574994 Z" id="american-express" fill="#FFFFFF" fill-rule="nonzero"></path>
    </g>
</svg>