<svg width="46" height="19" xmlns="http://www.w3.org/2000/svg"><path d="M8.387 2.437c-.538.638-1.399 1.142-2.26 1.07-.107-.864.314-1.78.807-2.347C7.472.504 8.414.036 9.176 0c.09.9-.26 1.78-.79 2.437m.78 1.24c-1.245-.071-2.312.71-2.904.71-.6 0-1.506-.674-2.493-.656-1.282.018-2.474.747-3.129 1.907-1.345 2.32-.35 5.754.95 7.642.637.935 1.4 1.96 2.404 1.925.95-.036 1.326-.62 2.474-.62 1.157 0 1.488.62 2.493.602 1.04-.018 1.694-.936 2.33-1.87.727-1.062 1.023-2.096 1.04-2.15-.017-.018-2.008-.782-2.026-3.084-.017-1.924 1.57-2.841 1.641-2.895-.896-1.33-2.295-1.475-2.78-1.51m7.2-2.608v14.018h2.17v-4.793h3.004c2.743 0 4.67-1.888 4.67-4.621 0-2.734-1.89-4.604-4.599-4.604h-5.245zm2.17 1.834h2.502c1.882 0 2.958 1.007 2.958 2.779 0 1.77-1.076 2.787-2.967 2.787h-2.493V2.904zm11.638 12.292c1.363 0 2.627-.693 3.2-1.79h.046v1.682h2.008V8.11c0-2.023-1.614-3.327-4.098-3.327-2.304 0-4.007 1.322-4.07 3.138h1.955c.16-.863.959-1.43 2.053-1.43 1.327 0 2.07.621 2.07 1.763v.773l-2.707.162c-2.52.153-3.882 1.187-3.882 2.985 0 1.817 1.408 3.022 3.425 3.022zm.583-1.664c-1.157 0-1.892-.557-1.892-1.412 0-.88.708-1.393 2.062-1.474l2.412-.153v.791c0 1.313-1.112 2.248-2.582 2.248zm7.352 5.368c2.116 0 3.11-.81 3.98-3.264L45.9 4.918h-2.206L41.14 13.2h-.045L38.54 4.92h-2.268l3.676 10.205-.198.62c-.331 1.052-.87 1.457-1.829 1.457-.17 0-.502-.018-.636-.036v1.681c.125.036.663.054.825.054z" fill="#FFF"/></svg>