<svg width="66" height="15" xmlns="http://www.w3.org/2000/svg"><g id="Page-1" stroke="none" stroke-width="1" fill="none" fill-rule="evenodd"><g id="Artboard-Copy-118" transform="translate(-993 -543)" fill="#FFF"><path d="M1025.011 553.578c.28 0 .515.042.706.127a1.215 1.215 0 01.711.853 2.503 2.503 0 01-.006 1.255c-.055.195-.14.365-.255.51-.114.146-.26.262-.435.346a1.413 1.413 0 01-.618.127 2.971 2.971 0 01-.67-.07v1.121c0 .043-.007.071-.02.083-.014.012-.049.018-.103.018h-.61a.187.187 0 01-.093-.018c-.02-.012-.03-.04-.03-.083v-3.85a.23.23 0 01.02-.103.248.248 0 01.098-.08c.19-.086.4-.147.635-.183.234-.035.458-.053.67-.053zm21.086 0c.28 0 .514.042.705.127a1.2 1.2 0 01.46.343c.117.143.2.313.252.51a2.503 2.503 0 01-.006 1.255c-.055.195-.14.365-.255.51-.114.146-.26.262-.435.346a1.413 1.413 0 01-.619.127 2.971 2.971 0 01-.67-.07v1.121c0 .043-.006.071-.02.083-.014.012-.048.018-.102.018h-.61a.187.187 0 01-.094-.018c-.02-.012-.03-.04-.03-.083v-3.85c0-.043.007-.077.021-.103.014-.026.047-.052.098-.08.189-.086.4-.147.634-.183.235-.035.458-.053.67-.053zm8.054.065c.137 0 .23.029.28.086.05.057.074.148.074.274v2.628c0 .047-.009.078-.027.091-.017.014-.054.021-.109.021h-.596c-.055 0-.092-.009-.11-.027-.017-.017-.026-.048-.026-.091v-2.285h-.726l-.018.307c-.02.342-.045.638-.077.886a2.39 2.39 0 01-.16.634 1.08 1.08 0 01-.318.428 1.67 1.67 0 01-.55.272c-.054.02-.094.023-.117.009a.154.154 0 01-.06-.08l-.159-.401c-.02-.052-.026-.088-.02-.11.005-.021.034-.046.085-.073a.96.96 0 00.257-.16.64.64 0 00.16-.254c.04-.11.073-.257.097-.44.023-.183.045-.424.065-.723l.041-.644c.008-.13.038-.22.092-.271.053-.051.144-.077.274-.077h1.648zm-32.57-.077c.46 0 .806.115 1.036.346.23.23.345.56.345.989 0 .204-.04.344-.118.419a.452.452 0 01-.325.112h-1.511c.004.126.024.23.062.313a.54.54 0 00.15.2.54.54 0 00.222.107c.084.02.176.03.274.03.115 0 .23-.014.349-.042a2.03 2.03 0 00.33-.106c.048-.016.08-.02.098-.015.018.006.034.025.05.056l.189.426c.016.035.019.063.009.082-.01.02-.03.04-.062.06a1.5 1.5 0 01-.508.203 2.573 2.573 0 01-.537.062c-.516 0-.898-.128-1.146-.384-.248-.256-.372-.661-.372-1.216 0-.26.035-.491.104-.694.068-.203.167-.375.295-.517.128-.141.281-.249.46-.321.18-.073.381-.11.606-.11zm21.08-.006c.427 0 .741.092.94.275.2.183.3.454.3.812v1.712a.36.36 0 01-.022.13c-.013.036-.048.069-.103.1-.09.044-.187.08-.291.107-.104.027-.21.049-.318.065a4.54 4.54 0 01-.64.047c-.266 0-.488-.026-.663-.077a1.165 1.165 0 01-.421-.21.73.73 0 01-.224-.312 1.13 1.13 0 01-.065-.387c0-.154.026-.294.077-.422a.908.908 0 01.23-.334c.103-.094.232-.168.387-.221.156-.053.34-.08.552-.08h.65v-.095a.707.707 0 00-.018-.159.27.27 0 00-.074-.133.411.411 0 00-.156-.091.817.817 0 00-.266-.036 4.392 4.392 0 00-.644.068c-.07.014-.133.029-.188.044-.052.012-.087.012-.107 0-.02-.011-.033-.037-.041-.076l-.094-.414c-.012-.043-.013-.073-.003-.091.01-.018.03-.033.062-.044a2.86 2.86 0 01.558-.136c.194-.028.388-.042.581-.042zm6.949.006c.496 0 .869.143 1.119.428.25.286.375.68.375 1.184 0 .52-.124.921-.372 1.205-.248.283-.626.425-1.134.425-.512 0-.886-.142-1.122-.425-.236-.284-.354-.681-.354-1.193 0-.252.034-.48.103-.682a1.296 1.296 0 01.762-.83c.183-.074.39-.112.623-.112zm-17.531 0c.46 0 .806.115 1.036.346.23.23.346.56.346.989 0 .204-.04.344-.118.419a.452.452 0 01-.325.112h-1.512c.004.126.025.23.062.313a.54.54 0 00.15.2.54.54 0 00.222.107c.085.02.176.03.275.03.114 0 .23-.014.348-.042a2.03 2.03 0 00.33-.106c.048-.016.08-.02.098-.015.018.006.035.025.05.056l.19.426c.015.035.018.063.008.082-.01.02-.03.04-.062.06a1.5 1.5 0 01-.507.203 2.574 2.574 0 01-.538.062c-.515 0-.897-.128-1.145-.384s-.372-.661-.372-1.216c0-.26.034-.491.103-.694.069-.203.167-.375.295-.517.128-.141.282-.249.46-.321a1.6 1.6 0 01.606-.11zm-26.75-10.484c.84 0 1.529.689 1.529 1.53v10.663c0 .841-.688 1.53-1.53 1.53h-10.662c-.842 0-1.53-.689-1.53-1.53v-10.663c0-.841.688-1.53 1.53-1.53h10.662zm50.664 10.561c.055 0 .091.007.11.02.017.015.026.045.026.092v.856h.732c.287 0 .515.04.682.121.167.081.294.179.38.293a.822.822 0 01.163.351c.022.12.033.22.033.298a1.016 1.016 0 01-.334.762c-.104.094-.227.17-.37.224a1.26 1.26 0 01-.46.083h-1.31c-.154 0-.254-.03-.302-.092a.4.4 0 01-.07-.25v-2.646c0-.075.043-.112.13-.112h.59zm-41.344 0c.055 0 .091.007.109.02.017.015.026.045.026.092v1.01h1.105v-1.01c0-.075.043-.112.13-.112h.595c.055 0 .091.007.107.02.016.015.024.045.024.092v2.87c0 .051-.008.084-.024.097-.016.014-.052.021-.107.021h-.595c-.087 0-.13-.04-.13-.118v-1.187h-1.105v1.187c0 .051-.009.084-.026.097-.018.014-.054.021-.11.021h-.59c-.087 0-.13-.04-.13-.118v-2.87c0-.075.043-.112.13-.112h.59zm25.419-1.04c.142 0 .24.033.295.098.055.065.083.167.083.304v3.626c0 .043-.008.073-.024.088-.015.016-.05.024-.106.024h-.644c-.082 0-.124-.037-.124-.112v-3.242h-1.594v3.242c0 .043-.008.073-.023.088-.016.016-.052.024-.107.024h-.65c-.082 0-.123-.037-.123-.112v-3.626c0-.137.028-.239.085-.304.057-.065.155-.097.293-.097h2.639zm-3.637 1.04c.047 0 .078.009.094.027.016.017.024.054.024.109v.431c0 .087-.04.13-.118.13h-.856v2.285c0 .051-.01.084-.027.097-.018.014-.054.021-.11.021h-.584c-.09 0-.136-.04-.136-.118v-2.285h-.838c-.079 0-.118-.043-.118-.13v-.431c0-.055.007-.092.02-.11.014-.017.047-.026.098-.026h2.55zm-8.556 0c.055 0 .091.007.11.02.017.015.026.045.026.092v1.01h1.104v-1.01c0-.075.043-.112.13-.112h.595c.055 0 .092.007.107.02.016.015.024.045.024.092v2.87c0 .051-.008.084-.024.097-.015.014-.052.021-.107.021h-.594c-.088 0-.131-.04-.131-.118v-1.187h-1.104v1.187c0 .051-.01.084-.027.097-.018.014-.054.021-.11.021h-.59c-.086 0-.13-.04-.13-.118v-2.87c0-.075.044-.112.13-.112h.59zm-8.024 0c.047 0 .078.009.094.027.016.017.024.054.024.109v.431c0 .087-.04.13-.118.13h-.857v2.285c0 .051-.009.084-.026.097-.018.014-.054.021-.11.021h-.584c-.09 0-.136-.04-.136-.118v-2.285h-.838c-.079 0-.118-.043-.118-.13v-.431c0-.055.007-.092.02-.11.014-.017.047-.026.098-.026h2.55zm-9.495-1.04c.055 0 .09.009.103.024.014.016.02.046.02.09v2.656h.036l.502-.827 1.022-1.676c.035-.056.067-.1.094-.136a.347.347 0 01.089-.083.276.276 0 01.106-.038c.04-.006.089-.01.148-.01h.242c.145 0 .246.031.3.092.056.061.084.169.084.322v3.614c0 .075-.042.112-.124.112h-.632c-.055 0-.09-.008-.107-.024-.015-.015-.023-.045-.023-.088v-2.651h-.03l-.525.885-.998 1.618c-.036.055-.067.1-.095.133a.37.37 0 01-.088.08.278.278 0 01-.11.038 1.082 1.082 0 01-.15.009h-.236c-.154 0-.256-.036-.307-.11a.51.51 0 01-.077-.297v-3.62c0-.075.041-.112.124-.112h.632zm32.688 2.735h-.466c-.056 0-.115.004-.178.012a.478.478 0 00-.174.056.372.372 0 00-.133.127.412.412 0 00-.053.224c0 .138.046.234.139.29a.73.73 0 00.375.082 1.995 1.995 0 00.221-.015c.046-.006.092-.014.139-.023a.777.777 0 00.13-.039v-.714zm6.578-1.045c-.209 0-.363.08-.464.239-.1.16-.15.375-.15.646 0 .296.046.52.138.673.093.154.245.23.458.23.11 0 .204-.022.28-.067a.543.543 0 00.19-.19.866.866 0 00.106-.28 2.087 2.087 0 00.003-.714.83.83 0 00-.1-.284.535.535 0 00-.184-.185.528.528 0 00-.277-.068zm7.203.974h-.696v.803h.69a.46.46 0 00.207-.041.365.365 0 00.195-.237.538.538 0 00.018-.13.405.405 0 00-.104-.28c-.068-.077-.172-.115-.31-.115zm-10.845-.95a1.73 1.73 0 00-.216.017 1.585 1.585 0 00-.234.047v1.612a1.736 1.736 0 00.493.065.63.63 0 00.483-.2c.125-.134.187-.363.187-.686 0-.161-.016-.297-.047-.407a.656.656 0 00-.14-.266.5.5 0 00-.225-.141 1.015 1.015 0 00-.3-.042zm-21.085 0a1.66 1.66 0 00-.216.017 1.584 1.584 0 00-.235.047v1.612a1.736 1.736 0 00.493.065.63.63 0 00.484-.2c.125-.134.187-.363.187-.686a1.48 1.48 0 00-.048-.407.656.656 0 00-.14-.266.5.5 0 00-.225-.141 1.015 1.015 0 00-.3-.042zm7.202-.042a.507.507 0 00-.396.171.731.731 0 00-.177.437h1.104c0-.087-.009-.167-.026-.242a.52.52 0 00-.086-.192.412.412 0 00-.16-.127.613.613 0 00-.26-.047zm-10.499 0a.507.507 0 00-.395.171.731.731 0 00-.177.437h1.104a1.05 1.05 0 00-.027-.242.52.52 0 00-.085-.192.412.412 0 00-.16-.127.613.613 0 00-.26-.047zm-21.05-8.432l-.029.019-1.231 1.231v-.405a.086.086 0 00-.053-.079l-.033-.007h-1.636a.086.086 0 00-.08.053l-.006.033v1.741l-.286-.286a.086.086 0 00-.093-.019l-.029.02-1.156 1.156a.086.086 0 00-.02.093l.02.028 1.23 1.232h-.404a.086.086 0 00-.08.052l-.006.034v1.635c0 .036.022.066.052.08l.034.006h1.741l-.286.287a.086.086 0 00-.02.093l.02.028 1.157 1.157a.086.086 0 00.093.019l.028-.02 1.231-1.23v.405c0 .035.022.066.053.079l.033.006h1.636a.086.086 0 00.08-.052l.006-.033v-1.742l.286.287a.086.086 0 00.093.019l.029-.02 1.156-1.156a.086.086 0 00.02-.093l-.02-.029-1.23-1.23h.404a.086.086 0 00.08-.053l.006-.033v-1.636a.086.086 0 00-.053-.08l-.033-.006h-1.741l.286-.287a.086.086 0 00.02-.093l-.02-.028-1.156-1.157a.086.086 0 00-.094-.019zm.158 1.67v1.636c0 .035.022.066.053.079l.033.006h.786l.64-.508-.509.508-.648.649a.086.086 0 00-.02.093l.02.028.556.556.811.093h-1.636a.086.086 0 00-.08.052l-.006.034v.786l.509.639-1.157-1.157a.086.086 0 00-.093-.019l-.029.02-.556.555-.092.811v-1.635a.086.086 0 00-.053-.08l-.033-.006h-.786l-.64.508 1.157-1.157a.086.086 0 00.02-.093l-.02-.028-.556-.556-.811-.093h1.636a.086.086 0 00.08-.052l.006-.034v-.786l-.509-.639 1.157 1.157a.086.086 0 00.093.019l.029-.02.556-.555.092-.811zm14.174-4.416c.159-.003.212.114.209.255v1.031c.003.128-.077.223-.209.22h-3.499v1.448h2.05c1.284 0 2.291.876 2.558 2.151.036.175.029.334.027.468-.05 1.558-1.277 2.601-2.781 2.549h-3.043a.567.567 0 01-.572-.571v-6.98c0-.223.14-.571.615-.571zm14.235 0c.36 0 .614.268.613.572v7.341c0 .113-.07.209-.21.209h-1.343a.196.196 0 01-.208-.196v-6.397h-2.26l-.046.811a131.36 131.36 0 01-.116 1.584c-.04.486-.09.93-.152 1.334s-.147.77-.255 1.097a3.577 3.577 0 01-.425.87c-.54.818-1.169.894-1.884.897h-.085c-.112 0-.196-.085-.196-.21v-1.13c0-.118.109-.19.194-.19h.038c.95 0 1.023-1.758 1.087-2.49.04-.445.08-.964.114-1.565l.104-1.76c.005-.085.022-.16.026-.23.015-.248.217-.547.559-.547zm19.84 0c.302.002.61.029.891.115.689.21 1.272.688 1.591 1.403.135.304.229.65.229 1.02a2.576 2.576 0 01-2.559 2.625h-1.925v2.715a.3.3 0 01-.024.14.195.195 0 01-.17.104h-1.368a.193.193 0 01-.2-.197v-7.218c0-.053.005-.103.007-.15a.567.567 0 01.588-.557zm-7.132 0c.41 0 .578.283.692.635l2.403 7.234c.033.137-.056.252-.193.253h-1.466c-.087 0-.161-.047-.2-.186l-.452-1.506h-2.653l-.452 1.472a.62.62 0 01-.035.1c-.059.126-.155.12-.2.12h-1.41c-.106 0-.241-.101-.188-.262l2.401-7.225a1.22 1.22 0 01.184-.39.58.58 0 01.528-.243zm-9.464 0c.088 0 .193.068.193.193v2.958h.915c.114.002.236-.007.365-.027.128-.02.255-.065.379-.133a1.03 1.03 0 00.341-.313c.103-.139.186-.328.248-.566l.521-1.95c.02-.073.052-.12.098-.137a.311.311 0 01.134-.025h1.266c.151 0 .213.138.193.23l-.532 2.068a2.47 2.47 0 01-.363.855 1.988 1.988 0 01-.622.59v.057c.2.07.367.149.498.238.131.09.24.193.32.307.084.114.151.241.205.384.052.14.103.3.147.473l.718 2.688c.019.076-.032.24-.201.232h-1.345c-.074 0-.146-.036-.185-.14l-.713-2.513c-.08-.265-.182-.468-.303-.609a.942.942 0 00-.464-.29 2.342 2.342 0 00-.682-.075h-.938v3.441c0 .11-.098.186-.209.186H1031c-.106 0-.208-.078-.208-.186v-7.75c0-.103.093-.186.208-.186zm-13.682-.016l3.267.016c.137 0 .22.085.22.196v1.126a.195.195 0 01-.206.196h-3.137a.567.567 0 00-.573.57v.866h3.325c.141 0 .22.083.22.197v1.085c0 .07-.06.19-.2.19h-3.345v1.545c0 .488.38.621.572.621h3.148c.137 0 .196.118.196.197v1.136a.194.194 0 01-.2.197h-3.333c-1.148 0-2.144-.953-2.144-2.132v-3.847c0-1.136.962-2.164 2.19-2.159zm39.29.016c.11 0 .185.098.185.208v1.101c0 .107-.078.209-.185.209h-2.144v6.418c0 .11-.097.186-.208.186h-1.344c-.107 0-.209-.078-.209-.186v-6.418h-2.108c-.108 0-.186-.102-.186-.209v-1.1c0-.111.075-.21.186-.21h6.013zm-44.894 4.426h-1.692v2.155h1.68c.64 0 1.144-.462 1.124-1.1-.02-.64-.515-1.055-1.112-1.055zm28.249-2.553h-.07l-.44 1.653-.44 1.468h1.818l-.44-1.468-.428-1.653zm7.366-.355h-1.506v2.125l1.578.002c.613 0 1.063-.497 1.064-1.064 0-.566-.453-1.085-1.136-1.063z" id="belcart-pass-icon"/></g></g></svg>