<svg width="87" height="21" xmlns="http://www.w3.org/2000/svg"><g id="Page-1" stroke="none" stroke-width="1" fill="none" fill-rule="evenodd"><g id="New-Carte.by-Copy-5" transform="translate(-500 -2198)" fill="#FFF" fill-rule="nonzero"><g id="visa" transform="translate(380 2198)"><g id="logotip-belkart-v-odnom-tsvete-gorizontalnyy_nov" transform="translate(120)"><path d="M30.61 12.02c.025.806-.615 1.39-1.425 1.39h-2.13v-2.723h2.144c.757 0 1.386.526 1.411 1.332zm52.8-5.004v8.104c0 .14-.123.234-.263.234h-1.705c-.135 0-.264-.098-.264-.234V7.016h-2.674c-.137 0-.235-.128-.235-.263v-1.39c0-.139.095-.264.235-.264h7.625c.14 0 .235.125.235.265v1.39c0 .134-.099.262-.235.262H83.41zm-42.682 8.002v-1.346c0-.1-.076-.248-.249-.248h-3.991a.732.732 0 01-.726-.784v-1.952h4.243c.177 0 .253-.15.253-.24v-1.37c0-.143-.1-.249-.279-.249h-4.217V7.736c0-.465.388-.72.726-.72h3.98c.185 0 .26-.143.26-.247v-1.42c0-.142-.105-.25-.28-.25l-4.143-.018c-1.556-.008-2.776 1.29-2.776 2.725v4.857c0 1.49 1.264 2.691 2.718 2.691h4.229a.245.245 0 00.252-.247v-.09zm16.905-5.12v-.072c.315-.192.58-.44.788-.744.21-.304.366-.667.46-1.08l.676-2.612a.244.244 0 00-.246-.29h-1.605a.413.413 0 00-.17.032c-.058.021-.1.08-.124.172l-.66 2.464c-.08.3-.185.538-.314.713-.13.179-.275.31-.433.396a1.523 1.523 0 01-.48.168 2.763 2.763 0 01-.464.034h-1.16V5.344a.245.245 0 00-.245-.245h-1.724c-.146 0-.264.106-.264.235v9.786c0 .136.128.234.264.234h1.704c.141 0 .265-.094.265-.234v-4.344h1.19c.34-.005.629.027.865.095.235.066.43.188.588.366.154.178.283.434.383.768l.905 3.174c.05.13.14.175.234.175h1.706c.215.01.279-.196.256-.291l-.911-3.395a5.724 5.724 0 00-.187-.597 2.074 2.074 0 00-.259-.486 1.645 1.645 0 00-.406-.386 2.685 2.685 0 00-.632-.3zm6.184 1.507l.558-1.853.559-2.087h.087l.544 2.087.559 1.853h-2.307zm2.835 1.814l.573 1.901c.049.175.143.234.254.234h1.858c.174 0 .288-.144.245-.318l-3.047-9.133c-.144-.446-.359-.804-.878-.804l-1.32.004a.737.737 0 00-.67.307c-.09.119-.168.28-.232.493l-3.044 9.12c-.068.204.102.331.238.331h1.787c.057 0 .179.01.254-.15a.85.85 0 00.045-.128l.572-1.857h3.365zm9.151-4.86a1.34 1.34 0 01-1.348 1.343l-2-.002V7.016h1.907c.867-.026 1.443.628 1.441 1.343zm-3.349 6.688V11.62h2.44c1.69 0 3.271-1.376 3.244-3.315 0-.467-.117-.904-.288-1.288a3.196 3.196 0 00-2.019-1.772c-.356-.108-.747-.14-1.13-.145h-3.727c-.397 0-.73.273-.746.704-.003.06-.01.123-.009.19v9.114c0 .142.106.246.254.247h1.734c.09 0 .176-.053.216-.132a.37.37 0 00.031-.175zm-46.907.307h3.857c1.908.067 3.465-1.25 3.528-3.218.002-.168.012-.37-.035-.59-.337-1.61-1.615-2.717-3.243-2.717h-2.6V7.002h4.437c.168.004.27-.116.264-.278V5.422c.005-.178-.062-.327-.264-.323h-5.89c-.603 0-.78.44-.78.724v8.81c0 .397.314.721.726.721zM43.164 6.08l-.132 2.225a58.184 58.184 0 01-.144 1.975c-.081.925-.175 3.145-1.38 3.145h-.047c-.108-.002-.245.091-.245.239v1.428c0 .156.105.263.248.263h.107c.908-.003 1.704-.099 2.39-1.13.214-.324.403-.688.538-1.1.137-.413.245-.876.324-1.385.077-.51.14-1.07.193-1.685.05-.612.098-1.276.147-2l.059-1.023h2.865v8.077c0 .137.118.26.264.246h1.703c.177 0 .266-.12.266-.263V5.823c.001-.385-.322-.724-.777-.724h-5.637c-.434 0-.69.378-.71.691-.004.089-.026.185-.032.29zm-30.902 5.917a.215.215 0 00-.216.213v1.91l1.286 1.629-2.886-2.876a.216.216 0 00-.304 0l-1.377 1.372-.256 2.037v-4.065a.216.216 0 00-.215-.215H6.231L4.71 13.24l2.887-2.875a.214.214 0 000-.303l-1.445-1.44-1.96-.184h4.084a.215.215 0 00.215-.215V6.281L7.218 4.689l2.887 2.875a.216.216 0 00.304 0l1.42-1.414.21-1.994v4.066c0 .118.096.215.215.215h2.032L15.83 7.2l-2.887 2.874a.214.214 0 000 .303l1.416 1.41 1.986.21h-4.083zm8.215-.473l-3.101-3.087L16.135 7.2l2.26 1.237a.215.215 0 00.215-.215V4.156a.214.214 0 00-.215-.212h-6.141l2.498-.705a.214.214 0 000-.302L11.865.062a.217.217 0 00-.304 0L8.491 3.12 7.178 4.44v.002h-.001l.002-.004.008-.013L8.49 2.108a.215.215 0 00-.215-.215H4.193a.215.215 0 00-.215.215v6.114l-.723-2.485a.217.217 0 00-.304 0L.064 8.613a.211.211 0 000 .302l4.342 4.324-2.255-1.237a.216.216 0 00-.214.215v4.065c0 .118.097.215.214.215h6.143l-2.495.7a.213.213 0 000 .303l2.887 2.875a.217.217 0 00.305 0l3.055-3.044 1.27-1.262-1.27 2.256c0 .118.097.215.216.215h4.083a.215.215 0 00.214-.215V12.21l.727 2.493a.217.217 0 00.304 0l2.887-2.874a.215.215 0 000-.304z" id="Shape"/></g></g></g></g></svg>