<?xml version="1.0" encoding="UTF-8"?>
<svg width="80px" height="20px" viewBox="0 0 80 20" version="1.1" xmlns="http://www.w3.org/2000/svg" xmlns:xlink="http://www.w3.org/1999/xlink">
    <!-- Generator: Sketch 61.2 (89653) - https://sketch.com -->
    <title>Combined Shape</title>
    <desc>Created with Sketch.</desc>
    <g id="Page-1" stroke="none" stroke-width="1" fill="none" fill-rule="evenodd">
        <path d="M10.7092024,0.0608246083 C10.7869324,-0.0202748695 10.9130509,-0.0202748695 10.9907809,0.0608246083 L10.9907809,0.0608246083 L13.6652128,2.87382505 C13.7423105,2.95581824 13.7423105,3.0891689 13.6652128,3.1695825 L13.6652128,3.1695825 L11.3505437,3.85932296 L17.0396687,3.85932296 C17.1493086,3.85932296 17.23838,3.95303837 17.23838,4.06747551 L17.23838,4.06747551 L17.23838,8.04642124 C17.23838,8.16152347 17.1493086,8.2561326 17.0396687,8.2561326 L17.0396687,8.2561326 L14.9455638,7.04581331 L16.0955087,8.2561326 L18.9685333,11.2773687 C19.0462632,11.3593619 19.0462632,11.4927126 18.9685333,11.5747058 L18.9685333,11.5747058 L16.2941211,14.3877062 C16.2172408,14.4688057 16.0902529,14.4688057 16.0125229,14.3877062 L16.0125229,14.3877062 L15.339252,11.9488608 L15.339252,17.9334909 C15.339252,18.0488218 15.2493112,18.1432023 15.1405407,18.1432023 L15.1405407,18.1432023 L11.3581507,18.1432023 C11.2485108,18.1432023 11.1587677,18.0488218 11.1587677,17.9334909 L11.1587677,17.9334909 L12.334201,15.7250578 L11.1587677,16.9608168 L8.32802622,19.9391754 C8.2509483,20.0202749 8.1239604,20.0202749 8.04623045,19.9391754 L8.04623045,19.9391754 L5.37201587,17.1261542 C5.29406858,17.0443896 5.29406858,16.9108103 5.37201587,16.8297316 L5.37201587,16.8297316 L7.68283207,16.1440441 L1.99285742,16.1440441 C1.88406711,16.1440441 1.7941264,16.0494349 1.7941264,15.9341041 L1.7941264,15.9341041 L1.7941264,11.955387 C1.7941264,11.8400561 1.88406711,11.745447 1.99285742,11.745447 L1.99285742,11.745447 L4.08158805,12.9557455 L0.0589346746,8.72429399 C-0.0196448915,8.6423008 -0.0196448915,8.50961523 0.0589346746,8.42853654 L0.0589346746,8.42853654 L2.73314925,5.61485022 C2.81022717,5.53375075 2.93636546,5.53375075 3.01494502,5.61485022 L3.01494502,5.61485022 L3.68499537,8.04650438 L3.68499537,2.06253929 C3.68499537,1.94652256 3.77493608,1.85282793 3.8837264,1.85282793 L3.8837264,1.85282793 L7.66633372,1.85282793 C7.7757563,1.85282793 7.86569701,1.94652256 7.86569701,2.06253929 L7.86569701,2.06253929 L6.65708914,4.3313294 L6.65023294,4.34417396 L6.64788168,4.34799823 L6.64867202,4.34799823 L6.64926478,4.34633551 L7.86559822,3.05177834 Z M11.1509631,4.06747551 L10.9576063,6.01841469 L9.64169005,7.40263438 C9.5652444,7.48371308 9.43847384,7.48371308 9.36052655,7.40263438 L9.36052655,7.40263438 L6.6856797,4.58871944 L7.86559822,6.14636149 L7.86559822,8.04642124 C7.86559822,8.16241719 7.77565751,8.2561326 7.66623492,8.2561326 L7.66623492,8.2561326 L3.8836276,8.2561326 L5.69826827,8.43722429 L7.03686733,9.8462186 C7.11459728,9.92731807 7.11459728,10.0606687 7.03686733,10.1426619 L7.03686733,10.1426619 L4.36267251,12.9556624 L5.77151304,11.7453639 L7.68273327,11.7453639 C7.79150383,11.7453639 7.88144454,11.839973 7.88144454,11.9553038 L7.88144454,11.9553038 L7.88144454,15.9340209 L8.11935667,13.9402666 L9.39457045,12.5981762 C9.47251774,12.5170975 9.59865603,12.5170975 9.67575371,12.5981762 L9.67575371,12.5981762 L12.3499485,15.4118625 L11.1586689,13.8179522 L11.1586689,11.9487776 C11.1586689,11.8343405 11.248412,11.73996 11.3580519,11.73996 L11.3580519,11.73996 L15.1404419,11.73996 L13.3009648,11.5356525 L11.9895534,10.1552779 C11.9118235,10.0741784 11.9118235,9.94082773 11.9895534,9.85883453 L11.9895534,9.85883453 L14.6637483,7.04581331 L13.2330746,8.2561326 L11.3505437,8.2561326 C11.2409038,8.2561326 11.1509631,8.16152347 11.1509631,8.04642124 L11.1509631,8.04642124 L11.1509631,4.06747551 Z M29.1705992,4.99003969 C29.3573368,4.98606947 29.4192204,5.13157881 29.4153675,5.30637292 L29.4153675,5.30637292 L29.4153675,6.58020836 C29.42007,6.73901951 29.3262764,6.85592996 29.1705992,6.85187706 L29.1705992,6.85187706 L25.0609886,6.85187706 L25.0609886,8.64063807 L27.4686017,8.64063807 C28.9765904,8.64063807 30.1603619,9.72390429 30.4730007,11.2995869 C30.5160544,11.5149308 30.5071433,11.7120262 30.5055627,11.8764698 C30.4473146,13.8019693 29.0044302,15.0908732 27.237526,15.0257775 L27.237526,15.0257775 L23.6641415,15.0257775 C23.2827629,15.0257775 22.9919572,14.7086124 22.9919572,14.3209478 L22.9919572,14.3209478 L22.9919572,5.69811125 C22.9919572,5.42081006 23.155775,4.99003969 23.7140317,4.99003969 L23.7140317,4.99003969 Z M79.7824391,4.99012237 C79.9117783,4.99012237 80,5.11243667 80,5.24917513 L80,6.60882804 C80,6.7405991 79.9085576,6.86628043 79.7824391,6.86628043 L77.2645538,6.86628043 L77.2645538,14.796924 C77.2645538,14.9336416 77.1497767,15.0257775 77.0197855,15.0257775 L75.440923,15.0257775 C75.3156344,15.0257775 75.1961547,14.9295887 75.1961547,14.796924 L75.1961547,6.86628043 L72.7191695,6.86628043 C72.5928336,6.86628043 72.5016086,6.7405991 72.5016086,6.60882804 L72.5016086,5.24917513 C72.5016086,5.11243667 72.5898303,4.99012237 72.7191695,4.99012237 L79.7824391,4.99012237 Z M33.630113,4.97184339 L37.4683801,4.99012237 C37.6294119,4.99078746 37.7268608,5.09576784 37.7268608,5.23406511 L37.7268608,5.23406511 L37.7268608,6.62391728 C37.7268608,6.72640357 37.6572516,6.86628043 37.4859454,6.86628043 L37.4859454,6.86628043 L33.7992853,6.86628043 C33.4857772,6.86628043 33.126864,7.11564781 33.126864,7.57021641 L33.126864,7.57021641 L33.126864,8.64063807 L37.0332583,8.64063807 C37.1987753,8.64063807 37.2917193,8.74403887 37.2917193,8.88391572 L37.2917193,8.88391572 L37.2917193,10.2253202 C37.2917193,10.3127173 37.2214778,10.4595983 37.0568105,10.4595983 L37.0568105,10.4595983 L33.126864,10.4595983 L33.126864,12.3693227 C33.126864,12.9716661 33.5742162,13.1367748 33.7992853,13.1367748 L33.7992853,13.1367748 L37.4964371,13.1367748 C37.6566193,13.1367748 37.7268608,13.2816191 37.7268608,13.3791588 L37.7268608,13.3791588 L37.7268608,14.6966823 C37.7268608,14.7261957 37.7274536,14.7588475 37.7268608,14.784308 C37.7238575,14.9192383 37.6309135,15.0257775 37.4934338,15.0257775 L37.4934338,15.0257775 L33.5763502,15.0257775 C32.2293933,15.0257775 31.0584649,13.8497103 31.0584649,12.3923099 L31.0584649,12.3923099 L31.0584649,7.63936505 C31.0584649,6.23533813 32.1887105,4.96466187 33.630113,4.97184339 L33.630113,4.97184339 Z M49.702114,4.99012237 C49.8048978,4.99012237 49.9288824,5.07504611 49.9288824,5.22934712 L49.9288824,5.22934712 L49.9288824,8.8846016 L51.0038832,8.8846016 C51.1383596,8.88773999 51.2818261,8.87512405 51.4336702,8.85126393 C51.5824912,8.82580343 51.7319643,8.77016445 51.8777821,8.6868203 C52.0244692,8.60324751 52.1589653,8.47463563 52.279097,8.29982074 C52.3990114,8.1288509 52.4966579,7.89459354 52.5699027,7.60197449 L52.5699027,7.60197449 L53.1817049,5.19104206 C53.2044075,5.10140033 53.2429563,5.04328804 53.2964821,5.02188044 C53.3525962,4.99799953 53.4037707,4.98845964 53.453661,4.99012237 L53.453661,4.99012237 L54.9404488,4.99012237 C55.1194806,4.99012237 55.1920733,5.16086358 55.1685212,5.27461485 L55.1685212,5.27461485 L54.5430065,7.8301629 C54.4547848,8.23541088 54.3110812,8.58996649 54.1162228,8.88773999 C53.923696,9.18576291 53.678078,9.42814684 53.3857708,9.61578551 L53.3857708,9.61578551 L53.3857708,9.68717882 C53.622201,9.77233119 53.8170594,9.87076459 53.971235,9.98046297 C54.125213,10.0926554 54.2522009,10.2181081 54.3481284,10.3586709 C54.4449253,10.5001481 54.5241569,10.6575875 54.5875422,10.8346471 C54.6496432,11.0080902 54.7085432,11.2042919 54.7605674,11.4180562 L54.7605674,11.4180562 L55.6045123,14.7405991 C55.6257132,14.8343145 55.5665958,15.0361487 55.3672325,15.0257775 L55.3672325,15.0257775 L53.787718,15.0257775 C53.7007806,15.0257775 53.6168464,14.9820893 53.5707894,14.8541425 L53.5707894,14.8541425 L52.7322188,11.7478372 C52.6392748,11.4212153 52.5200124,11.1709542 52.3771782,10.9968252 C52.2306887,10.8220311 52.050175,10.702876 51.8326141,10.6384454 C51.6141839,10.57177 51.3460807,10.540677 51.0310709,10.5454158 L51.0310709,10.5454158 L49.9288824,10.5454158 L49.9288824,14.796924 C49.9288824,14.9336416 49.8147375,15.0257775 49.684114,15.0257775 L49.684114,15.0257775 L48.1052516,15.0257775 C47.9797653,15.0257775 47.8604832,14.9295887 47.8604832,14.796924 L47.8604832,14.796924 L47.8604832,5.21966174 C47.8604832,5.09329454 47.9699058,4.99012237 48.1052516,4.99012237 L48.1052516,4.99012237 Z M60.819295,4.99012237 C61.2998218,4.99012237 61.4991851,5.34039646 61.6321795,5.77671664 L61.6321795,5.77671664 L64.4545631,14.7142449 C64.4946136,14.884321 64.3888266,15.0249461 64.2277948,15.0258678 L64.2277948,15.0258678 L62.5062957,15.0258678 C62.403512,15.0258678 62.3165746,14.9676652 62.2711695,14.796924 L62.2711695,14.796924 L61.7409699,12.9358551 L58.6239079,12.9358551 L58.0936885,14.7539009 C58.0829794,14.7944507 58.0680025,14.8437713 58.0521561,14.8786885 C57.9825469,15.0345691 57.8692714,15.0258678 57.8172275,15.0258678 L56.1612674,15.0258678 C56.0357812,15.0258678 55.87797,14.9009898 55.9407033,14.7023148 L55.9407033,14.7023148 L58.7607553,5.77671664 C58.8196357,5.56858486 58.8922284,5.41045959 58.975965,5.29444286 C59.1414819,5.06467486 59.353708,4.9781923 59.5963227,4.99394664 L59.5963227,4.99394664 Z M69.1965248,4.99012237 C69.5515851,4.99394664 69.9132645,5.02570471 70.2434686,5.13226469 C71.0525003,5.39129667 71.7377647,5.98260373 72.1131367,6.86628043 C72.2718172,7.24134993 72.3806075,7.66956431 72.3806075,8.12660622 C72.4056613,10.0241719 70.9400744,11.3703151 69.3761889,11.3703151 L69.3761889,11.3703151 L67.1152827,11.3703151 L67.1152827,14.7252812 C67.1152827,14.7944507 67.1099281,14.8500896 67.0865933,14.8969369 C67.0495461,14.9732977 66.9694451,15.0257775 66.8863606,15.0257775 L66.8863606,15.0257775 L65.2803105,15.0257775 C65.1434631,15.0248837 65.0451181,14.9223974 65.0451181,14.784308 L65.0451181,14.784308 L65.0451181,5.86411369 C65.0445323,5.79901795 65.0505191,5.7370814 65.0528901,5.67894833 C65.0687364,5.2570523 65.376238,4.99012237 65.7441413,4.99012237 L65.7441413,4.99012237 Z M45.8925166,4.99012237 C46.3139457,4.99012237 46.6131882,5.32214803 46.6116138,5.69811125 L46.6116138,5.69811125 L46.6116138,14.7683043 C46.6116138,14.9072874 46.5293727,15.0257775 46.3653376,15.0257775 L46.3653376,15.0257775 L44.7879768,15.0257775 C44.6528484,15.0392871 44.5432084,14.9185524 44.5432084,14.7849731 L44.5432084,14.7849731 L44.5432084,6.88047596 L41.8893451,6.88047596 L41.8349499,7.8826427 C41.7895647,8.58996649 41.744377,9.2398223 41.6989719,9.83900652 C41.6505833,10.4406641 41.5916833,10.9896132 41.5199599,11.4878907 C41.4467151,11.9861682 41.3469347,12.4391572 41.2199468,12.8428048 C41.0946581,13.2464732 40.920151,13.6026084 40.720768,13.9195448 C40.0860656,14.9289236 39.348777,15.0226183 38.5080527,15.0257775 L38.5080527,15.0257775 L38.4082525,15.0257775 C38.2761274,15.0257775 38.1786982,14.9208179 38.1786982,14.7683043 L38.1786982,14.7683043 L38.1786982,13.3705957 C38.1786982,13.2259801 38.3054688,13.1351121 38.4059013,13.1367748 L38.4059013,13.1367748 L38.4498047,13.1367748 C39.5656859,13.1367748 39.6524257,10.9644021 39.7280217,10.0590891 C39.7755607,9.51014003 39.820946,8.86793276 39.8609965,8.12660622 L39.8609965,8.12660622 L39.9832621,5.94926606 C39.9886166,5.84677977 40.0089679,5.75283573 40.0136704,5.66635317 C40.0316704,5.35953859 40.2689305,4.99012237 40.6708777,4.99012237 L40.6708777,4.99012237 Z M27.0471529,10.4589125 L25.0609886,10.4589125 L25.0609886,13.1225793 L27.0343098,13.1225793 C27.7850934,13.1225793 28.3774138,12.5520148 28.3547113,11.7620327 C28.3313765,10.9729443 27.7489156,10.4589125 27.0471529,10.4589125 L27.0471529,10.4589125 Z M60.2299779,7.30486607 L60.1492446,7.30486607 L59.6316706,9.34794108 L59.1149463,11.1612689 L61.2514332,11.1612689 L60.7338592,9.34794108 L60.2299779,7.30486607 Z M68.8830364,6.86619729 L67.1152827,6.86619729 L67.1152827,9.49247357 L68.9691044,9.49413731 C69.6881954,9.49505079 70.2171898,8.88075654 70.2177856,8.18066561 C70.2192644,7.48049154 69.6852119,6.84075758 68.8830364,6.86619729 L68.8830364,6.86619729 Z" id="Combined-Shape" fill="#FFFFFF"></path>
    </g>
</svg>