<svg width="58" height="15" xmlns="http://www.w3.org/2000/svg"><g id="Page-1" stroke="none" stroke-width="1" fill="none" fill-rule="evenodd"><g id="New-Carte.by-Copy-5" transform="translate(-731 -2200)" fill="#FFF" fill-rule="nonzero"><g id="visa" transform="translate(380 2198)"><path d="M355.525 17c-.477 0-.972-.114-1.484-.342a5.555 5.555 0 01-1.442-.943h-.063l-.147 1.036H351V2h1.726v4.02l-.042 1.823a7.072 7.072 0 011.515-1.005 3.772 3.772 0 011.683-.404c.66 0 1.242.12 1.747.362.505.242.93.587 1.273 1.036.344.45.604.988.78 1.616.174.629.262 1.33.262 2.103 0 .856-.12 1.623-.358 2.3-.238.677-.56 1.25-.968 1.72a4.031 4.031 0 01-3.094 1.43zm-.295-1.43c.42 0 .81-.093 1.168-.28.358-.186.666-.448.926-.787.26-.338.463-.756.61-1.253a5.903 5.903 0 00.221-1.678 7.21 7.21 0 00-.147-1.513 3.35 3.35 0 00-.474-1.17 2.256 2.256 0 00-.841-.756c-.344-.18-.754-.27-1.231-.27-.828 0-1.74.456-2.736 1.368v5.283c.449.387.894.66 1.336.818.442.159.831.238 1.168.238zM366.784 17c-.688 0-1.33-.12-1.926-.363a4.568 4.568 0 01-1.557-1.035 4.786 4.786 0 01-1.042-1.648c-.252-.649-.379-1.388-.379-2.216 0-.83.13-1.572.39-2.228a5.199 5.199 0 011.03-1.667 4.472 4.472 0 011.463-1.047 4.175 4.175 0 011.705-.362c.645 0 1.224.11 1.736.331.512.221.94.539 1.284.953.344.415.607.912.79 1.492.182.58.273 1.23.273 1.947 0 .18-.004.356-.01.529a2.514 2.514 0 01-.053.445h-6.903c.07 1.078.41 1.93 1.02 2.559.61.628 1.407.943 2.39.943a4.08 4.08 0 001.357-.218c.413-.145.81-.335 1.189-.57l.61 1.12a8.77 8.77 0 01-1.494.724c-.547.207-1.172.311-1.873.311zm-3.22-6.091h5.472c0-1.022-.221-1.8-.663-2.331-.442-.532-1.063-.798-1.863-.798a2.669 2.669 0 00-1.936.819c-.267.27-.488.597-.663.984a4.388 4.388 0 00-.347 1.326zm9.68 5.842V3.161h3.936c.772 0 1.477.068 2.115.206.638.139 1.182.363 1.631.674.449.31.8.721 1.052 1.232.253.512.379 1.14.379 1.886 0 .718-.123 1.34-.368 1.864a3.48 3.48 0 01-1.042 1.306 4.635 4.635 0 01-1.61.777 7.767 7.767 0 01-2.073.259h-2.273v5.386h-1.746zm1.747-6.795h2.063c1.206 0 2.1-.225 2.683-.674.582-.448.873-1.156.873-2.123 0-.98-.305-1.661-.915-2.04-.61-.38-1.519-.57-2.725-.57h-1.979v5.407zM387.345 17c-.856 0-1.568-.249-2.136-.746-.569-.497-.853-1.202-.853-2.113 0-1.105.498-1.951 1.495-2.538.996-.587 2.588-.998 4.777-1.233 0-.318-.032-.628-.095-.932a2.311 2.311 0 00-.326-.808 1.705 1.705 0 00-.642-.57c-.274-.145-.62-.217-1.042-.217a4.2 4.2 0 00-1.662.331 8.15 8.15 0 00-1.39.746l-.673-1.181c.477-.304 1.06-.597 1.747-.88.687-.284 1.445-.425 2.273-.425 1.249 0 2.153.376 2.715 1.129.56.753.841 1.757.841 3.014v6.174h-1.43l-.148-1.201h-.063c-.491.4-1.017.742-1.578 1.025a3.962 3.962 0 01-1.81.425zm.505-1.367a2.95 2.95 0 001.389-.342c.435-.228.898-.563 1.389-1.005v-2.797c-.856.11-1.575.242-2.157.394-.583.152-1.053.331-1.41.538-.358.207-.618.446-.78.715-.16.27-.241.563-.241.88 0 .58.175.995.526 1.244.35.248.779.373 1.284.373zm7.744 1.118V6.682h1.726v10.07h-1.726zm.884-12.14c-.336 0-.62-.104-.852-.311a1.01 1.01 0 01-.347-.788c0-.331.115-.597.347-.797.231-.2.516-.3.852-.3.337 0 .621.1.853.3.231.2.347.466.347.797 0 .318-.116.58-.347.788-.232.207-.516.31-.853.31zM404.265 17c-1.29 0-2.319-.456-3.083-1.367-.765-.912-1.147-2.21-1.147-3.895 0-.815.123-1.55.368-2.207.246-.656.572-1.212.979-1.668a4.33 4.33 0 011.41-1.056 3.937 3.937 0 011.683-.373c.59 0 1.102.103 1.537.31.435.208.876.49 1.325.85l-.084-1.72V2H409v14.751h-1.431l-.147-1.18h-.064a6.464 6.464 0 01-1.399 1.004 3.52 3.52 0 01-1.694.425zm.379-1.43c.477 0 .926-.114 1.347-.341.42-.228.841-.577 1.262-1.047V8.92c-.435-.387-.852-.66-1.252-.818-.4-.16-.81-.239-1.231-.239-.407 0-.79.093-1.147.28-.358.186-.67.449-.936.787a3.912 3.912 0 00-.632 1.212c-.154.47-.231.995-.231 1.575 0 1.215.245 2.161.736 2.838s1.186 1.015 2.084 1.015z" id="bePaid"/></g></g></g></svg>