<svg width="37" height="25" viewBox="0 0 37 25" fill="none" xmlns="http://www.w3.org/2000/svg">
<path d="M1.83049 24.9295H1.28735V18.7458H1.83049V24.9295ZM5.791 18.7458C6.26715 18.7391 6.74108 18.8122 7.19268 18.9622C7.5851 19.0931 7.94625 19.3037 8.25215 19.5806C8.54521 19.8523 8.77464 20.1848 8.92368 20.5545C9.23851 21.3814 9.23851 22.2938 8.92368 23.1207C8.77464 23.4904 8.54521 23.8229 8.25215 24.0947C7.94625 24.3716 7.5851 24.5822 7.19268 24.713C6.74108 24.8631 6.26715 24.9363 5.791 24.9295H3.51684V18.7458H5.791ZM4.05999 19.2581V24.4171H5.791C6.19905 24.4243 6.60544 24.3623 6.99284 24.2337C7.31827 24.1242 7.61746 23.9474 7.86921 23.7148C8.10869 23.488 8.29291 23.2101 8.4079 22.9021C8.65073 22.2129 8.65073 21.4622 8.4079 20.7731C8.29235 20.4647 8.10813 20.1861 7.86921 19.9582C7.61802 19.7247 7.31883 19.5477 6.99284 19.4392C6.60488 19.3123 6.19905 19.251 5.791 19.2581H4.05999ZM15.4704 18.6752C15.7311 18.6744 15.9906 18.7041 16.2446 18.7635C16.4875 18.8201 16.723 18.9054 16.9452 19.0174C17.159 19.1249 17.3583 19.2593 17.5374 19.4172C17.7127 19.5717 17.8646 19.7501 17.989 19.9472L17.5352 20.2475C17.4286 20.0856 17.3002 19.9386 17.1545 19.8103C17.0071 19.6804 16.8441 19.5691 16.6694 19.479C16.4891 19.3862 16.2977 19.3158 16.1001 19.2692C15.8935 19.2203 15.6825 19.1958 15.4704 19.1963C15.1159 19.1932 14.7648 19.2577 14.4355 19.3862C14.124 19.508 13.841 19.6913 13.6032 19.9251C13.3637 20.1636 13.1745 20.4475 13.0472 20.7599C12.777 21.4534 12.777 22.2219 13.0472 22.9154C13.1745 23.2278 13.3637 23.5116 13.6032 23.7501C13.841 23.9839 14.124 24.1673 14.4355 24.289C14.7648 24.4176 15.1159 24.4821 15.4704 24.4789C15.6814 24.4795 15.8918 24.4558 16.0978 24.4082C16.2949 24.3629 16.4852 24.2931 16.665 24.2006C16.8402 24.1106 17.0027 23.9993 17.15 23.8694C17.2968 23.7402 17.4247 23.5915 17.5307 23.4277L17.9756 23.7501C17.8461 23.9433 17.6909 24.1186 17.5151 24.2714C17.3365 24.4259 17.1389 24.5579 16.9279 24.6644C16.7079 24.775 16.4757 24.8588 16.2357 24.914C15.5586 25.0669 14.8513 25.0154 14.2038 24.766C13.8265 24.6179 13.482 24.3964 13.1918 24.1145C12.9026 23.8301 12.6749 23.4905 12.5219 23.1163C12.1987 22.2948 12.1987 21.3826 12.5219 20.5611C12.6743 20.1861 12.9026 19.8457 13.1918 19.5607C13.482 19.2788 13.8265 19.0573 14.2038 18.9092C14.6068 18.7508 15.0366 18.6713 15.4704 18.6752ZM19.6581 21.4931C19.7374 21.3619 19.8356 21.243 19.9495 21.1397C20.0578 21.0414 20.18 20.9589 20.3117 20.8946C20.4424 20.8314 20.5797 20.7839 20.7215 20.7533C20.8616 20.7226 21.005 20.707 21.1485 20.7069C21.3924 20.7041 21.6353 20.7437 21.8653 20.8239C22.0724 20.8963 22.2621 21.0097 22.4235 21.1574C22.5814 21.3048 22.7048 21.4851 22.7841 21.6852C22.8712 21.9068 22.9147 22.143 22.9113 22.3808V24.9295H22.4039V22.5355C22.4062 22.3434 22.3766 22.1522 22.3146 21.9701C22.2605 21.8104 22.1706 21.6648 22.0523 21.5439C21.9328 21.4252 21.7882 21.334 21.6291 21.2767C21.4466 21.2121 21.2534 21.1807 21.0597 21.1839C20.8716 21.1825 20.6852 21.2162 20.5099 21.2833C20.3441 21.3467 20.1929 21.4429 20.065 21.566C19.9372 21.6905 19.8362 21.8392 19.7669 22.0032C19.6927 22.1802 19.6553 22.3703 19.6581 22.562V24.9295H19.1507V18.5691H19.6581V21.4931ZM25.9285 20.7069C26.1953 20.7045 26.4599 20.7579 26.7049 20.8637C26.9394 20.9652 27.1498 21.1141 27.3234 21.3009C27.5026 21.4967 27.6422 21.7246 27.7348 21.9724C27.8381 22.2457 27.8911 22.5352 27.8906 22.827C27.8906 22.8653 27.89 22.9014 27.8889 22.9352C27.8872 22.9691 27.885 23.0022 27.8822 23.0347H24.3705C24.3839 23.2578 24.4386 23.4765 24.5329 23.6794C24.6184 23.8607 24.7384 24.0235 24.8869 24.1587C25.0325 24.2898 25.2028 24.3912 25.3876 24.4568C25.5813 24.5254 25.785 24.5598 25.9904 24.5584C26.2617 24.5631 26.5308 24.5088 26.7781 24.3994C27.0114 24.2924 27.2235 24.1459 27.4055 23.9665L27.6773 24.3111C27.554 24.4355 27.4172 24.5465 27.2698 24.6424C27.1376 24.7281 26.9958 24.7992 26.8473 24.8543C26.7055 24.9068 26.5587 24.9438 26.4091 24.9647C26.26 24.9854 26.1099 24.9957 25.9597 24.9957C25.67 24.9987 25.3825 24.9454 25.114 24.8388C24.8634 24.7393 24.6362 24.5898 24.4464 24.3994C24.2561 24.2059 24.1076 23.976 24.0105 23.7236C23.9033 23.4459 23.8508 23.1506 23.8547 22.8535C23.8514 22.5583 23.905 22.2652 24.0127 21.99C24.1109 21.7369 24.2594 21.5057 24.4487 21.3098C24.6357 21.1189 24.8595 20.9678 25.1073 20.8659C25.3675 20.7586 25.6466 20.7045 25.9285 20.7069ZM25.9195 21.153C25.7191 21.1505 25.5204 21.1873 25.334 21.2612C25.1615 21.3311 25.0035 21.433 24.869 21.5616C24.7333 21.693 24.6223 21.8479 24.5419 22.0187C24.4554 22.2026 24.4007 22.3998 24.3794 22.6017H27.3748C27.3597 22.3983 27.3101 22.1989 27.228 22.0121C27.1526 21.8415 27.0466 21.6865 26.9137 21.5549C26.7831 21.426 26.6279 21.3241 26.4571 21.2552C26.2863 21.1862 26.1037 21.1514 25.9195 21.153ZM30.81 20.7069C31.107 20.7041 31.4012 20.7604 31.6758 20.8725C31.9354 20.979 32.1676 21.1429 32.354 21.3517L32.0247 21.6919C31.8667 21.5334 31.6803 21.4054 31.4754 21.3142C31.2611 21.2222 31.03 21.1762 30.7966 21.1795C30.5773 21.1777 30.3601 21.2205 30.158 21.3054C29.9649 21.3864 29.7902 21.5051 29.6439 21.6543C29.4966 21.8068 29.3804 21.987 29.3034 22.1843C29.1404 22.6157 29.1404 23.0912 29.3034 23.5226C29.3788 23.7182 29.4938 23.8965 29.6406 24.0468C29.7874 24.1972 29.9632 24.3164 30.158 24.3972C30.3601 24.482 30.5773 24.5249 30.7966 24.5231C31.0333 24.5257 31.2683 24.4775 31.4844 24.3817C31.6898 24.29 31.8773 24.1629 32.0381 24.0063L32.354 24.3508C32.1659 24.5588 31.9332 24.7225 31.6736 24.8301C31.1187 25.0502 30.4997 25.0509 29.9442 24.8322C29.6903 24.7296 29.4592 24.5766 29.2666 24.3826C29.074 24.1886 28.9227 23.9576 28.8228 23.7037C28.6124 23.1554 28.6124 22.5493 28.8228 22.001C28.9222 21.7466 29.0729 21.5151 29.266 21.3206C29.4586 21.1262 29.6897 20.9729 29.9442 20.8703C30.2189 20.759 30.5136 20.7035 30.81 20.7069ZM33.8808 22.5267H34.5618L36.3235 20.7731H36.9643L34.9709 22.7343L37 24.9295H36.3547L34.5618 22.9816H33.8808V24.9295H33.3733V18.5691H33.8808V22.5267Z" fill="#8F9194"/>
<path d="M10.7384 1.1084H6.16724V9.26139H10.7384V1.1084Z" fill="#8F9194"/>
<path d="M6.45738 5.18508C6.45683 4.39988 6.63601 3.62478 6.98154 2.91857C7.32763 2.2123 7.83059 1.59335 8.453 1.10858C7.68211 0.507331 6.75659 0.13343 5.78195 0.0296274C4.80732 -0.0742306 3.82264 0.0962006 2.94122 0.52145C2.05925 0.946645 1.31626 1.60945 0.796006 2.43419C0.275754 3.25888 0 4.21213 0 5.18508C0 6.15797 0.275754 7.11128 0.796006 7.93596C1.31626 8.76065 2.05925 9.42351 2.94122 9.84871C3.82264 10.2739 4.80732 10.4443 5.78195 10.3405C6.75659 10.2367 7.68211 9.86277 8.453 9.26158C7.83059 8.77676 7.32763 8.15786 6.98154 7.45159C6.63601 6.74532 6.45683 5.97027 6.45738 5.18508Z" fill="#636366"/>
<path d="M16.9056 5.18508C16.9056 6.15797 16.6298 7.11122 16.1096 7.93591C15.5893 8.7606 14.8463 9.42346 13.9643 9.84865C13.0829 10.2739 12.0982 10.4443 11.1236 10.3405C10.149 10.2367 9.22346 9.86277 8.45312 9.26158C9.07497 8.77626 9.57736 8.15725 9.92289 7.45109C10.2684 6.74493 10.4482 5.97011 10.4482 5.18508C10.4482 4.39999 10.2684 3.62517 9.92289 2.91901C9.57736 2.21285 9.07497 1.59384 8.45312 1.10858C9.22346 0.507331 10.149 0.13343 11.1236 0.0296274C12.0982 -0.0742306 13.0829 0.0962006 13.9643 0.52145C14.8463 0.946645 15.5893 1.60951 16.1096 2.43419C16.6298 3.25888 16.9056 4.21213 16.9056 5.18508Z" fill="#C1C2C4"/>
</svg>
