<svg xmlns="http://www.w3.org/2000/svg" width="70" height="17" viewBox="0 0 70 17" fill="none"><script xmlns=""/>
    <g clip-path="url(#clip0_45_19451)">
        <path d="M53.6806 0.55076L53.3494 0.54787C52.5448 0.540848 51.8869 1.18741 51.8799 1.992L51.8774 2.27688C51.8704 3.08147 52.5169 3.73941 53.3215 3.74644L53.6527 3.74933C54.4573 3.75635 55.1152 3.10979 55.1223 2.3052L55.1248 2.02032C55.1318 1.21572 54.4852 0.557782 53.6806 0.55076Z" fill="white"/>
        <path d="M0 9.39878V8.17177C0.0208459 8.00307 0.0422709 7.83418 0.0642749 7.6651C0.0870509 7.48829 0.115425 7.32114 0.149396 7.16364C0.569402 5.21107 1.55669 3.62678 3.11125 2.41077C4.33189 1.45572 5.75501 0.902149 7.38061 0.750051C7.51495 0.737891 7.64408 0.746577 7.78015 0.728047C7.82802 0.721484 7.8757 0.718396 7.92318 0.718782C10.3737 0.737698 12.4101 1.63079 14.0322 3.39806C14.3287 3.72117 14.5873 4.05992 14.8081 4.4143C14.8093 4.41608 14.81 4.41814 14.8102 4.42028C14.8104 4.42241 14.8101 4.42457 14.8092 4.42653C14.8083 4.42849 14.807 4.43021 14.8053 4.43151C14.8036 4.43281 14.8016 4.43366 14.7994 4.43398C12.1259 4.89375 9.526 5.73048 7.03954 6.79362C4.68203 7.80156 2.40191 9.00426 0.199194 10.4017C0.165995 10.4229 0.146693 10.4141 0.141289 10.3751L0 9.39878Z" fill="white"/>
        <path d="M69.4875 10.3529V11.5811C69.455 11.8896 69.4078 12.1943 69.3456 12.4954C69.1788 13.308 68.8559 14.0384 68.3768 14.6866C67.5378 15.8221 66.2517 16.521 64.8527 16.7405C64.3887 16.813 63.9554 16.842 63.5528 16.8273C62.2302 16.7781 60.9499 16.2743 60.1983 15.1185C60.1732 15.0799 60.158 15.0836 60.1526 15.1295L59.9898 16.5424C59.9888 16.5511 59.9848 16.559 59.9783 16.5648C59.9719 16.5706 59.9637 16.5737 59.9551 16.5737L57.4136 16.5743C57.4086 16.5743 57.4037 16.5723 57.4001 16.5687C57.3965 16.5651 57.3945 16.5602 57.3945 16.5552V0.766145C57.3945 0.751475 57.4019 0.744141 57.4165 0.744141H60.1346C60.1524 0.744141 60.1612 0.753019 60.1612 0.770777L60.1607 6.84794C60.1607 6.86917 60.1667 6.8709 60.1786 6.85315C60.4531 6.45476 60.797 6.13512 61.2105 5.89424C62.1192 5.36537 63.0563 5.11367 64.0218 5.13915C66.3137 5.19995 68.2998 6.29841 69.1018 8.52313C69.3053 9.08752 69.4338 9.69745 69.4875 10.3529ZM65.1909 13.818C66.3687 13.1162 66.8777 11.7311 66.6773 10.3998C66.5082 9.27996 65.8273 8.37374 64.7711 7.96377C64.3422 7.79739 63.9015 7.72211 63.4491 7.73794C61.8972 7.79237 60.6581 8.8613 60.3992 10.3952C60.1595 11.8191 60.7357 13.1851 62.0229 13.8649C62.9864 14.3739 64.2331 14.3889 65.1909 13.818Z" fill="white"/>
        <path d="M14.3431 13.7982C12.7617 15.8115 10.2023 16.9702 7.62728 16.8254C5.82682 16.7243 4.22709 16.0906 2.82809 14.9244C2.66017 14.7849 2.50846 14.6192 2.33706 14.4803C2.33242 14.4766 2.32857 14.472 2.32573 14.4668C2.32289 14.4616 2.32113 14.4559 2.32054 14.4499C2.31994 14.444 2.32054 14.438 2.32228 14.4323C2.32402 14.4265 2.32688 14.4212 2.33069 14.4166C3.36333 13.1535 4.45658 11.983 5.61044 10.9052C8.3899 8.30873 11.5179 6.15466 14.9535 4.67749C14.9583 4.67547 14.9637 4.67523 14.9686 4.67683C14.9735 4.67843 14.9776 4.68176 14.9801 4.68618C15.6831 5.90103 16.0733 7.23343 16.0913 8.61158C16.1168 10.5529 15.5341 12.2818 14.3431 13.7982Z" fill="white"/>
        <path d="M43.2722 16.8498H43.0852C42.3745 16.832 41.7138 16.724 41.1031 16.5255C39.0457 15.8573 37.8176 14.1207 37.568 11.9991C37.5522 11.8671 37.5385 11.7422 37.5269 11.6244C37.4898 11.2515 37.5078 10.8497 37.5118 10.4895C37.5168 10.0861 37.5848 9.62013 37.7156 9.09165C37.9942 7.97234 38.5946 6.96826 39.4962 6.25834C40.6364 5.36081 42.1245 4.99775 43.5896 5.07187C44.82 5.13382 46.1536 5.69956 46.8195 6.77544C46.8411 6.81057 46.8537 6.80748 46.8571 6.76617C46.8822 6.4836 46.8979 6.19697 46.9041 5.90628C46.9046 5.85185 46.9324 5.79974 46.9289 5.74183C46.9216 5.61598 46.9297 5.4967 46.9533 5.38398C46.9545 5.37856 46.9575 5.37372 46.9618 5.37024C46.9661 5.36677 46.9715 5.36487 46.977 5.36487L49.581 5.3695C49.5838 5.3695 49.5866 5.37007 49.5892 5.37117C49.5918 5.37228 49.5942 5.3739 49.5962 5.37594C49.5982 5.37799 49.5997 5.38041 49.6008 5.38308C49.6019 5.38575 49.6024 5.38861 49.6024 5.3915V16.562C49.6024 16.5646 49.6014 16.5671 49.5996 16.569C49.5977 16.5708 49.5952 16.5719 49.5926 16.5719L47.0251 16.5724C47.0154 16.5725 47.0061 16.5688 46.999 16.5623C46.9919 16.5557 46.9876 16.5467 46.9869 16.5371L46.8624 14.9661C46.8597 14.9302 46.8496 14.9281 46.8322 14.9598C46.6099 15.3686 46.2941 15.7137 45.8849 15.9951C45.2256 16.4487 44.4809 16.7195 43.6509 16.8075C43.5247 16.821 43.3985 16.8351 43.2722 16.8498ZM42.7146 7.64518C40.8958 8.06557 40.0527 9.80157 40.3301 11.5515C40.546 12.9134 41.4546 13.9343 42.8293 14.2099C43.4102 14.3265 43.9748 14.3064 44.523 14.1497C46.2798 13.6476 47.0563 11.9053 46.7361 10.1745C46.4923 8.85482 45.5595 7.85885 44.2236 7.6087C43.726 7.51566 43.223 7.52782 42.7146 7.64518Z" fill="white"/>
        <path d="M20.8648 6.67607C21.3019 5.91693 22.0501 5.46933 22.9007 5.29387C23.4056 5.19003 23.9059 5.17343 24.4016 5.24407C25.6782 5.42551 26.5657 6.08505 27.0641 7.2227C27.0661 7.22709 27.0693 7.23085 27.0732 7.23358C27.0772 7.23631 27.0819 7.23791 27.0867 7.23821C27.0915 7.23851 27.0963 7.23749 27.1006 7.23527C27.1049 7.23304 27.1085 7.2297 27.111 7.22559C27.7902 6.1306 28.8192 5.42184 30.1267 5.28461C30.9212 5.20161 31.6745 5.25353 32.3867 5.44037C33.6792 5.78028 34.6514 6.65175 35.1199 7.9164C35.3071 8.42211 35.4312 8.94905 35.4922 9.49722C35.5242 9.78829 35.5395 10.1724 35.5379 10.6495C35.5298 12.7318 35.5289 14.7014 35.5351 16.5582C35.5351 16.5619 35.5336 16.5654 35.5312 16.568C35.5287 16.5706 35.5253 16.5721 35.5217 16.5721L32.777 16.5715C32.7735 16.5715 32.7701 16.57 32.7676 16.5674C32.7651 16.5648 32.7637 16.5613 32.7637 16.5576C32.7668 14.5259 32.7662 12.4882 32.762 10.4445C32.7612 10.0713 32.7035 9.6966 32.5888 9.32061C32.2704 8.27484 31.4249 7.71721 30.3334 7.87471C29.2541 8.03105 28.5389 8.90427 28.3328 9.93845C28.2915 10.145 28.2716 10.3996 28.2732 10.7022C28.2832 12.6633 28.2838 14.6133 28.2749 16.5524C28.2749 16.5575 28.2729 16.5623 28.2693 16.5659C28.2657 16.5695 28.2608 16.5715 28.2558 16.5715H25.5099C25.5039 16.5715 25.4982 16.5691 25.4939 16.5649C25.4897 16.5607 25.4873 16.5549 25.4873 16.5489C25.4877 14.5759 25.4877 12.5874 25.4873 10.5835C25.4873 10.4046 25.4694 10.2303 25.4451 10.0514C25.2899 8.89211 24.5771 7.85213 23.3321 7.8087C22.5577 7.78168 21.9346 8.0739 21.4629 8.68538C21.2097 9.01429 21.0354 9.38778 20.94 9.80585C20.8829 10.0572 20.8551 10.3915 20.8566 10.8088C20.8644 12.7702 20.8657 14.6853 20.8607 16.5541C20.8607 16.5564 20.8602 16.5587 20.8594 16.5608C20.8585 16.5629 20.8572 16.5648 20.8556 16.5664C20.854 16.568 20.8521 16.5693 20.85 16.5702C20.8479 16.5711 20.8456 16.5715 20.8433 16.5715H18.0783C18.0748 16.5715 18.0714 16.5701 18.0689 16.5676C18.0664 16.5651 18.065 16.5617 18.065 16.5582L18.0645 5.43169C18.0645 5.40466 18.078 5.39115 18.105 5.39115H20.6134C20.6401 5.39115 20.6553 5.40409 20.6592 5.42995L20.8427 6.67202C20.843 6.67442 20.8441 6.67665 20.8457 6.6784C20.8473 6.68014 20.8495 6.68132 20.8519 6.68176C20.8543 6.68221 20.8569 6.6819 20.8592 6.68088C20.8615 6.67986 20.8634 6.67818 20.8648 6.67607Z" fill="white"/>
        <path d="M54.8512 5.36914H52.1377C52.1221 5.36914 52.1094 5.38184 52.1094 5.39751V16.5466C52.1094 16.5623 52.1221 16.575 52.1377 16.575H54.8512C54.8669 16.575 54.8796 16.5623 54.8796 16.5466V5.39751C54.8796 5.38184 54.8669 5.36914 54.8512 5.36914Z" fill="white"/>
    </g>
    <defs>
        <clipPath id="clip0_45_19451">
            <rect width="69.4863" height="16.8504" fill="white"/>
        </clipPath>
    </defs>
    <script xmlns=""/></svg>