<svg width="50" height="15" xmlns="http://www.w3.org/2000/svg"><g id="Page-1" stroke="none" stroke-width="1" fill="none" fill-rule="evenodd"><g id="New-Carte.by-Copy-5" transform="translate(-656 -2200)" fill="#FFF" fill-rule="nonzero"><g id="visa" transform="translate(380 2198)"><path d="M277.542 8.198V4.04l1.421 1.953h.693l1.395-1.953v4.158h1.23V2.122h-1.23l-1.759 2.517-1.758-2.517h-1.24v6.076h1.248zm10.128-.946a.528.528 0 00.252-.052v.894c-.156.121-.373.182-.659.182-.494 0-.814-.182-.979-.556-.381.391-.875.59-1.49.59-.936 0-1.594-.572-1.594-1.449 0-.46.164-.816.502-1.059.338-.243.737-.364 1.205-.364.485 0 .9.086 1.247.269v-.13c0-.547-.381-.817-1.143-.817-.46 0-.901.122-1.309.365V4.101c.442-.235.97-.348 1.603-.348.615 0 1.118.148 1.49.452.382.304.572.72.572 1.25v1.467c0 .217.104.33.303.33zm-1.516-.33v-.434a1.594 1.594 0 00-.9-.252c-.52 0-.85.208-.85.564 0 .382.32.565.771.565.425 0 .754-.148.98-.443zm4.21 1.389c.581 0 1.05-.122 1.404-.374.356-.251.529-.572.529-.98 0-.756-.477-1.155-1.412-1.372l-.46-.095c-.103-.035-.277-.079-.372-.113-.13-.078-.243-.14-.243-.287 0-.234.234-.347.694-.347.528 0 1.048.148 1.568.451V4.153c-.425-.27-.97-.4-1.62-.4-1.187 0-1.907.504-1.907 1.329 0 .763.408 1.076 1.404 1.345.078.026.2.052.347.096l.32.078c.07.017.147.043.225.078.165.07.217.156.217.269 0 .243-.251.364-.745.364-.702 0-1.386-.243-1.768-.494v1.085c.442.269 1.049.408 1.82.408zm3.25-1.459c0 .973.468 1.459 1.412 1.459.442 0 .78-.078 1.031-.235V7.061a1.39 1.39 0 01-.632.156c-.416 0-.59-.182-.59-.608V4.891h1.23V3.866h-1.23V2.677h-1.221v1.19h-.85V4.89h.85v1.961zm5.528 1.459c-.676 0-1.248-.209-1.707-.625-.46-.417-.693-.972-.693-1.658 0-.643.208-1.18.623-1.615.416-.443.962-.66 1.63-.66.632 0 1.126.226 1.498.669.373.443.563.98.563 1.623v.321h-3.101c.13.59.684.903 1.446.903.486 0 .945-.13 1.387-.382v.981c-.39.295-.936.443-1.646.443zm-1.187-2.726h1.897c-.026-.477-.364-.868-.91-.868-.554 0-.927.356-.987.868zm5.259 2.613V5.672c.173-.39.675-.755 1.265-.755.147 0 .277.017.38.043V3.762c-.034-.009-.077-.009-.138-.009-.32 0-.624.087-.9.252a1.655 1.655 0 00-.607.59v-.729h-1.222v4.332h1.222zm5.588.121c.658 0 1.23-.147 1.724-.442V6.618c-.45.356-1.005.53-1.663.53-.598 0-1.092-.183-1.482-.556-.39-.373-.59-.85-.59-1.432s.191-1.05.573-1.424c.39-.373.866-.564 1.447-.564.597 0 1.126.156 1.594.469V2.38a3.364 3.364 0 00-1.603-.38c-.944 0-1.733.295-2.357.885-.615.59-.927 1.346-.927 2.275 0 .92.312 1.675.936 2.274.624.59 1.404.885 2.348.885zm6.836-1.067c.104 0 .19-.018.251-.052v.894c-.156.121-.372.182-.658.182-.494 0-.815-.182-.98-.556-.38.391-.874.59-1.49.59-.935 0-1.594-.572-1.594-1.449 0-.46.165-.816.503-1.059.338-.243.736-.364 1.204-.364.485 0 .901.086 1.248.269v-.13c0-.547-.382-.817-1.144-.817-.46 0-.901.122-1.308.365V4.101c.442-.235.97-.348 1.603-.348.615 0 1.117.148 1.49.452.381.304.572.72.572 1.25v1.467c0 .217.104.33.303.33zm-1.516-.33v-.434a1.594 1.594 0 00-.901-.252c-.52 0-.85.208-.85.564 0 .382.321.565.772.565.424 0 .753-.148.979-.443zm3.838 1.276V5.672c.173-.39.676-.755 1.265-.755.147 0 .277.017.381.043V3.762c-.035-.009-.078-.009-.139-.009-.32 0-.623.087-.9.252a1.655 1.655 0 00-.607.59v-.729h-1.222v4.332h1.222zm4.193.113a1.882 1.882 0 01-1.464-.651c-.381-.443-.572-.981-.572-1.632 0-.643.19-1.18.572-1.615.39-.443.875-.66 1.464-.66.615 0 1.083.217 1.421.643V2.122h1.222v6.076h-1.222v-.53c-.32.426-.797.643-1.42.643zm.347-1.068c.476 0 .875-.278 1.074-.651V5.464a1.215 1.215 0 00-1.074-.643c-.338 0-.624.113-.84.347-.217.235-.33.521-.33.86 0 .347.113.633.33.868.216.234.502.347.84.347zM278.305 17c.693 0 1.265-.165 1.724-.503.459-.339.684-.8.684-1.38 0-.556-.199-.982-.606-1.268-.407-.287-.737-.451-1.317-.634a13.22 13.22 0 00-.659-.19 2.69 2.69 0 01-.494-.183c-.199-.095-.32-.217-.32-.417 0-.399.346-.599 1.03-.599.694 0 1.353.191 1.968.573v-1.215a4.062 4.062 0 00-1.984-.503c-.702 0-1.265.156-1.673.468-.407.304-.615.73-.615 1.268 0 .347.104.642.208.85.113.209.407.417.572.53.078.052.208.113.39.182.182.07.32.122.407.148l.45.147.486.148.208.07c.173.06.234.086.346.156a.53.53 0 01.312.503c0 .46-.51.703-1.17.703-.407 0-.822-.078-1.247-.234-.425-.165-.754-.356-1.005-.573v1.302c.624.434 1.395.651 2.305.651zm5.484-.009c-.676 0-1.248-.208-1.707-.625-.46-.416-.693-.972-.693-1.658 0-.642.208-1.18.624-1.614.416-.443.962-.66 1.629-.66.632 0 1.126.226 1.499.668.372.443.563.981.563 1.624v.32h-3.102c.13.591.684.904 1.447.904.485 0 .944-.13 1.386-.382v.98c-.39.296-.936.443-1.646.443zm-1.187-2.725h1.897c-.026-.478-.363-.868-.91-.868-.554 0-.926.355-.987.868zm6.1 2.725c.51 0 .961-.104 1.368-.32v-1.043c-.338.2-.727.296-1.17.296-.372 0-.692-.113-.952-.339a1.11 1.11 0 01-.39-.877c0-.356.13-.65.381-.868.26-.225.58-.338.962-.338.355 0 .727.087 1.1.26V12.72a2.814 2.814 0 00-1.282-.286 2.42 2.42 0 00-1.672.625c-.46.408-.694.955-.694 1.64 0 .686.234 1.242.694 1.667a2.378 2.378 0 001.654.625zm5.354-1.684c-.208.321-.598.565-.98.565-.45 0-.822-.252-.822-.92v-2.405h-1.222v2.656c0 1.111.572 1.788 1.577 1.788.58 0 1.057-.208 1.447-.633v.52h1.221v-4.331h-1.221v2.76zm3.639 1.571v-2.526c.173-.39.675-.755 1.265-.755.147 0 .277.018.38.044v-1.198c-.034-.009-.077-.009-.138-.009-.32 0-.624.087-.9.252a1.655 1.655 0 00-.607.59v-.73h-1.222v4.332h1.222zm4.557.113c-.676 0-1.248-.208-1.707-.625-.46-.416-.693-.972-.693-1.658 0-.642.208-1.18.624-1.614.416-.443.962-.66 1.629-.66.632 0 1.126.226 1.499.668.372.443.563.981.563 1.624v.32h-3.102c.13.591.684.904 1.447.904.485 0 .944-.13 1.386-.382v.98c-.39.296-.936.443-1.646.443zm-1.187-2.725h1.897c-.026-.478-.363-.868-.91-.868-.554 0-.926.355-.987.868zM308.247 17c.659 0 1.23-.148 1.725-.443V15.3c-.45.356-1.005.53-1.664.53-.598 0-1.092-.183-1.481-.556-.39-.374-.59-.851-.59-1.433 0-.581.191-1.05.572-1.423.39-.374.867-.565 1.447-.565.598 0 1.126.157 1.594.47v-1.26a3.364 3.364 0 00-1.603-.381c-.944 0-1.732.295-2.356.885-.615.59-.927 1.345-.927 2.274 0 .92.312 1.676.935 2.275.624.59 1.404.885 2.348.885zm3.977-1.424c.225.235.511.348.858.348s.632-.113.858-.348a1.2 1.2 0 00.338-.868c0-.347-.113-.633-.338-.859-.226-.234-.511-.347-.858-.347s-.633.113-.858.347a1.166 1.166 0 00-.338.86c0 .347.113.633.338.867zm-1.542-.868c0-.642.225-1.18.676-1.614.45-.443 1.022-.66 1.724-.66s1.274.217 1.724.66c.45.442.676.98.676 1.614a2.19 2.19 0 01-.676 1.632c-.45.434-1.022.651-1.724.651s-1.274-.217-1.724-.65a2.19 2.19 0 01-.676-1.633zm7.451 2.283c-.59 0-1.074-.217-1.464-.65-.381-.443-.572-.982-.572-1.633 0-.642.19-1.18.572-1.614.39-.443.875-.66 1.464-.66.615 0 1.083.217 1.421.642v-2.274h1.222v6.076h-1.222v-.529c-.32.425-.797.642-1.42.642zm.347-1.067c.476 0 .875-.278 1.074-.651v-1.129a1.215 1.215 0 00-1.074-.642c-.338 0-.624.113-.84.347a1.22 1.22 0 00-.33.86c0 .347.113.633.33.867.216.235.502.348.84.348zm5.605 1.067c-.676 0-1.247-.208-1.707-.625-.459-.416-.693-.972-.693-1.658 0-.642.208-1.18.624-1.614.416-.443.962-.66 1.629-.66.632 0 1.126.226 1.499.668.372.443.563.981.563 1.624v.32h-3.102c.13.591.685.904 1.447.904.485 0 .945-.13 1.386-.382v.98c-.39.296-.935.443-1.646.443zm-1.187-2.725h1.898c-.026-.478-.364-.868-.91-.868-.555 0-.927.355-.988.868z" id="MasterCard-SecureCod"/></g></g></g></svg>