<svg width="29" height="18" xmlns="http://www.w3.org/2000/svg"><g id="Page-1" stroke="none" stroke-width="1" fill="none" fill-rule="evenodd"><g id="New-Carte.by-Copy-5" transform="translate(-607 -2199)" fill="#FFF" fill-rule="nonzero"><g id="visa" transform="translate(380 2198)"><path d="M241.5 2.928A8.992 8.992 0 00238.077 10a8.993 8.993 0 003.423 7.072A8.992 8.992 0 00244.923 10a8.992 8.992 0 00-3.423-7.072zM247.038 1a8.89 8.89 0 00-4.96 1.504c.072.06.146.119.216.18a9.713 9.713 0 010 14.631c-.07.062-.144.121-.216.18a8.893 8.893 0 004.96 1.505c4.95 0 8.962-4.03 8.962-9s-4.012-9-8.962-9zm-6.332 16.315c.07.062.144.12.216.18a8.89 8.89 0 01-4.96 1.505c-4.95 0-8.962-4.03-8.962-9s4.012-9 8.962-9a8.89 8.89 0 014.96 1.504c-.072.06-.146.119-.216.18a9.714 9.714 0 000 14.631z" id="mc_vrt_solid_pos"/></g></g></g></svg>