<?xml version="1.0" encoding="UTF-8"?>
<svg width="44px" height="19px" viewBox="0 0 44 19" version="1.1" xmlns="http://www.w3.org/2000/svg" xmlns:xlink="http://www.w3.org/1999/xlink">
    <!-- Generator: Sketch 61.2 (89653) - https://sketch.com -->
    <title>mir accept logo</title>
    <desc>Created with Sketch.</desc>
    <g id="Page-1" stroke="none" stroke-width="1" fill="none" fill-rule="evenodd">
        <path d="M9.10439897,-5.96855898e-13 C12.6901951,-5.96855898e-13 15.7918201,2.07298272 17.2762382,5.08591225 L14.7158387,5.08624446 C13.4635469,3.34049405 11.4167876,2.20319975 9.10439897,2.20319975 C5.29297189,2.20319975 2.20319975,5.29297189 2.20319975,9.10439897 C2.20319975,12.9158261 5.29297189,16.0055982 9.10439897,16.0055982 C11.5573613,16.0055982 13.7114167,14.7258251 14.9352981,12.7975457 L17.4285989,12.7975265 C17.4277201,12.7995044 17.4268406,12.8014819 17.4259604,12.803459 L41.7058194,12.8037982 C42.6363086,12.8037982 43.3906192,13.5581087 43.3906192,14.488598 L43.3906192,15.0069979 L16.0364389,15.0069531 C14.3665044,16.9662499 11.880558,18.2087979 9.10439897,18.2087979 C4.07617826,18.2087979 1.88293825e-13,14.1326197 1.88293825e-13,9.10439897 C1.88293825e-13,4.07617826 4.07617826,-5.96855898e-13 9.10439897,-5.96855898e-13 Z M5.67677106,5.73493996 C5.76783022,5.73734237 6.54820978,5.78061249 6.76501561,6.55750008 C6.96961771,7.29459223 7.53552383,9.28119416 7.58434629,9.45254878 L7.58771634,9.46437596 L7.75225648,9.46437596 C7.7687105,9.40678691 8.36379735,7.31712708 8.5749572,6.56024241 C8.79176304,5.78335477 9.5697134,5.74008475 9.66277308,5.73768235 L9.6718915,5.73754169 L9.6718915,5.73479929 L11.6463732,5.73479929 L11.6463732,12.0147482 L9.6718915,12.0147482 L9.6718915,8.28791393 L9.50735136,8.28791393 L8.35557034,12.0147482 L6.98440247,12.0147482 L5.83262146,8.28517159 L5.66808132,8.28517159 L5.66808132,12.0147482 L3.69359958,12.0147482 L3.69359958,5.73479929 L5.67677106,5.73493996 Z M14.470979,5.73479935 L14.470979,12.0147482 L12.4964973,12.0147482 L12.4964973,5.73479935 L14.470979,5.73479935 Z M21.3748946,8.58682852 C21.1570047,9.2038439 20.6654212,9.690817 20.0449907,9.90065547 C20.1066495,9.98585101 20.5029586,10.5926854 21.233918,11.7211585 L21.3748946,11.9388602 L19.1614057,11.9388602 L18.1613286,10.0128431 L17.220256,10.0128431 L17.220256,12.0147482 L15.2457742,12.0147482 L15.2457742,8.58682852 L21.3748946,8.58682852 Z M27.6747809,7.91590231 C28.1528608,7.91590231 28.6309408,8.06038869 28.9881432,8.34558404 L29.1161919,8.45912065 L28.6805416,9.16906937 C28.4223784,8.93779819 28.0458904,8.77644621 27.7178081,8.77644621 C27.3574553,8.77644621 27.0885354,8.8840142 26.9056698,9.09915018 C26.7228042,9.30890775 26.6313714,9.56707092 26.6313714,9.87363969 C26.6313714,10.1855869 26.7228042,10.4545068 26.9110482,10.685778 C27.0992921,10.9170492 27.3682121,11.0299956 27.7178081,11.0299956 C28.0378228,11.0299956 28.3372484,10.9105783 28.6196879,10.6681406 L28.739704,10.5566964 L29.2237599,11.2451315 C28.8096232,11.6754035 28.2932968,11.8905395 27.6747809,11.8905395 C27.0670218,11.8905395 26.5775874,11.7022955 26.2064778,11.3311859 C25.8407467,10.954698 25.6578811,10.4760204 25.6578811,9.89515329 C25.6578811,9.33042135 25.8461251,8.8571222 26.222613,8.48063425 C26.6044794,8.10414629 27.0885354,7.91590231 27.6747809,7.91590231 Z M31.3705837,7.91590231 C31.8486636,7.91590231 32.3267436,8.06038869 32.683946,8.34558404 L32.8119947,8.45912065 L32.3763444,9.16906937 C32.1181812,8.93779819 31.7416932,8.77644621 31.4136109,8.77644621 C31.0532581,8.77644621 30.7843381,8.8840142 30.6014726,9.09915018 C30.418607,9.30890775 30.3271742,9.56707092 30.3271742,9.87363969 C30.3271742,10.1855869 30.418607,10.4545068 30.606851,10.685778 C30.7950949,10.9170492 31.0640149,11.0299956 31.4136109,11.0299956 C31.7336256,11.0299956 32.0330512,10.9105783 32.3154907,10.6681406 L32.4355067,10.5566964 L32.9195627,11.2451315 C32.5054259,11.6754035 31.9890996,11.8905395 31.3705837,11.8905395 C30.7628245,11.8905395 30.2733902,11.7022955 29.9022806,11.3311859 C29.5365495,10.954698 29.3536839,10.4760204 29.3536839,9.89515329 C29.3536839,9.33042135 29.5419279,8.8571222 29.9184158,8.48063425 C30.3002822,8.10414629 30.7843381,7.91590231 31.3705837,7.91590231 Z M40.3055955,9.83446021 C40.1251859,10.3690851 39.6630727,10.7636408 39.1045841,10.8211782 L38.9630614,10.8284273 L37.4219085,10.8284273 L37.4219085,11.84326 L36.3909802,11.84326 L36.3909802,9.83446021 L40.3055955,9.83446021 Z M43.9047815,7.9804431 L43.9047815,8.78720301 L42.7376688,8.78720301 L42.7376688,11.8259987 L41.7964489,11.8259987 L41.7964489,8.78720301 L40.6293362,8.78720301 L40.6293362,7.9804431 L43.9047815,7.9804431 Z M24.3124389,7.9804431 L25.6193899,11.8259987 L24.651278,11.8259987 L24.4146285,11.0192388 L23.2152454,11.0192388 L22.9839742,11.8259987 L22.0158623,11.8259987 L23.3228134,7.9804431 L24.3124389,7.9804431 Z M35.7494432,7.9804431 L35.7494432,8.78720301 L34.2811401,8.78720301 L34.2811401,9.48639493 L35.4536312,9.48639493 L35.4536312,10.2931548 L34.2811401,10.2931548 L34.2811401,11.0192388 L35.8247408,11.0192388 L35.8247408,11.8259987 L33.3399202,11.8259987 L33.3399202,7.9804431 L35.7494432,7.9804431 Z M23.8230045,8.8571222 L23.8122477,8.8571222 C23.7649178,9.08086362 23.7244722,9.2667411 23.6854035,9.41475465 L23.6562741,9.51866533 L23.4357598,10.2662628 L24.1941141,10.2662628 L23.9789781,9.51866533 L23.8230045,8.8571222 Z M38.9481159,8.0027991 C39.7340165,8.0027991 40.3703955,8.62832584 40.3703955,9.40082447 L40.3633296,9.54622807 L40.3633296,9.54622807 L40.3412205,9.68759891 L38.0911013,9.68759891 C37.9646764,9.68759891 37.8406828,9.67644657 37.720201,9.65520402 L37.5422473,9.6159053 L37.3904002,9.56947971 C36.7470468,9.34588388 36.2472486,8.82162628 36.0670778,8.16863058 L36.0287959,8.0027991 L38.9481159,8.0027991 Z M19.3592778,5.73479935 C20.5412245,5.73479935 21.4982997,6.69187453 21.4982997,7.87382123 C21.4982997,7.97437354 21.4922056,8.07248822 21.4792049,8.16897781 L21.4544223,8.31259495 L18.07038,8.31259495 C17.8564778,8.31259495 17.6472034,8.29099906 17.4448704,8.25012111 L17.244937,8.20290152 L17.0541109,8.14487516 C16.0501302,7.80419355 15.2723375,6.9702075 15.0115636,5.93182151 L14.9687983,5.73479935 L19.3592778,5.73479935 Z" id="mir-accept-logo" fill="#FFFFFF"></path>
    </g>
</svg>