<?xml version="1.0" encoding="UTF-8"?>
<svg width="46px" height="13px" viewBox="0 0 46 13" version="1.1" xmlns="http://www.w3.org/2000/svg" xmlns:xlink="http://www.w3.org/1999/xlink">
    <!-- Generator: Sketch 61.2 (89653) - https://sketch.com -->
    <title>mir logo</title>
    <desc>Created with Sketch.</desc>
    <g id="Page-1" stroke="none" stroke-width="1" fill="none" fill-rule="evenodd">
        <path d="M4.06956153,0.000534176717 C4.29039476,0.00785095569 5.85187198,0.115128123 6.28991998,1.68480012 C6.70220045,3.17006694 7.83084155,7.13274761 7.96219628,7.59380601 L7.97471997,7.6377601 L8.31167997,7.6377601 C8.34537597,7.5198241 9.56404797,3.24043211 9.99647997,1.69041612 C10.451376,0.0603720042 12.1125587,0.00737827772 12.2356699,0.00567214944 L12.24288,0.00561612293 L12.24288,-5.70210545e-13 L16.2863999,-5.70210545e-13 L16.2863999,12.8606401 L12.24288,12.8606401 L12.24288,5.22849611 L11.90592,5.22849611 L9.54719997,12.8606401 L6.73919998,12.8606401 L4.38047999,5.22288011 L4.04351999,5.22288011 L4.04351999,12.8606401 L4.68602934e-12,12.8606401 L4.68602934e-12,-5.70210545e-13 L4.06956153,0.000534176717 Z M22.0708799,1.22948024e-07 L22.0708799,7.6377601 L22.4078399,7.6377601 L25.2719999,1.34784012 C25.8038107,0.160666557 26.9111075,0.0114232155 27.0063889,0.00068971808 L30.8318399,1.22948024e-07 L30.8318399,12.8606401 L26.7883199,12.8606401 L26.7883199,5.22288011 L26.4513599,5.22288011 L23.6433599,11.5128001 C23.1115491,12.6946018 21.9528696,12.8487499 21.8531202,12.85992 L21.8462399,12.8606401 L18.0273599,12.8606401 L18.0273599,1.22948024e-07 L22.0708799,1.22948024e-07 Z M45.1807199,5.8406401 C44.6029199,7.4768401 43.0853122,8.66650163 41.2719426,8.75559364 L41.0529599,8.76096009 L36.6724799,8.76096009 L36.6724799,12.8606401 L32.6289599,12.8606401 L32.6289599,5.8406401 L45.1807199,5.8406401 Z M41.0529599,1.22948111e-07 C43.4734559,1.22948111e-07 45.4334398,1.95998412 45.4334398,4.38048011 C45.4334398,4.68936011 45.4053598,4.98700811 45.3435838,5.27904011 L45.3435838,5.27904011 L38.4134399,5.27904011 C37.8293759,5.27904011 37.2621599,5.20041611 36.7230239,5.05440011 L36.7230239,5.05440011 L36.4792334,4.98347672 C34.2224548,4.2780432 32.4955315,2.36414246 32.0617439,1.22948111e-07 L32.0617439,1.22948111e-07 Z" id="mir-logo" fill="#FFFFFF"></path>
    </g>
</svg>