<svg width="87" height="19" xmlns="http://www.w3.org/2000/svg"><g id="Page-1" stroke="none" stroke-width="1" fill="none" fill-rule="evenodd"><path d="M65.366 6.938c1.459.005 2.062 1.079 2.246 2.059.068.32.108 1.067.108 2.23v4.135c.002.394.01.648.03.758.028.12.06.221.114.275.046.067.332.113.462-.163l.408.388c-.241.57-.468.956-.722 1.206-.256.253-.678.36-1.01.36-.384 0-.681-.146-.904-.432-.218-.285-.353-.718-.4-1.304-.3 1.034-.873 1.721-1.913 1.725-1.041.006-1.72-1.044-1.72-2.268 0-.824.299-1.401.743-2.06.44-.657 1.406-1.534 2.89-2.62v-1.09c0-.81-.025-1.323-.083-1.538-.108-.39-.269-.793-.828-.792-.313 0-.573.117-.78.336-.69.869.059 1.425.217 1.71.103.194.157.347.157.55 0 .57-.461 1.032-1.033 1.032-.57 0-1.134-.365-1.102-1.282.055-.731.176-1.151.446-1.655a2.86 2.86 0 011.148-1.162c.493-.268 1-.398 1.526-.398zm-5.798-4.546v4.234h-.595c-.111-1.152-.051-2.042-.473-2.657-.297-.455-.778-.677-1.433-.677h-1.921v3.77c1.664-.017 3.512.166 4.582 1.57 1.23 1.598 1.102 6.477-.079 8.004-.727.928-1.784 1.398-3.173 1.398h-4.973v-.59c.458 0 .758-.063.925-.204.158-.13.273-.307.333-.528.07-.211.1-.74.1-1.586v-9.99c0-.84-.03-1.217-.1-1.434a.994.994 0 00-.337-.524c-.165-.132-.472-.2-.921-.2v-.586h8.065zm13.762 4.84v.575c-.254.059-.424.194-.52.408-.097.217-.146.722-.146 1.533v2.44h2.124v-2.44c0-.811-.043-1.316-.134-1.533-.097-.214-.268-.35-.528-.408v-.575h3.422v.575a.774.774 0 00-.61.445c-.082.166-.126.666-.126 1.496v5.776c0 .825.044 1.321.125 1.491.124.255.323.394.61.442v.577h-3.421v-.577c.26-.054.43-.187.528-.404.09-.215.134-.727.134-1.529v-2.606h-2.124v2.606c0 .802.049 1.314.146 1.53.096.216.266.349.52.403v.577h-3.41v-.577a.778.778 0 00.61-.442c.08-.17.116-.666.116-1.491l-.001-5.977c-.006-.71-.042-1.143-.115-1.295a.784.784 0 00-.61-.445v-.575h3.41zm-42.996-4.84l2.754 10.31 2.66-10.31h3.985v.586h-.32c-.285 0-.522.082-.693.244-.12.116-.22.294-.291.54-.05.19-.081.668-.081 1.446v9.986c0 .803.03 1.3.08 1.502.054.196.165.376.325.524.167.152.383.224.66.224h.32v.59h-5.115v-.59h.316c.292 0 .516-.08.7-.237.115-.113.218-.294.284-.563.053-.178.077-.666.077-1.45V4.916l-3.459 13.118h-.467L28.484 4.697l-.002 10.027c0 .768.008 1.244.03 1.418.069.38.202.698.416.94.202.244.532.362.987.362v.59h-3.579v-.59h.1c.218.007.423-.05.604-.169.193-.115.336-.272.427-.472.102-.203.174-.49.229-.847.007-.075.012-.404.013-.99V5.207c0-.79-.024-1.289-.079-1.486a1.1 1.1 0 00-.324-.518c-.168-.15-.383-.226-.658-.226h-.312v-.586h3.998zm51.368 0v10.13s2.085-3.228 2.177-3.381c.259-.435.383-1.306-.661-1.306V7.25h3.023v.584c-.287.022-.54.133-.757.334-.552.425-2.009 2.757-2.009 2.757l1.59 3.714c.645 1.503 1.024 2.19 1.141 2.375.162.265.371.411.622.445v.574h-3.49v-.574c.156 0 .27-.05.339-.145a.507.507 0 00.102-.3c0-.175-.1-.499-.304-.979l-1.33-2.966-.443.684v1.778c0 1.195.05 1.334.15 1.54.094.198.292.33.592.388v.574h-3.49v-.574c.286-.05.49-.192.607-.445.075-.156.117-.581.124-1.285V4.893c0-.814-.046-1.32-.143-1.518-.09-.197-.286-.333-.588-.397v-.586h2.748zm-31.69 0v4.234h-.596c-.113-1.152-.047-2.042-.471-2.657-.296-.455-.781-.677-1.435-.677h-.71v11.902c0 .803.034 1.3.081 1.502.062.196.17.376.328.524.162.152.38.224.664.224h.323v.59h-5.124v-.59h.32c.286 0 .514-.08.688-.24.126-.11.225-.29.294-.56.054-.178.084-.666.084-1.45V3.292h-.709c-.658 0-1.141.222-1.438.677-.421.615-.363 1.505-.473 2.657h-.594V2.392h8.768zM6.268 10.404c-.01-.156.158-.414.514-.279 2.256.84 13.268 4.98 13.278 4.99.354.145.604-.027.604-.027a8.223 8.223 0 01-6.245 2.837c-4.35 0-7.9-3.322-8.151-7.52zm48.878-2.436v7.376l-.005.582c0 .409.059.722.19.938.134.21.334.315.593.315.385 0 .738-.135 1.064-.411.326-.271.572-.67.747-1.184l.072-.24c.407-1.518.372-4.462-.127-5.83-.212-.577-.508-.982-.875-1.217-.373-.23-.929-.334-1.659-.329zm10.552 4.03c-.58.55-1.267 1.572-1.548 2.19-.846 1.8.83 2.54 1.548 1.352zM4.812 8.224c-.346-.464.004-.966.544-.75.136.058 15.242 6.355 15.302 6.372.62.238 1.054-.359 1.188-.58a7.417 7.417 0 01-.694 1.19c-.174.24-.554.252-.972.107-.036-.019-13.52-5.463-13.912-5.626-.393-.16-.518.049-.497.245.017.19.273.632.273.632l-1.232-1.59zM2.533 4.856c-.381-.588.316-1.069.801-.847.19.084 17.826 8.013 17.869 8.029l.139.045c.715.186 1.033-.486 1.106-.668a9.05 9.05 0 01-.307 1.149c-.192.436-.691.622-1.291.362-.087-.043-16.684-7.158-16.838-7.214a.288.288 0 00-.396.25c-.043.315.364.981.364.981L2.533 4.856zm-2.07-3.6C.035.439.856.143 1.232.323c.273.13 19.996 9.249 20.167 9.332.98.463 1.116-.417 1.134-.615v.003l.03.294c.007.1.012.2.015.3l.005.299c0 .169-.005.326-.01.489-.04.522-.72.616-1.13.422-.14-.062-19.326-8.475-19.36-8.485-.287-.128-.472.064-.421.27.105.512.337 1.075.362 1.111C2.042 3.781.472 1.28.462 1.256zm13.956.689l.265.004c3.865.12 7.055 2.867 7.76 6.483 0 0-.02.688-1.094.21L9.834 3.325a8.243 8.243 0 014.585-1.381z" id="mtbank-logo" fill="#FFF"/></g></svg>