<svg width="72px" height="17px" viewBox="0 0 72 17" version="1.1" xmlns="http://www.w3.org/2000/svg" xmlns:xlink="http://www.w3.org/1999/xlink">
    <g id="Page-1" stroke="none" stroke-width="1" fill="none" fill-rule="evenodd">
        <g id="Group-43">
            <path d="M5.31650948,7.93272946 L9.21562896,4.03360998 L5.31650948,0.134490507 C6.28743265,0.134490507 7.25835583,0.134490507 8.229279,0.134490507 L12.1283985,4.03360998 L8.229279,7.93272946 C7.25835583,7.93272946 6.28743265,7.93272946 5.31650948,7.93272946 Z M0.182283166,7.93272946 L4.08140264,4.03360998 L0.182283166,0.134490507 C1.15320634,0.134490507 2.12412951,0.134490507 3.09505269,0.134490507 L6.99320799,4.03360998 L3.09505269,7.93272946 C2.12316534,7.93272946 1.15320634,7.93272946 0.182283166,7.93272946 L0.182283166,7.93272946 Z" id="Fill-2" fill="#FFFFFF"></path>
            <path d="M36.3812302,15.5921274 C37.1313575,15.5921274 37.7185394,15.2170637 37.7185394,14.4601871 C37.7185394,13.7987638 37.1246083,13.5596487 36.6000977,13.3967033 C36.5788858,13.3899541 36.551889,13.3822407 36.5316413,13.3754914 C36.1353658,13.2462921 35.7882632,13.1373405 35.7882632,12.8914761 C35.7882632,12.6668236 35.9724204,12.5164124 36.2925262,12.5164124 C36.5923843,12.5164124 36.9616629,12.6465759 37.3087655,12.85773 L37.6365847,12.2715123 C37.2538076,12.0188987 36.7630431,11.8617383 36.3127738,11.8617383 C35.5973567,11.8617383 35.0313866,12.2782615 35.0313866,12.9599325 C35.0313866,13.6618511 35.6243536,13.8807186 36.1565776,14.0369148 C36.1768253,14.043664 36.1970729,14.0504132 36.2173206,14.0581266 C36.6135961,14.1738275 36.9616629,14.2692807 36.9616629,14.5353927 C36.9616629,14.7870421 36.7562938,14.9374533 36.402442,14.9374533 C36.0331634,14.9374533 35.6108552,14.7870421 35.2222931,14.4939332 L34.8539786,15.0531541 C35.3042479,15.4079701 35.870218,15.5921274 36.3812302,15.5921274 Z M40.2070724,15.6056258 C40.8684958,15.6056258 41.3390126,15.3395138 41.6803302,14.930704 L41.1953507,14.5006824 C40.9089911,14.7802929 40.6226314,14.930704 40.2205709,14.930704 C39.6883468,14.930704 39.2727879,14.6028849 39.1840839,14.0166671 L41.8297772,14.0166671 C41.8365264,13.9761718 41.8432756,13.8392591 41.8432756,13.7852654 C41.8432756,12.7487784 41.2638071,11.8482399 40.1183684,11.8482399 C39.0886306,11.8482399 38.3587509,12.6938205 38.3587509,13.7235582 C38.3587509,14.8487492 39.1638362,15.6056258 40.2070724,15.6056258 Z M39.1773346,13.4709447 C39.2525402,12.9126879 39.606392,12.5231617 40.1116192,12.5231617 C40.6563775,12.5231617 40.9706982,12.9396848 41.0256561,13.4709447 L39.1773346,13.4709447 Z M44.339522,15.6056258 C45.0414406,15.6056258 45.4579638,15.3260154 45.8118156,14.930704 L45.3143019,14.4399395 C45.0549391,14.7050873 44.7685794,14.8892446 44.3800173,14.8892446 C43.746555,14.8892446 43.303035,14.3714831 43.303035,13.7303075 C43.303035,13.0891318 43.7388416,12.5713704 44.339522,12.5713704 C44.755081,12.5713704 45.021193,12.7555276 45.2738066,13.0216396 L45.7848188,12.4691679 C45.4512146,12.1008535 45.0279422,11.8482399 44.3462712,11.8482399 C43.2683247,11.8482399 42.4777021,12.7073189 42.4777021,13.7303075 C42.4777021,14.7667945 43.2683247,15.6056258 44.339522,15.6056258 Z M47.8095841,15.5988766 C48.368805,15.5988766 48.7033733,15.3057677 48.9347751,14.9644501 L48.9347751,15.523671 L49.760108,15.523671 L49.760108,11.9234455 L48.9347751,11.9234455 L48.9347751,13.9559242 C48.9347751,14.5151451 48.6011709,14.8487492 48.1239048,14.8487492 C47.6331402,14.8487492 47.3535298,14.5286435 47.3535298,13.9694226 L47.3535298,11.9234455 L46.5281969,11.9234455 L46.5281969,14.2143228 C46.5281969,15.0531541 46.9987138,15.5988766 47.8095841,15.5988766 Z M50.796595,15.523671 L51.6219279,15.523671 L51.6219279,14.1535798 C51.6219279,13.1990476 52.1261909,12.7285307 52.8493213,12.7285307 L52.89753,12.7285307 L52.89753,11.8549891 C52.2631036,11.8279922 51.8465804,12.1963067 51.6219279,12.7352799 L51.6219279,11.9234455 L50.796595,11.9234455 L50.796595,15.523671 Z M55.1401986,15.6056258 C55.801622,15.6056258 56.2721389,15.3395138 56.6134565,14.930704 L56.1294411,14.5006824 C55.8430815,14.7802929 55.5567218,14.930704 55.1536971,14.930704 C54.6224372,14.930704 54.2059141,14.6028849 54.1172101,14.0166671 L56.7629034,14.0166671 C56.7696526,13.9761718 56.777366,13.8392591 56.777366,13.7852654 C56.777366,12.7487784 56.1978975,11.8482399 55.0514946,11.8482399 C54.022721,11.8482399 53.2928413,12.6938205 53.2928413,13.7235582 C53.2928413,14.8487492 54.0969624,15.6056258 55.1401986,15.6056258 Z M54.1104609,13.4709447 C54.1856664,12.9126879 54.5404824,12.5231617 55.0447454,12.5231617 C55.5904679,12.5231617 55.9038244,12.9396848 55.9587823,13.4709447 L54.1104609,13.4709447 Z M59.0952402,15.5988766 C59.6824222,15.5988766 60.0565216,15.2990185 60.3226337,14.9239548 L60.3226337,15.523671 L61.1479666,15.523671 L61.1479666,10.5456409 L60.3226337,10.5456409 L60.3226337,12.4826664 C60.064235,12.148098 59.6891714,11.8482399 59.0952402,11.8482399 C58.2361612,11.8482399 57.4252909,12.5231617 57.4252909,13.716809 C57.4252909,14.9239548 58.2496597,15.5988766 59.0952402,15.5988766 Z M59.2928959,14.8824953 C58.7346392,14.8824953 58.257373,14.4254769 58.257373,13.7303075 C58.257373,13.0004278 58.7269258,12.5646211 59.2928959,12.5646211 C59.8453676,12.5646211 60.3361321,13.0216396 60.3361321,13.716809 C60.3361321,14.4196918 59.8453676,14.8824953 59.2928959,14.8824953 Z M66.2696586,15.5988766 C67.1287376,15.5988766 67.9463571,14.9239548 67.9463571,13.7303075 C67.9463571,12.5231617 67.1210242,11.8482399 66.2696586,11.8482399 C65.6892259,11.8482399 65.3141622,12.148098 65.0490144,12.5231617 L65.0490144,10.5456409 L64.2236815,10.5456409 L64.2236815,15.523671 L65.0490144,15.523671 L65.0490144,14.9644501 C65.3006638,15.2990185 65.6757275,15.5988766 66.2696586,15.5988766 Z M66.077788,14.8824953 C65.5185671,14.8824953 65.0278026,14.4254769 65.0278026,13.7303075 C65.0278026,13.0283888 65.5185671,12.5646211 66.077788,12.5646211 C66.6370089,12.5646211 67.1075258,13.0216396 67.1075258,13.716809 C67.1075258,14.4399395 66.6447223,14.8824953 66.077788,14.8824953 Z M69.3579078,16.6353636 C69.9373763,16.6353636 70.2584463,16.3625024 70.5448059,15.6258735 L71.9766043,11.9234455 L71.1175253,11.9234455 L70.1832407,14.5961357 L69.1602521,11.9234455 L68.2809255,11.9234455 L69.7811802,15.523671 C69.6442675,15.8370276 69.5015697,15.9401942 69.2692038,15.9401942 C69.098545,15.9401942 68.9355996,15.8852362 68.7851885,15.8032815 L68.505578,16.4174603 C68.7581916,16.5534088 69.009841,16.6353636 69.3579078,16.6353636 L69.3579078,16.6353636 Z" id="Fill-3" fill="#FFFFFF"></path>
            <path d="M23.7524797,6.76222228 C24.0668004,6.76222228 24.3753361,6.67544662 24.6443406,6.51250123 C25.1707796,6.1914313 25.4590676,5.63317458 25.4590676,5.02092412 C25.4590676,4.38553348 25.1495678,3.80799328 24.5932394,3.49078005 C24.3377333,3.34518978 24.0475169,3.26805586 23.7524797,3.26805586 C23.4535858,3.26805586 23.1595127,3.34711813 22.9011141,3.49849344 C22.3553916,3.81763502 22.0564977,4.39421104 22.0564977,5.02092412 C22.0564977,5.62835371 22.3361081,6.18564625 22.8577263,6.50864453 C23.1267308,6.67544662 23.4362306,6.76222228 23.7524797,6.76222228 Z M16.0709058,4.35082322 L16.0709058,1.54796953 L17.5769455,1.54796953 C17.9645434,1.54796953 18.2933268,1.68873892 18.5671522,1.96256433 L18.5690805,1.96449268 C18.8496551,2.23060469 18.9836753,2.55842383 18.9836753,2.94312924 C18.9836753,3.33265552 18.8429059,3.66143884 18.5681163,3.93526424 C18.2942909,4.20908964 17.9655076,4.35082322 17.5769455,4.35082322 L16.0709058,4.35082322 Z M16.0709058,5.75176797 L17.5769455,5.75176797 C17.9549017,5.75176797 18.322252,5.67945493 18.6693546,5.52904379 C19.0019946,5.38345352 19.3028169,5.18386951 19.5602513,4.92739924 C19.8176858,4.6699648 20.0172698,4.36914252 20.1618959,4.03553833 C20.312307,3.68843571 20.3846201,3.32204961 20.3846201,2.94312924 C20.3846201,2.5671014 20.3132712,2.20167947 20.1618959,1.85650519 C20.0163056,1.52579353 19.8157574,1.2268996 19.5602513,0.971393501 C19.3028169,0.713959055 19.0019946,0.514375046 18.6693546,0.369748953 C18.322252,0.219337816 17.9549017,0.147024769 17.5769455,0.147024769 L14.669961,0.147024769 L14.669961,7.91441016 L16.0709058,7.91441016 L16.0709058,5.75176797 Z M25.5487358,7.24913013 C25.0598996,7.76785572 24.3666585,8.04457364 23.6493131,8.04457364 C21.958152,8.04457364 20.7288302,6.68316002 20.727866,5.02092412 C20.727866,3.35965239 21.9562236,1.98474033 23.6493131,1.98474033 C24.3685868,1.98474033 25.0598996,2.27013582 25.5477716,2.79078976 L25.5477716,2.05030416 L26.8648332,2.05030416 L26.8648332,7.97611729 L25.5487358,7.97611729 L25.5487358,7.24913013 Z M32.4830749,7.15560525 C32.0636592,7.66661745 31.4070567,7.90669677 30.7427409,7.90669677 C29.013977,7.90669677 28.1539338,6.71594193 28.1539338,5.06624029 L28.1529696,2.05319668 L29.4816013,2.05319668 L29.4825655,4.99778394 C29.4825655,5.98124138 29.8807694,6.6243454 30.9143638,6.6243454 C32.0289489,6.6243454 32.4946449,5.82022432 32.4946449,4.77988063 L32.4946449,2.05319668 L33.8117066,2.05319668 L33.8117066,7.15078438 C33.8117066,8.92679281 32.7125483,10.1522579 30.9027937,10.1522579 C29.9656167,10.1522579 29.0698991,9.85047146 28.3467686,9.24882691 L28.2725272,9.18711978 L29.041938,8.36275105 L29.1055735,8.401318 C29.673472,8.74456393 30.2326928,8.92679281 30.9027937,8.92679281 C31.8920362,8.92679281 32.4830749,8.39649713 32.4830749,7.39182787 L32.4830749,7.15560525 L32.4830749,7.15560525 Z" id="Fill-4" fill="#FFFFFF"></path>
            <path d="M55.0669214,3.65276127 L55.0649931,3.6517971 L55.1074167,3.57177066 C55.1122376,3.56309309 55.1170585,3.55345135 55.1218793,3.54477379 C55.1218793,3.54380962 55.1228435,3.54284544 55.1238077,3.54188127 L55.1652672,3.46474735 L55.1662313,3.46571152 L55.1797298,3.44257135 L55.1893715,3.42714457 L55.2057625,3.39918352 L55.208655,3.39532683 C55.2202251,3.37604335 55.2327593,3.35675987 55.2452936,3.33747639 L55.2510787,3.32783465 C55.2578279,3.31819291 55.2636129,3.30855117 55.2703621,3.29890943 L55.2761472,3.28926769 L55.2963948,3.26130665 L55.3012157,3.25359325 C55.3233917,3.22177551 55.3465319,3.18995777 55.3696721,3.15910421 L55.3716004,3.15717586 C55.3793138,3.14656995 55.3870272,3.13596403 55.3957047,3.12535812 L55.3966689,3.12439394 C55.956854,2.39837096 56.8140046,1.97220607 57.7338266,1.97220607 L57.8533842,1.97220607 L57.8533842,1.97317024 C59.5127275,2.00595216 60.7111958,3.35483152 60.7121599,4.99681977 C60.7121599,6.65712732 59.4838023,8.03203938 57.7907129,8.03203938 C57.1379671,8.03203938 56.4977556,7.75435728 56.0725549,7.26262856 L56.0725549,10.0596972 L54.7554932,10.0596972 L54.7554932,4.86762046 L54.7583858,4.86762046 C54.7747767,4.49834183 54.8557673,4.13581242 55.0013576,3.79642319 L55.0052143,3.7848531 L55.0167844,3.75882041 L55.0264261,3.73857275 L55.0399246,3.70868336 L55.0514946,3.68361484 L55.0669214,3.65276127 Z M35.1384099,0.135454681 L36.5393547,0.135454681 L36.5393547,7.9018759 L35.1393741,7.9018759 L35.1384099,0.135454681 Z M38.45324,4.02975329 L41.6880436,7.9240519 L39.8426147,7.92501607 L36.7225477,4.02975329 L39.8416505,0.135454681 L41.6880436,0.134490507 L38.45324,4.02975329 Z M42.8787985,5.38634604 C42.9250788,6.31580974 43.6723136,6.79596837 44.5728521,6.79596837 C45.2014935,6.79596837 45.8291708,6.62627375 46.3700723,6.30423965 L46.4337078,6.26663687 L47.1684084,7.05918786 L47.0893461,7.11993082 C46.3585023,7.68011589 45.5003874,8.02143347 44.5728521,8.02143347 C42.7958795,8.02143347 41.5144923,6.78054158 41.5135281,4.99681977 C41.5135281,3.25455743 42.7399574,1.96160015 44.5034316,1.96160015 C45.6951506,1.96160015 46.6525753,2.53335531 47.1288772,3.63154945 C47.3332821,4.10399468 47.3901684,4.83291019 47.2349364,5.32271056 L47.2146887,5.38634604 L42.8787985,5.38634604 Z M49.411077,5.38634604 C49.4573574,6.31580974 50.2045922,6.79500419 51.1041665,6.79500419 C51.7328079,6.79500419 52.3614493,6.62627375 52.9013867,6.30423965 L52.9650222,6.26663687 L53.7006869,7.05918786 L53.6206605,7.11993082 C52.8898166,7.67915171 52.032666,8.02046929 51.1041665,8.02046929 C49.3271939,8.02046929 48.0458067,6.78054158 48.0458067,4.99681977 C48.0458067,3.25455743 49.272236,1.96160015 51.0357101,1.96160015 C52.2274291,1.96160015 53.1848539,2.53239114 53.6601916,3.63154945 C53.8645965,4.10303051 53.9214828,4.83194602 53.7672149,5.32271056 L53.7469673,5.38634604 L49.411077,5.38634604 Z M62.8584112,5.38538187 C62.9046915,6.31484556 63.6519263,6.79500419 64.5524648,6.79500419 C65.1811062,6.79500419 65.8087835,6.62627375 66.3496851,6.30327548 L66.4123564,6.26567269 L67.1480211,7.05822368 L67.0679947,7.11993082 C66.338115,7.67915171 65.4800002,8.02046929 64.5524648,8.02046929 C62.7754922,8.02046929 61.4931408,6.77957741 61.4931408,4.99681977 C61.4931408,3.25359325 62.7195701,1.96063598 64.4830443,1.96063598 C65.6747633,1.96063598 66.6331522,2.53239114 67.10849,3.63058527 C67.3119307,4.10206634 67.3697811,4.83194602 67.2145491,5.32174639 L67.1943014,5.38538187 L62.8584112,5.38538187 Z M56.0629131,4.99681977 C56.0629131,7.40821883 59.3835282,7.20477813 59.3825643,4.99681977 C59.3825643,2.78789723 56.0629131,2.5854207 56.0629131,4.99681977 Z M42.9568965,4.33443226 L46.0017579,4.33443226 C45.9786177,4.23222982 45.9419791,4.13099155 45.8985913,4.03939503 C45.6382643,3.48595918 45.1214671,3.18706525 44.5150017,3.18706525 C43.8477933,3.18706525 43.2220444,3.54670214 42.9973918,4.19462704 C42.9810009,4.24090739 42.9675025,4.28718774 42.9568965,4.33443226 Z M49.4882109,4.33346809 L52.5330723,4.33346809 C52.5099321,4.23222982 52.4732935,4.13099155 52.4299057,4.03939503 C52.1695787,3.48595918 51.6527815,3.18706525 51.046316,3.18706525 C50.3791077,3.18706525 49.7533588,3.54670214 49.5287062,4.19462704 C49.5123153,4.23994321 49.4988168,4.28718774 49.4882109,4.33346809 Z M62.9355451,4.33346809 L65.9813706,4.33346809 C65.9582304,4.23126565 65.9206276,4.13002738 65.878204,4.03843085 C65.6169129,3.48595918 65.1001156,3.18610108 64.4946144,3.18610108 C63.827406,3.18610108 63.2016571,3.54573796 62.9760404,4.19366286 C62.9606136,4.23897904 62.9471152,4.28622356 62.9355451,4.33346809 Z M69.5979871,2.8226075 C70.1282828,2.23542556 70.8658759,1.97799111 71.6680686,1.97799111 L71.9766043,1.97799111 L71.9766043,3.29601691 L71.4077416,3.29601691 C70.1379245,3.29601691 69.6095572,4.16184512 69.6095572,5.34392239 L69.6095572,7.95104877 L68.2462152,7.95104877 L68.2452511,2.04259077 L69.5979871,2.04259077 L69.5979871,2.8226075 L69.5979871,2.8226075 Z" id="Fill-5" fill="#B3B3B3"></path>
        </g>
    </g>
</svg>