<svg width="106" height="15" viewBox="0 0 106 15" fill="none" xmlns="http://www.w3.org/2000/svg">
<path d="M78.8262 0H82.4974C84.7123 0 86.3811 1.6991 86.3811 3.82297C86.3811 5.94684 84.7427 7.67628 82.4974 7.67628H80.8287V10.7407H78.8262V0ZM80.7983 1.8508V5.79513H82.3154C83.4987 5.79513 84.3179 4.91524 84.3179 3.82297C84.3179 2.73069 83.4987 1.8508 82.3154 1.8508H80.7983Z" fill="white"/>
<path d="M86.8965 6.4323C86.8965 3.58024 88.99 1.94183 91.1746 1.94183C92.2972 1.94183 93.3288 2.42728 93.9356 3.15547V2.12387H95.9078V10.7407H93.9356V9.6181C93.2984 10.407 92.2668 10.9228 91.1442 10.9228C89.0507 10.8924 86.8965 9.25401 86.8965 6.4323ZM94.0266 6.40195C94.0266 4.94559 92.9343 3.76229 91.4476 3.76229C89.9609 3.76229 88.8383 4.91524 88.8383 6.40195C88.8383 7.88866 89.9609 9.07196 91.4476 9.07196C92.9343 9.07196 94.0266 7.88866 94.0266 6.40195Z" fill="white"/>
<path d="M100.246 10.3159L96.7266 2.12387H98.8504L101.247 7.919L103.523 2.12387H105.616L100.428 14.7154H98.4257L100.246 10.3159Z" fill="white"/>
<path d="M2.67001 2.8824C2.60933 2.67001 2.63967 2.45762 2.67001 2.3666C2.73069 2.03285 2.94308 1.6991 3.58024 1.6991C4.15672 1.6991 4.52081 2.06319 4.52081 2.60933C4.52081 2.79137 4.52081 3.21615 4.52081 3.21615H7.00877V2.5183C7.00877 0.333751 5.03661 0 3.61058 0C1.82046 0 0.364092 0.576479 0.0910234 2.24523C0.0303414 2.70035 -1.1755e-07 3.09478 0.121364 3.61058C0.546138 5.67377 4.12638 6.25025 4.64217 7.55491C4.7332 7.79764 4.70286 8.10105 4.67252 8.2831C4.58149 8.61685 4.36911 8.9506 3.7016 8.9506C3.06444 8.9506 2.70035 8.58651 2.70035 8.04037V7.06946H0V7.82798C0 10.0732 1.75978 10.7407 3.64092 10.7407C5.46138 10.7407 6.94809 10.1339 7.19082 8.4348C7.31218 7.55491 7.22116 7.00877 7.19082 6.79639C6.76604 4.67252 2.97342 4.0657 2.67001 2.8824ZM35.3169 2.91274C35.2866 2.70035 35.2866 2.5183 35.3169 2.39694C35.3776 2.06319 35.59 1.72944 36.2272 1.72944C36.8036 1.72944 37.1374 2.09353 37.1374 2.63967C37.1374 2.82171 37.1374 3.24649 37.1374 3.24649H39.6254V2.54864C39.6254 0.394433 37.6835 0.0606823 36.2878 0.0606823C34.5281 0.0606823 33.0717 0.637161 32.7986 2.27558C32.7379 2.73069 32.7076 3.12512 32.829 3.61058C33.2537 5.64343 36.8036 6.21991 37.2891 7.52457C37.3801 7.7673 37.3498 8.07071 37.3194 8.25276C37.2284 8.58651 37.016 8.92026 36.3485 8.92026C35.7114 8.92026 35.3473 8.55617 35.3473 8.01003V7.03911H32.6773V7.79764C32.6773 10.0125 34.4067 10.68 36.2878 10.68C38.078 10.68 39.5647 10.0732 39.8074 8.40446C39.9288 7.55491 39.8377 6.97843 39.7771 6.76605C39.3523 4.70286 35.59 4.0657 35.3169 2.91274ZM58.103 8.37412L55.7364 0.30341H52.0045V10.2249H54.4621L54.3104 1.88114L56.8591 10.2249H60.4393V0.30341H57.9513L58.103 8.37412ZM10.7407 0.30341L8.88992 10.3463H11.5903L12.986 1.06194L14.3513 10.3463H17.0516L15.2008 0.30341H10.7407ZM25.9112 0.30341L24.6369 8.16173L23.3626 0.30341H19.2969L19.0845 10.3463H21.6028L21.6635 1.06194L23.3929 10.3463H25.9416L27.671 1.06194L27.7317 10.3463H30.25L30.0376 0.30341H25.9112ZM49.2131 0.30341H46.6645V7.73696C46.6645 7.85832 46.6645 8.01003 46.6341 8.13139C46.5735 8.37412 46.3611 8.85958 45.6632 8.85958C44.9654 8.85958 44.753 8.37412 44.6923 8.13139C44.662 8.01003 44.662 7.88866 44.662 7.73696V0.30341H42.1133V7.49423C42.1133 7.67628 42.1133 8.07071 42.1437 8.16173C42.3257 10.0429 43.7821 10.6497 45.6329 10.6497C47.4837 10.6497 48.9704 10.0429 49.1221 8.16173C49.1221 8.07071 49.1524 7.67628 49.1524 7.49423V0.30341H49.2131ZM66.6592 4.70286V6.15923H67.6908V7.61559C67.6908 7.73696 67.6908 7.88866 67.6604 8.01003C67.6301 8.2831 67.357 8.73821 66.6289 8.73821C65.9007 8.73821 65.6579 8.2831 65.5973 8.01003C65.5669 7.88866 65.5669 7.7673 65.5669 7.61559V3.0341C65.5669 2.8824 65.5669 2.70035 65.5973 2.54864C65.6579 2.30592 65.8703 1.82046 66.5985 1.82046C67.357 1.82046 67.5694 2.33626 67.5998 2.54864C67.6301 2.70035 67.6301 2.94308 67.6301 2.94308V3.48922H70.1484V3.15547C70.1484 3.15547 70.1484 2.82171 70.1181 2.48796C69.936 0.606821 68.3886 0 66.5985 0C64.8084 0 63.2913 0.606821 63.079 2.48796C63.0486 2.67001 63.0183 2.97342 63.0183 3.15547V7.37287C63.0183 7.55491 63.0183 7.70662 63.0486 8.04037C63.2003 9.86083 64.8084 10.5283 66.5682 10.5283C68.3583 10.5283 69.936 9.89117 70.0877 8.04037C70.1181 7.70662 70.1181 7.55491 70.1181 7.37287V4.70286H66.6592Z" fill="white"/>
</svg>
