<svg width="33" height="17" xmlns="http://www.w3.org/2000/svg"><g id="Page-1" stroke="none" stroke-width="1" fill="none" fill-rule="evenodd"><g id="Artboard-Copy-118" transform="translate(-595 -542)" fill="#FFF" fill-rule="nonzero"><path d="M615.384 550.372c.64.004 1.276.12 1.876.344l-.352 1.644a3.784 3.784 0 00-1.976-.348c-.58.08-.852.376-.852.652l.004-.012c-.028.912 2.8 1.024 2.8 3.072-.008 1.608-1.384 2.652-3.488 2.652a6.064 6.064 0 01-2.228-.4l.36-1.7a4.196 4.196 0 002.06.488c.58-.008 1.2-.236 1.2-.756.008-.34-.276-.592-1.036-.964s-1.756-.992-1.756-2.108c.012-1.508 1.388-2.564 3.388-2.564zm-12.74.132a.936.936 0 01.924.8l.828 4.488 2.084-5.276h2.12l-3.24 7.748h-2.12l-1.6-6.184a.848.848 0 00-.472-.68 8.264 8.264 0 00-1.98-.672l.044-.224zm8.808.012l-1.652 7.748h-2l1.648-7.748h2.004zm10.904 0l1.6 7.748h-1.868l-.244-1.156h-2.564l-.4 1.156h-2.104l3.024-7.18a.916.916 0 01.844-.568h1.712zm-1.408 2.096l-1.064 2.908h1.684l-.62-2.908zm3.496-8.464l.828 2.252c.084.252.18.548.24.776.072-.228.148-.516.244-.8l.752-2.22h.728l-1.036 2.7c-.492 1.296-.828 1.96-1.296 2.368-.238.22-.529.372-.844.444l-.172-.576c.22-.072.425-.188.6-.34.256-.2.46-.457.596-.752a.5.5 0 00.056-.164.664.664 0 00-.048-.18l-1.4-3.488.752-.02zm-3.652-1.748v2.36a1.404 1.404 0 011.288-.696c.94 0 1.6.78 1.6 1.928 0 1.356-.852 2.028-1.696 2.028a1.348 1.348 0 01-1.268-.712h-.024l-.032.624h-.58c0-.256.028-.64.028-.976V542.4h.684zm-3.26 0v4.556c0 .336 0 .72.028.976h-.616l-.032-.656c-.25.476-.751.765-1.288.744-.916 0-1.62-.776-1.62-1.924 0-1.26.776-2.032 1.696-2.032.457-.028.894.192 1.144.576v-2.24h.688zm-5.396 1.664c1.236 0 1.568 1.088 1.568 1.78 0 .108-.008.217-.024.324h-2.64a1.2 1.2 0 001.3 1.312 2.48 2.48 0 001.048-.196l.116.492a3.032 3.032 0 01-1.26.236 1.764 1.764 0 01-1.88-1.908c0-1.144.672-2.04 1.772-2.04zm-11.228-.012c1.236 0 1.564 1.088 1.564 1.78 0 .108-.008.217-.024.324l-2.648.012a1.2 1.2 0 001.296 1.312 2.48 2.48 0 001.048-.196l.116.492A3 3 0 01601 548a1.76 1.76 0 01-1.868-1.644 1.94 1.94 0 010-.264c0-1.144.676-2.04 1.776-2.04zm-5.108-1.388l.82 2.596c.224.712.42 1.352.56 1.968a24.7 24.7 0 01.604-1.96l.892-2.604h.724l-1.88 5.268h-.732l-1.72-5.268h.732zm12.428-.368c.2 0 .4.036.588.108l-.096.532a1.02 1.02 0 00-.436-.084c-.588 0-.736.516-.736 1.092v.204h.912v.524h-.892v3.26h-.7v-3.26h-.532v-.524h.532v-.18c-.04-.481.117-.958.436-1.32.25-.233.582-.36.924-.352zm1.584 1.852v3.784h-.688v-3.784h.688zm-3.844 0v3.784h-.688v-3.784h.688zm-1.304-.104a.8.8 0 01.196.024v.648a1.152 1.152 0 00-.236-.024c-.486.02-.88.4-.92.884-.02.105-.031.213-.032.32v2H603v-2.568c0-.444 0-.828-.032-1.2h.596l.024.744h.028a1.136 1.136 0 011.048-.828zm11.156.572c-.712 0-1.136.624-1.136 1.46 0 .768.376 1.4 1.12 1.4a1.03 1.03 0 001.008-.82 1.22 1.22 0 00.032-.296v-.656a1.176 1.176 0 00-.032-.288 1.012 1.012 0 00-.992-.8zm6.056-.024a1.096 1.096 0 00-1.048.844 1.65 1.65 0 00-.036.28v.684a1.056 1.056 0 001.06 1.052c.72 0 1.152-.588 1.152-1.456 0-.756-.4-1.404-1.128-1.404zm-21.032-.036a1.132 1.132 0 00-1.052 1.116h2.008c0-.436-.18-1.116-.956-1.116zm11.244 0a1.14 1.14 0 00-1.056 1.116h2.008c0-.436-.18-1.116-.952-1.116zm-6.464-1.9a.4.4 0 01.424.376v.052a.428.428 0 11-.856 0 .4.4 0 01.368-.428h.064zm3.864 0c.22 0 .4.18.4.4v.028h.016a.4.4 0 01-.372.424h-.064a.4.4 0 01-.4-.4v-.024a.42.42 0 01.4-.428h.02z" id="visa-ver-icon"/></g></g></svg>