<svg width="22px" height="19px" viewBox="0 0 22 19" version="1.1" xmlns="http://www.w3.org/2000/svg" xmlns:xlink="http://www.w3.org/1999/xlink">
    <g id="Page-1" stroke="none" stroke-width="1" fill="none" fill-rule="evenodd">
        <path class="drawer__merchant-fill" d="M21.1197867,7.69386667 L21.1197867,18.24736 L1.52766688e-13,18.24736 L1.52766688e-13,7.69386667 L21.1197867,7.69386667 Z M11.01824,11.6238934 L10.5812267,11.6238934 L10.5812267,12.9954134 C10.5812267,13.7486933 10.9400534,14.0577067 11.4944,14.0577067 C12.0316018,14.0577067 12.3985769,13.7730044 12.4451193,13.1341338 L12.4501334,12.9917867 L12.4501334,11.6238934 L12.01312,11.6238934 L12.01312,13.0202667 C12.01312,13.48928 11.8247467,13.70592 11.5085867,13.70592 C11.2404655,13.70592 11.0545922,13.5268787 11.0230129,13.1419491 L11.01824,13.0202667 L11.01824,11.6238934 Z M5.70890669,11.5883733 C5.18656001,11.5883733 4.85962668,11.8832 4.85962668,12.2776533 C4.85962668,12.6187733 5.11189334,12.8318934 5.50986668,12.97056 C5.81184002,13.08064 5.93269334,13.1872 5.93269334,13.3684267 C5.93269334,13.56384 5.77632001,13.69536 5.4992,13.69536 C5.32017068,13.69536 5.14564695,13.6498944 5.01205591,13.5898197 L4.92010668,13.5425067 L4.82058668,13.9050667 C4.95200002,13.9831467 5.21493336,14.0541867 5.47082668,14.0541867 C6.08544001,14.0541867 6.37685335,13.7237334 6.37685335,13.3364267 C6.37685335,12.9954134 6.17792001,12.7857067 5.76213334,12.6258134 C5.44234668,12.5050667 5.30378667,12.41984 5.30378667,12.2349867 C5.30378667,12.0929067 5.42101334,11.9472 5.69824,11.9472 C5.87726934,11.9472 6.01998082,11.9904128 6.11539713,12.0313455 L6.17792001,12.0609067 L6.28085334,11.7056 C6.15648001,11.6452267 5.96821335,11.5883733 5.70890669,11.5883733 Z M9.68544001,11.5883733 C8.95349336,11.5883733 8.40277336,12.0609067 8.40277336,12.8497067 C8.40277336,13.5780267 8.86474669,14.0541867 9.62506669,14.0541867 C9.86782224,14.0541867 10.0662074,14.0147052 10.1852222,13.9727793 L10.2468267,13.9476267 L10.1757867,13.60288 C10.05856,13.6526934 9.87370667,13.6882134 9.69962668,13.6882134 C9.17024002,13.6882134 8.86474669,13.35424 8.86474669,12.8283733 C8.86474669,12.2528 9.21642669,11.9472 9.70325336,11.9472 C9.84981335,11.9472 9.97639336,11.9712 10.0784934,12.00417 L10.1722667,12.0395733 L10.2645334,11.6914134 C10.1757867,11.6452267 9.97322667,11.5883733 9.68544001,11.5883733 Z M8.12885335,11.6238934 L6.73610669,11.6238934 L6.73610669,14.0186667 L8.18218668,14.0186667 L8.18218668,13.65984 L7.17301336,13.65984 L7.17301336,12.9562667 L8.07552001,12.9562667 L8.07552001,12.60096 L7.17301336,12.60096 L7.17301336,11.98272 L8.12885335,11.98272 L8.12885335,11.6238934 Z M13.5768533,11.6061867 C13.37504,11.6061867 13.1799851,11.6197718 13.0246204,11.6415898 L12.9160533,11.6594133 L12.9160533,14.0186667 L13.3493334,14.0186667 L13.3493334,13.0344534 L13.5698134,13.0344534 C13.8184534,13.0416 13.9285334,13.1410134 13.9995734,13.45376 C14.0544305,13.7095772 14.1066232,13.8896915 14.1428513,13.9806685 L14.1595734,14.0186667 L14.6072534,14.0186667 C14.5610667,13.9262934 14.4970667,13.6491733 14.4189867,13.3506133 C14.3716089,13.1581689 14.292083,13.0101689 14.1662114,12.9291442 L14.0850134,12.8887467 L14.0850134,12.8781867 C14.31232,12.7998933 14.52192,12.5902933 14.52192,12.28128 C14.52192,12.0750934 14.4472533,11.90816 14.31584,11.79808 C14.1525334,11.6629334 13.9214934,11.6061867 13.5768533,11.6061867 Z M16.2952534,11.6238934 L14.9025067,11.6238934 L14.9025067,14.0186667 L16.3485867,14.0186667 L16.3485867,13.65984 L15.33952,13.65984 L15.33952,12.9562667 L16.2420267,12.9562667 L16.2420267,12.60096 L15.33952,12.60096 L15.33952,11.98272 L16.2952534,11.98272 L16.2952534,11.6238934 Z M13.61952,11.9365334 C13.9037867,11.9365334 14.0850134,12.0609067 14.0850134,12.32032 C14.0850134,12.5319467 13.9418219,12.6789307 13.7027856,12.7089812 L13.6087467,12.7146667 L13.3493334,12.7146667 L13.3493334,11.9579733 C13.3921067,11.9472 13.4808534,11.9365334 13.61952,11.9365334 Z M12.5098667,-2.50022225e-13 C12.9825067,-2.50022225e-13 13.3623467,0.102826654 13.6574934,0.209600002 L13.6574934,0.209600002 L13.44256,1.21568001 C12.8930134,0.96256 12.4082134,0.980799998 12.2325333,1.00341334 C11.87808,1.04970666 11.7160534,1.23072001 11.71232,1.40074667 C11.7006934,1.95989334 13.4362667,2.02933334 13.4309334,3.28085333 C13.4270934,4.26688 12.584,4.90357334 11.2945067,4.90357334 C10.7466667,4.89770668 10.2176,4.78336001 9.93045334,4.65194667 L9.93045334,4.65194667 L10.1531734,3.61226668 C10.4382934,3.74517333 10.7960533,3.92160002 11.4132267,3.912 C11.76544,3.90666667 12.14368,3.76576 12.1469867,3.44757334 C12.1493333,3.24000001 11.9890134,3.09088001 11.5105067,2.85845333 L11.4089944,2.80734126 C10.9614063,2.57520598 10.4296762,2.20157715 10.4369067,1.56757334 C10.4437334,0.644266657 11.29696,-2.50022225e-13 12.5098667,-2.50022225e-13 Z M10.1026133,0.0866133314 L9.08821335,4.82922666 L7.86122667,4.82922666 L8.87573334,0.0866133314 L10.1026133,0.0866133314 Z M16.7771734,0.0866133314 L17.76832,4.82922666 L16.6338134,4.82922666 L16.4852267,4.12085333 L14.91136,4.12085333 L14.6555734,4.82922666 L13.3669333,4.82922666 L15.208,0.434240005 C15.296,0.223359999 15.4948267,0.0866133314 15.7306667,0.0866133314 L15.7306667,0.0866133314 L16.7771734,0.0866133314 Z M4.70133334,0.0866133314 C4.96725333,0.0866133314 5.20650669,0.263573324 5.26741333,0.569920007 L5.78421335,3.31445335 L7.06048001,0.0866133314 L8.34944002,0.0866133314 L6.36149336,4.82922666 L5.06474669,4.82922666 L4.08640001,1.04426668 C4.02709334,0.811520003 3.97536,0.725973337 3.79498667,0.627626658 C3.49994666,0.467413321 3.01290668,0.317546672 2.58464,0.224320008 L2.61365334,0.0866133314 L4.70133334,0.0866133314 Z M15.9101867,1.36800001 L15.2644267,3.14901334 L16.2818134,3.14901334 L15.9101867,1.36800001 Z" id="Combined-Shape-Copy" fill="#FFFFFF" fill-rule="nonzero"></path>
    </g>
</svg>
