<svg width="47" height="16" xmlns="http://www.w3.org/2000/svg"><g id="Page-1" stroke="none" stroke-width="1" fill="none" fill-rule="evenodd"><g id="New-Carte.by-Copy-5" transform="translate(-434 -2201)" fill="#FFF"><g id="visa" transform="translate(380 2198)"><g id="Без-названия-(3)" transform="translate(54 3)"><path d="M13.32.271L9.606 10.315l-.396-2.04c-.926-2.503-2.93-5.128-5.262-6.192l3.4 12.897 4.018-.002L17.34.27h-4.02zm3.186 14.724L18.88.257h3.796L20.3 14.995zM34.072.62A9.374 9.374 0 0030.67 0c-3.755 0-6.394 2-6.416 4.863-.025 2.12 1.886 3.302 3.323 4.006 1.482.721 1.977 1.183 1.973 1.828-.015.988-1.186 1.438-2.275 1.438-1.518 0-2.326-.222-3.57-.77l-.493-.236-.532 3.299c.889.41 2.528.766 4.233.784 3.985 0 6.578-1.978 6.609-5.032.016-1.682-.999-2.954-3.191-4.005-1.324-.683-2.142-1.136-2.13-1.828.002-.612.687-1.267 2.176-1.267a6.625 6.625 0 012.84.566l.339.17.516-3.195z" id="Shape"/><path d="M43.809.272h-2.933c-.91 0-1.59.26-1.992 1.223L33.248 15h3.987s.653-1.817.8-2.216c.435 0 4.307.01 4.86.01.118.513.462 2.206.462 2.206h3.526L43.809.272zM39.127 9.77c.315-.846 1.513-4.12 1.513-4.12-.024.04.31-.852.504-1.404l.253 1.27.882 4.254h-3.152z" id="Shape" fill-rule="nonzero"/><path d="M6.158.264H.036L0 .517c4.76 1.22 7.901 4.217 9.209 7.762L7.878 1.505C7.649.574 6.983.297 6.158.264z" id="Shape"/></g></g></g></g></svg>