<svg width="17" height="20" viewBox="0 0 17 20" fill="none" xmlns="http://www.w3.org/2000/svg">
    <path d="M11.9745 0.873047C12.1094 1.95549 11.6624 3.04475 10.9888 3.83202C10.3149 4.61774 9.20391 5.23175 8.11034 5.1582C7.95112 4.09853 8.4933 2.9891 9.11784 2.29253C9.81257 1.50759 10.9953 0.916305 11.9745 0.873047ZM15.5677 7.15706C15.4142 7.24647 13.4572 8.3868 13.501 10.6845C13.5531 13.4815 16.1204 14.3974 16.149 14.4068C16.1481 14.4098 16.1464 14.4154 16.1438 14.4231C16.0918 14.5875 15.7099 15.7964 14.8247 17.0463C14.0226 18.177 13.1897 19.3041 11.8641 19.3355C11.2255 19.351 10.7972 19.1788 10.3522 19C9.88698 18.8128 9.40299 18.6183 8.64069 18.6234C7.84292 18.6285 7.34069 18.8353 6.8567 19.0346C6.43683 19.2076 6.03055 19.3747 5.45677 19.3999C4.17645 19.4539 3.18829 18.196 2.36103 17.0805C0.66615 14.7961 -0.649567 10.6147 1.04202 7.77467C1.88135 6.36456 3.39768 5.465 5.05227 5.43247C5.76507 5.41457 6.45845 5.67021 7.06525 5.89398C7.5282 6.06471 7.94073 6.21688 8.27302 6.21476C8.57236 6.21279 8.97214 6.06013 9.43822 5.88213C10.1709 5.60238 11.0672 5.25995 11.9949 5.34233C12.6305 5.36366 14.4165 5.57002 15.5741 7.1533C15.5726 7.15428 15.5704 7.15551 15.5677 7.15706Z" fill="#969696"/>
</svg>
