<svg width="16" height="17" viewBox="0 0 16 17" fill="none" xmlns="http://www.w3.org/2000/svg">
    <path fill-rule="evenodd" clip-rule="evenodd" d="M9.23264 8.35829L2.46512 16.6584C1.45147 16.6454 0.770511 15.8143 0.769561 14.5814L0.777215 2.20768C0.77807 0.963278 1.46881 0.12847 2.49677 0.128971C2.50791 0.1291 2.51934 0.131779 2.53053 0.134455C2.54076 0.136881 2.55124 0.139309 2.56134 0.139744L9.23264 8.35829ZM12.6027 5.62314L14.4508 6.69283C15.2047 7.12903 15.6168 7.73475 15.6165 8.40112C15.6162 9.06756 15.202 9.67623 14.4479 10.1106L12.6416 11.1524L10.3729 8.3581L12.6027 5.62314ZM11.8258 5.17712L4.22061 0.777945L9.8039 7.65682L11.8258 5.17712ZM4.06262 16.0994L9.80243 9.0579L11.8654 11.5994L4.06262 16.0994Z" fill="#969696"/>
</svg>