<svg width="250" height="161" viewBox="0 0 250 161" fill="none" xmlns="http://www.w3.org/2000/svg">
<g clip-path="url(#clip0_570_891)">
<path d="M132.934 16.9195C112.65 23.6544 116.847 32.148 131.809 30.6678C122.653 29.3001 118.855 28.7814 125.886 22.4045L121.463 25.1837C123.099 22.3331 126.699 19.5656 132.934 16.9195ZM134.827 12.1308C128.066 15.4545 121.443 16.9793 114.94 16.9633C113.642 16.9633 112.034 16.9302 110.742 16.8017C110.01 16.7285 109.603 16.4597 109.737 15.2679C109.846 14.2922 110.434 13.7502 110.91 13.1075C109.768 13.3556 109.128 14.3573 108.586 15.5107C108.854 13.4289 109.892 11.7326 111.36 10.2525L107.311 13.4824C108.878 9.77395 112.313 7.12247 116.383 4.91828C92.4342 16.5151 111.587 26.4085 134.827 12.1308ZM33.2334 61.4355C33.2334 59.2608 32.9564 57.4387 32.4022 55.9692C31.7102 54.2063 30.7925 53.3249 29.6491 53.3249H25.3369V64.3441C25.3369 65.6957 25.8738 67.0182 26.9477 68.3114C26.7054 68.5465 26.3763 69.1634 25.9605 70.1621C25.5447 71.1608 25.3369 71.8661 25.3369 72.2779V84.0908H29.9609C31.0693 84.0908 31.9178 83.1504 32.5064 81.2697C32.9911 79.7419 33.2334 77.9496 33.2334 75.8927C33.2334 74.247 33.147 72.9835 32.9742 72.1021C32.6623 70.7504 32.0387 69.4869 31.1031 68.3114C32.5233 67.1366 33.2334 64.8446 33.2334 61.4355ZM115.933 43.9867C107.991 41.9995 100.914 39.2311 98.9899 31.8168C98.3947 40.5354 106.307 42.9012 115.933 43.9876V43.9867ZM105.812 43.1609C102.44 41.7111 99.5877 39.565 97.4147 36.5127C98.6353 40.8764 101.793 42.6057 105.81 43.1618L105.812 43.1609ZM247.239 63.221C247.08 62.9282 246.934 62.5961 246.8 62.3024C246.706 62.1063 246.622 61.9051 246.549 61.6998C246.549 61.6873 246.545 61.6739 246.543 61.6605C244.335 47.6292 236.863 35.8707 221.438 35.8707C214.947 35.8707 209.506 37.9526 205.359 41.7629C204.62 40.3836 203.523 39.2305 202.183 38.4259C200.843 37.6213 199.311 37.1952 197.748 37.1929H190.532C190.308 37.1929 190.086 37.2009 189.871 37.2152C187.452 36.2975 184.829 35.8707 182.119 35.8707C176.512 35.8707 172.064 37.5723 168.643 40.4381C168.102 39.763 167.464 39.1723 166.749 38.6856C168.251 35.9966 168.418 32.681 167.739 29.4296C166.152 21.8368 156.795 17.1989 150.633 13.4137L148.697 11.3604C140.069 -3.58156 116.239 -2.66472 104.377 7.64742L104.323 7.69295L104.272 7.74205C102.327 9.57308 100.816 11.6701 99.9726 14.0806C99.2153 14.2957 98.458 14.6323 97.6624 15.0322C90.5498 18.6139 85.3431 24.1508 81.9129 31.3249L81.7961 31.5677L81.7186 31.8248C81.1767 33.585 80.7403 35.3761 80.4116 37.1884H61.3263C59.037 37.1929 56.8428 38.1062 55.224 39.7282C53.6052 41.3502 52.6938 43.5489 52.6893 45.8428V52.9678L51.1417 52.9758C48.786 44.8706 44.3571 37.1884 35.402 37.1884H8.64648C6.35719 37.1929 4.16294 38.1062 2.54416 39.7282C0.925382 41.3502 0.0139852 43.5489 0.00951143 45.8428V53.3365C0.0132973 55.0966 0.551304 56.814 1.5521 58.2606C2.55289 59.7071 3.96911 60.8144 5.61275 61.4355C5.61275 61.8973 5.60682 62.3589 5.59494 62.8202C4.32443 64.3378 3.65889 66.1733 3.64196 68.2481C3.62414 70.371 4.28968 72.2592 5.59405 73.8152C5.6279 74.5553 5.62434 75.3383 5.61989 76.0819C3.97335 76.702 2.55431 77.8097 1.5516 79.2578C0.548883 80.7059 0.0100529 82.4256 0.00683594 84.1881V91.6818C0.0113105 93.9756 0.922746 96.1742 2.54155 97.7961C4.16035 99.4179 6.35459 100.331 8.6438 100.335H35.5508C39.3009 100.335 42.5163 98.6801 45.1509 96.2286C46.8437 97.7105 48.8867 98.9068 51.2184 99.7871C54.5653 101.039 58.1104 101.674 61.6827 101.662C67.5853 101.662 73.3632 100.44 77.6808 97.5552C78.4878 98.434 79.4681 99.1356 80.5595 99.6155C81.6509 100.095 82.8299 100.343 84.0218 100.343H157.431C159.33 100.339 161.176 99.7095 162.683 98.5509C164.191 97.3922 165.276 95.7691 165.772 93.9315C169.721 98.8042 175.255 101.665 182.108 101.665C184.368 101.665 186.523 101.201 188.561 100.415C189.367 100.653 190.203 100.773 191.044 100.772H197.904C199.525 100.769 201.112 100.311 202.485 99.4486C203.858 98.5865 204.962 97.3555 205.672 95.8956C214.191 104.399 231.234 103.07 239.088 94.4583C239.137 94.4038 239.177 94.3574 239.227 94.3011C243.885 88.9384 246.034 81.542 247.118 74.6116C247.376 73.8215 247.674 72.943 248.003 72.2815C249.522 69.2747 249.221 65.8725 247.239 63.221ZM44.3508 74.6634C44.1435 76.015 43.9356 77.3374 43.7272 78.6307C43.5187 79.924 43.3283 81.2462 43.1561 82.5972C42.5668 85.1838 41.5797 87.2996 40.1945 88.9446C38.6015 90.767 37.0604 91.6779 35.5713 91.6773H8.66429V84.1845H12.6638C13.7722 84.1845 14.3264 82.5978 14.3264 79.4244V77.8371L14.2747 76.9559C14.2747 74.2527 14.2227 72.5484 14.1188 71.8432C13.9115 70.3737 13.3053 69.1982 12.3003 68.3168C13.3392 67.4348 13.9628 66.2299 14.1713 64.7021C14.2064 64.4086 14.2325 63.8798 14.2497 63.1156C14.267 62.3515 14.2756 61.323 14.2756 60.0303C14.2756 59.7357 14.2928 59.2655 14.3272 58.6198C14.3617 57.974 14.3789 57.5038 14.3789 57.2092C14.3789 54.6232 13.7036 53.3302 12.3529 53.3302H8.66519V45.8374H35.419C39.9207 45.8374 43.0551 52.3021 44.8222 65.2315C44.9267 66.1123 45.4634 67.1408 46.4321 68.3168C45.4948 69.7244 44.8011 71.8384 44.3508 74.6589V74.6634ZM80.8722 53.3267C80.6162 53.2698 80.3549 53.2399 80.0926 53.2374H79.4173C77.8593 53.2374 76.8896 53.8251 76.5083 55.0006C76.3693 55.4118 76.3001 57.0869 76.3007 60.0258C76.3007 62.2583 76.3351 63.6686 76.404 64.2566C76.5928 65.7442 77.2479 67.1333 78.2751 68.224C77.9632 68.343 77.565 68.9013 77.0803 69.8988C76.5606 70.957 76.301 71.7209 76.3016 72.1904V83.2105C76.3016 89.7335 71.4354 92.995 61.7032 92.995C59.0368 92.995 56.5606 92.5543 54.2744 91.6729C50.1528 90.1451 48.092 87.2948 48.092 83.1221V71.8387H59.1577V80.9179C59.1577 82.0345 59.6252 82.8573 60.5601 83.3864C61.1487 83.6798 61.6682 83.8268 62.1184 83.8274C63.6431 83.8274 64.6131 82.799 65.0283 80.7421C65.1661 80.0957 65.2353 78.4795 65.2359 75.8936C65.2359 73.6599 65.2186 72.3964 65.1842 72.1029C64.9074 70.5156 64.2665 69.1932 63.2615 68.1356C64.3354 67.1958 64.9763 65.8736 65.1842 64.1691C65.2192 63.9905 65.2365 62.58 65.2359 59.9375C65.2359 56.6456 65.1667 54.853 65.0283 54.5596C64.6814 53.6781 63.4519 53.2669 61.3397 53.3258V45.8329H80.1318C80.171 46.1008 80.2147 46.3686 80.2646 46.6364C80.265 46.6403 80.265 46.6442 80.2646 46.648C80.3394 47.0498 80.4267 47.4488 80.5265 47.8452C80.6281 48.2434 80.7427 48.6389 80.8704 49.0317L80.8722 53.3267ZM123.575 91.6738H103.99V84.1809C104.429 84.2366 104.873 84.2513 105.315 84.2247C105.57 84.2089 105.822 84.1646 106.068 84.0926C106.968 83.7402 107.418 82.8293 107.418 81.3599C107.418 80.4784 107.21 79.538 106.795 78.5388H96.3527C95.9369 79.8904 95.729 80.9188 95.729 81.6241C95.729 83.3281 96.3527 84.1803 97.6 84.1809H99.9896V91.6738H84.0414V84.1809H84.7167C85.0818 84.1855 85.4462 84.2153 85.8072 84.2702C86.8117 84.3297 87.6949 83.5069 88.457 81.8018C88.7242 81.1678 88.9582 80.5202 89.1582 79.8618C89.4177 79.0393 89.685 78.0403 89.96 76.8649C90.7221 73.9271 91.1028 71.9583 91.1022 70.9584C91.1022 69.9002 90.8251 69.0188 90.271 68.3141C91.5629 68.0945 92.779 66.2926 93.9194 62.9085C94.2325 63.0549 94.5511 63.1999 94.8754 63.3433H94.8826L95.345 63.5442L95.4136 63.5736C95.5662 63.6397 95.7201 63.7052 95.8751 63.77L96.0863 63.8593L96.3072 63.92C96.4575 63.9611 96.606 64.0007 96.7527 64.0388L96.8855 64.0718C96.9915 64.0986 97.0984 64.1254 97.2044 64.1504L97.3496 64.1843L97.657 64.2557L97.7987 64.2861L98.1132 64.353L98.2415 64.3798C98.3529 64.4021 98.4633 64.4235 98.5747 64.4441L98.6834 64.4646C98.8028 64.4869 98.9213 64.5083 99.0398 64.5289L99.1289 64.5432C99.2599 64.5655 99.3899 64.5869 99.52 64.6065L99.5708 64.6146C99.7187 64.6369 99.8666 64.6592 100.016 64.6789L98.5337 70.0755H104.924L103.536 64.9422C104.24 64.9523 104.94 64.9372 105.636 64.8967H105.659C106.35 64.8568 107.037 64.7946 107.722 64.7101H107.749C107.973 64.6824 108.194 64.653 108.419 64.6208L108.448 64.6164C108.903 64.5503 109.356 64.4756 109.808 64.3923H109.814C110.034 64.3512 110.253 64.3084 110.473 64.2637L110.525 64.253C110.743 64.2084 110.959 64.1637 111.176 64.1129L111.205 64.1066C111.647 64.0078 112.088 63.901 112.527 63.7861L112.573 63.7745C112.785 63.718 112.998 63.6605 113.21 63.6022L113.27 63.5852C113.486 63.5257 113.701 63.4641 113.916 63.4004H113.922C114.148 63.3335 114.368 63.2656 114.597 63.1951C115.691 66.4965 116.847 68.1752 118.066 68.2311C117.582 69.0542 117.339 70.2591 117.339 71.8458C117.339 73.0207 117.737 75.1951 118.534 78.3692C119.366 81.7187 120.024 83.5405 120.508 83.8346C120.959 84.0696 121.98 84.1887 123.573 84.1917L123.575 91.6738ZM161.914 53.3267C159.628 53.2672 158.26 53.7373 157.81 54.7372C157.602 55.2074 157.498 57.0292 157.498 60.2026C157.498 62.4952 157.533 63.9352 157.603 64.5226C157.845 66.1087 158.469 67.3428 159.474 68.2249C159.197 68.2844 158.781 68.8426 158.226 69.8997C157.776 70.8394 157.517 71.6033 157.448 72.1913V91.6738H144.824L136.668 60.0267V81.5357C136.668 83.0052 137.308 83.8575 138.59 84.0926C139.25 84.2697 139.942 84.3002 140.616 84.1818V91.6747H126.693V84.1818C126.895 84.2403 127.105 84.2703 127.316 84.2711H127.888C129.307 84.2711 130.173 83.5069 130.485 81.9785C130.555 81.5089 130.59 79.8341 130.59 76.9541C130.59 75.6025 130.581 74.5312 130.563 73.7402C130.545 72.9493 130.519 72.4056 130.485 72.1092C130.243 70.1112 129.568 68.8477 128.459 68.3186C129.602 67.3776 130.295 66.0846 130.537 64.4396C130.572 64.2611 130.59 62.7624 130.59 59.9437C130.59 58.5278 130.577 57.3896 130.55 56.529L131.076 56.3004C131.992 55.9022 132.908 55.5056 133.824 55.1104L134.447 54.8426C135.547 54.3694 136.646 53.8971 137.744 53.4258L138.5 53.1035C139.466 52.6869 140.433 52.2735 141.401 51.8635L145.11 50.2797L145.232 50.2279L151.727 75.1963V55.8023C151.727 53.8043 150.618 52.9815 148.402 53.3338V48.8701L148.847 48.6781C149.673 48.321 150.498 47.9639 151.323 47.6068L152.14 47.2497C153.196 46.7915 154.251 46.3314 155.306 45.8695L155.386 45.8347H161.91L161.914 53.3267ZM161.891 37.2572C148.333 43.4457 134.775 48.8076 121.218 54.9961C113.734 58.3511 106.11 60.7186 97.8263 58.451C93.1042 56.4736 88.4935 54.1525 85.3805 47.3328C83.3366 42.8985 83.726 37.2447 85.6807 30.8062C88.9283 24.0151 93.7181 19.2255 99.8292 16.1482C100.839 15.6393 102.005 14.926 103.374 15.6313C103.579 13.1771 104.668 10.7211 107.273 8.26877C117.786 -0.872976 139.241 -1.65502 146.409 11.4237L147.061 12.1156L147.283 25.9479L146.184 19.2362L146.335 30.8803L144.685 25.3961L144.653 32.3042C138.92 32.8988 133.261 34.6566 128.36 37.5081C124.015 37.8134 115.583 36.6564 109.471 34.2879L108.997 31.4052L107.839 33.4336L107.727 27.6869L106.453 32.4569L105.965 26.0719L105.14 30.6919L105.028 21.6752L103.829 29.7099L103.678 20.0566L102.328 28.6583C101.935 27.1023 101.724 25.5057 101.7 23.9008L102.422 17.4444C101.911 17.3248 101.518 17.5185 101.216 17.9319C93.3243 21.3484 89.7141 27.5736 86.3774 33.971C94.8977 23.1482 97.8388 21.6127 100.419 20.6798C100.404 20.8137 100.39 20.9476 100.377 21.0886C97.7595 22.825 95.3477 25.0542 93.0712 27.6057C95.3797 25.4765 97.7728 23.7142 100.295 22.517L100.287 22.8188C98.2834 24.2249 96.3536 25.8782 94.5716 28.0199C96.4115 26.5817 98.2985 25.3765 100.284 24.6614C100.284 24.7373 100.284 24.8132 100.284 24.8891C99.1155 25.6381 97.9974 26.6647 96.9656 28.1708L100.345 26.7763C100.39 27.8869 100.441 28.8145 100.434 29.3466C100.403 33.3452 100.352 33.8719 103.402 36.7653C107.689 40.8335 113.775 42.7663 121.479 42.7762C118.718 45.5062 115.956 48.2356 113.193 50.9645C111.299 51.9036 108.827 51.6876 106.332 51.4153C106.973 52.2295 108.88 52.3607 110.831 52.467C108.876 52.8865 105.615 52.9615 101.759 52.8803L108.47 54.4203C104.509 54.6203 100.685 54.2703 96.9238 53.6686C99.7071 54.8622 102.608 55.8862 106.295 55.7719C101.153 57.0655 95.9116 56.5298 88.0017 49.6869C91.8649 53.1463 94.372 58.1038 104.939 57.5904C109.409 57.3726 111.143 55.9121 114.182 52.5607C126.039 39.4802 138.1 31.3543 156.535 34.0522C158.165 34.2906 162.192 35.2342 163.451 34.3325C164.839 33.3398 164.514 31.4329 164.037 29.8688C163.965 31.3302 163.955 32.5542 162.973 33.2309C161.345 34.3504 160.111 33.6103 158.429 33.1925C155.474 32.4672 152.444 32.0912 149.401 32.0721C149.369 30.5991 149.28 27.162 149.187 23.6392L149.329 23.6589C149.875 23.2687 150.445 23.3571 151.017 23.4705C150.778 22.8223 150.132 22.2412 149.441 21.668C150.716 21.6314 151.99 22.2671 153.265 23.133C152.439 21.7225 151.006 20.6753 149.179 19.8647C151.699 19.9209 153.935 21.4993 156.152 23.1679C154.07 21.0988 151.667 19.3805 149.038 18.0792C149.038 18.0622 149.038 18.0444 149.038 18.0274C152.901 18.9505 156.203 21.3761 159.489 23.8401C156.37 20.969 153.306 18.0533 148.991 16.283C148.965 15.325 148.943 14.56 148.931 14.0904L148.954 14.1154C154.106 17.3293 163.577 21.96 164.849 28.0878C165.547 31.3892 165.32 35.2217 161.891 37.259V37.2572ZM124.448 40.1274L123.886 40.5738L123.661 40.2925C123.52 40.114 123.098 39.6105 122.832 39.773C122.671 39.8721 122.529 40.1604 122.481 40.3381L122.387 40.6854L121.692 40.4952L121.787 40.1479C121.869 39.8555 122.015 39.5851 122.215 39.3569C122.287 39.2801 122.369 39.2131 122.458 39.1579C122.633 39.0465 122.841 38.9986 123.047 39.0222C123.521 39.0757 123.938 39.4864 124.224 39.8426L124.448 40.1274ZM116.689 40.0801L116.038 40.3872L115.884 40.0613C115.788 39.856 115.493 39.2677 115.197 39.3641C115.019 39.423 114.813 39.6712 114.725 39.8328L114.553 40.1488L113.922 39.8033L114.094 39.4873C114.241 39.2215 114.446 38.9924 114.693 38.8168C114.78 38.7583 114.875 38.712 114.975 38.6794C115.17 38.6102 115.384 38.6102 115.58 38.6794C116.025 38.8418 116.34 39.3373 116.535 39.7507L116.689 40.0801ZM109.516 37.4786L108.81 37.6197L108.74 37.2626C108.695 37.0403 108.552 36.3975 108.241 36.4198C108.052 36.4332 107.795 36.6251 107.67 36.7599L107.427 37.0278L106.893 36.5403L107.136 36.2725C107.343 36.0502 107.597 35.8772 107.879 35.7663C107.978 35.7308 108.081 35.7088 108.186 35.7011C108.392 35.6826 108.599 35.7356 108.771 35.8511C109.167 36.1189 109.352 36.6742 109.441 37.1215L109.516 37.4786ZM104.567 33.6094L103.862 33.7514L103.791 33.3943C103.747 33.1711 103.603 32.5292 103.292 32.5515C103.103 32.5649 102.847 32.756 102.721 32.8917L102.479 33.1595L101.949 32.6712L102.192 32.4033C102.399 32.1813 102.653 32.0086 102.935 31.898C103.034 31.8627 103.137 31.8404 103.242 31.832C103.448 31.8138 103.655 31.867 103.827 31.9828C104.223 32.2507 104.408 32.8051 104.497 33.2523L104.567 33.6094ZM201.396 75.1865H199.423C198.418 75.4799 197.915 76.1852 197.916 77.3023V92.0969H191.056C190.942 91.1832 190.542 90.3293 189.912 89.6588C187.108 91.877 184.51 92.9885 182.12 92.9933C171.855 92.9933 169.509 84.2345 168.198 76.0971C167.505 72.1154 166.587 69.4464 165.444 68.09C166.899 66.6795 167.868 64.0789 168.353 60.2589C169.67 49.7542 174.259 44.5042 182.12 44.509C185.722 44.509 188.493 45.5961 190.432 47.7702C190.536 47.3589 190.571 46.7126 190.536 45.8312H197.753V63.3737H189.233C189.164 56.6739 187.415 53.324 183.986 53.324C180.73 53.324 179.102 56.1597 179.102 61.831C179.102 65.0922 179.657 67.15 180.765 67.9579C179.553 69.8381 178.947 72.2916 178.946 75.3186C178.946 77.9487 179.345 80.0939 180.141 81.7241C180.938 83.3543 182.116 84.1783 183.674 84.1783C186.479 84.1783 187.882 82.18 187.882 78.1835C187.882 76.1266 187.085 75.0981 185.492 75.0981C185.318 75.0985 185.145 75.1131 184.973 75.1419C184.797 75.1723 184.623 75.2168 184.454 75.2749V67.7812H201.389L201.396 75.1865ZM238.697 72.5859C237.623 79.9172 235.631 85.2555 232.722 88.6009C226.714 95.1885 214.304 94.2913 209.345 86.661C207.094 83.0757 205.795 79.036 205.448 74.5107C205.328 73.0926 204.995 71.7007 204.462 70.3817C204.392 70.2032 204.219 69.9407 203.942 69.589C203.589 69.153 203.207 68.7406 202.799 68.3543C203.976 67.1205 204.825 65.0342 205.345 62.1104C206.037 58.0547 206.503 55.7487 206.747 55.1604C209.345 48.0636 214.245 44.5131 221.448 44.509C230.557 44.509 236.081 50.669 238.02 62.9889C238.123 63.812 238.435 64.7663 238.954 65.8832C239.509 67.1181 239.959 67.941 240.305 68.3516C239.891 69.1777 239.355 70.5897 238.697 72.5877V72.5859ZM224.67 68.3097C225.987 66.7224 226.645 64.4012 226.644 61.3462C226.644 55.9975 224.999 53.3234 221.709 53.324C218.488 53.324 216.877 56.0861 216.877 61.6105C216.877 63.1978 216.947 64.2557 217.085 64.7842C217.328 65.8424 217.935 67.0179 218.903 68.3106C218.211 68.7801 217.675 69.7645 217.293 71.2638C216.922 72.6887 216.729 74.1547 216.721 75.6275C216.721 78.3308 217.189 80.5198 218.125 82.1946C219.06 83.8694 220.324 84.7068 221.917 84.7068C225.172 84.7068 226.8 81.7684 226.8 75.8918C226.802 71.8381 226.092 69.3107 224.67 68.3097ZM129.708 40.6184C122.974 44.9589 117.076 50.452 111.94 56.9959C115.966 56.0379 119.808 54.598 123.335 52.3384L119.737 53.0142C120.774 50.6574 123.052 48.854 125.059 46.9292C122.727 48.0746 120.745 49.6146 119.212 51.6608C121.852 47.3212 125.756 43.9537 129.708 40.6211V40.6184ZM157.017 36.8805C152.453 38.2419 149.099 40.4845 145.658 42.6655L161.891 36.4296C159.581 35.5137 156.707 35.1628 153.794 34.8521L157.017 36.8805Z" fill="black"/>
<path fill-rule="evenodd" clip-rule="evenodd" d="M232.17 155.953H237.152V157.45H236.363V160.084C235.743 160.362 235.099 160.585 234.44 160.749C233.811 160.911 233.166 160.995 232.517 160.999C231.475 160.999 230.566 160.789 229.791 160.368C229.028 159.96 228.402 159.335 227.992 158.573C227.568 157.799 227.356 156.898 227.356 155.869C227.35 155.167 227.471 154.47 227.712 153.811C227.941 153.186 228.286 152.61 228.729 152.114C229.148 151.637 229.662 151.253 230.237 150.984C230.811 150.724 231.434 150.592 232.063 150.597C232.7 150.597 233.223 150.661 233.634 150.791C234.085 150.943 234.501 151.183 234.858 151.498L234.928 150.763L236.56 151.054L236.27 152.801L236.519 154.576L234.956 154.839C234.854 154.211 234.741 153.749 234.616 153.453C234.497 153.163 234.304 152.909 234.056 152.718C233.541 152.296 232.894 152.07 232.229 152.08C231.279 152.08 230.509 152.431 229.919 153.134C229.329 153.837 229.033 154.749 229.03 155.87C229.03 157.007 229.35 157.897 229.991 158.539C230.632 159.181 231.52 159.502 232.655 159.503C233.144 159.503 233.836 159.35 234.73 159.045V157.45H232.17V155.953Z" fill="black"/>
<path fill-rule="evenodd" clip-rule="evenodd" d="M218.971 150.768L223.219 157.936V152.294H221.406V150.768H226.069V152.294H224.851V161H223.163L218.791 153.653V159.295H220.631V160.82H215.733V159.295H217.145V152.294H215.733V150.768H218.971Z" fill="black"/>
<path fill-rule="evenodd" clip-rule="evenodd" d="M205.494 150.768H213.076V152.294H210.171V159.295H213.076V160.82H205.494V159.295H208.524V152.294H205.494V150.768Z" fill="black"/>
<path fill-rule="evenodd" clip-rule="evenodd" d="M196.75 152.294V159.295H200.818V155.953H202.409V160.82H193.401V159.295H195.103V152.294H193.401V150.768H198.839V152.294H196.75Z" fill="black"/>
<path fill-rule="evenodd" clip-rule="evenodd" d="M183.701 152.294L184.379 157.451L185.803 152.987H187.271L188.627 157.424L189.346 152.294H187.616V150.768H191.809V152.294H190.992L189.761 160.82H188.129L186.482 155.33L184.807 160.82H183.203L182.068 152.294H181.154V150.768H185.334V152.294H183.701Z" fill="black"/>
<path fill-rule="evenodd" clip-rule="evenodd" d="M178.014 155.773C178.021 155.122 177.882 154.477 177.606 153.888C177.365 153.351 176.982 152.891 176.499 152.556C176.027 152.24 175.469 152.076 174.901 152.085C174.016 152.085 173.284 152.436 172.708 153.139C172.131 153.842 171.843 154.72 171.843 155.773C171.843 156.837 172.134 157.724 172.715 158.435C173.296 159.146 174.025 159.503 174.901 159.506C175.465 159.511 176.018 159.345 176.485 159.028C176.975 158.691 177.363 158.226 177.606 157.683C177.882 157.086 178.022 156.435 178.014 155.777V155.773ZM170.1 155.773C170.094 155.075 170.214 154.383 170.456 153.729C170.682 153.121 171.02 152.561 171.452 152.078C171.878 151.604 172.402 151.231 172.988 150.983C173.595 150.727 174.247 150.597 174.905 150.602C175.567 150.596 176.224 150.726 176.835 150.983C177.421 151.231 177.947 151.602 178.378 152.072C178.816 152.551 179.157 153.111 179.381 153.721C179.623 154.379 179.743 155.074 179.737 155.775C179.751 156.705 179.537 157.625 179.114 158.453C178.719 159.227 178.118 159.876 177.377 160.328C176.633 160.781 175.778 161.016 174.907 161.007C173.524 161.007 172.378 160.511 171.468 159.517C170.559 158.524 170.103 157.276 170.1 155.773Z" fill="black"/>
<path fill-rule="evenodd" clip-rule="evenodd" d="M161.991 159.295H163.832C164.361 159.306 164.889 159.262 165.409 159.163C165.805 159.075 166.088 158.926 166.26 158.716C166.431 158.506 166.516 158.22 166.515 157.857C166.515 157.292 166.319 156.897 165.927 156.671C165.535 156.445 164.837 156.331 163.832 156.331H161.991V159.298V159.295ZM161.991 152.293V154.844H163.951C165.234 154.844 165.875 154.41 165.875 153.541C165.875 152.708 165.233 152.291 163.951 152.291L161.991 152.293ZM166.668 155.469C167.142 155.699 167.547 156.05 167.844 156.487C168.116 156.915 168.256 157.414 168.245 157.922C168.243 158.41 168.107 158.887 167.851 159.302C167.602 159.727 167.241 160.075 166.807 160.306C166.447 160.51 166.055 160.65 165.648 160.722C165.261 160.788 164.661 160.82 163.85 160.82H158.949V159.295H160.346V152.293H158.949V150.768H163.972C164.987 150.768 165.84 150.992 166.531 151.44C167.223 151.889 167.569 152.589 167.569 153.541C167.568 154.346 167.268 154.988 166.668 155.469Z" fill="black"/>
<path fill-rule="evenodd" clip-rule="evenodd" d="M105.988 155.815C105.982 155.59 106.024 155.367 106.112 155.161C106.199 154.954 106.329 154.768 106.493 154.615C106.649 154.461 106.834 154.34 107.037 154.258C107.24 154.176 107.457 154.135 107.675 154.137C108.122 154.131 108.553 154.303 108.873 154.615C109.037 154.768 109.167 154.954 109.254 155.161C109.341 155.367 109.383 155.59 109.378 155.815C109.377 156.036 109.331 156.255 109.243 156.457C109.155 156.66 109.027 156.842 108.866 156.993C108.713 157.156 108.528 157.285 108.323 157.373C108.119 157.461 107.898 157.506 107.675 157.506C107.455 157.505 107.237 157.46 107.034 157.371C106.832 157.283 106.65 157.155 106.499 156.993C106.338 156.842 106.21 156.66 106.122 156.457C106.034 156.254 105.988 156.036 105.988 155.815Z" fill="black"/>
<path fill-rule="evenodd" clip-rule="evenodd" d="M94.8075 152.293V159.295H96.3854C97.5383 159.295 98.3755 158.985 98.897 158.365C99.4185 157.746 99.679 156.845 99.6784 155.662C99.6784 154.877 99.5447 154.23 99.2774 153.721C99.0001 153.157 98.6734 152.778 98.2974 152.584C97.9214 152.39 97.3034 152.293 96.4433 152.293H94.8075ZM93.1583 159.295V152.293H91.7061V150.768H96.438C97.3052 150.768 97.9692 150.826 98.4301 150.941C98.8882 151.055 99.3147 151.27 99.6775 151.573C100.265 152.037 100.713 152.655 100.971 153.358C101.239 154.093 101.373 154.87 101.366 155.652C101.366 157.353 100.953 158.641 100.127 159.514C99.3018 160.388 98.0544 160.825 96.3854 160.824H91.7087V159.299L93.1583 159.295Z" fill="black"/>
<path fill-rule="evenodd" clip-rule="evenodd" d="M83.2961 155.038H85.0389C85.7677 155.038 86.2889 154.932 86.6025 154.719C86.9161 154.507 87.0729 154.15 87.0729 153.648C87.0729 153.158 86.9117 152.809 86.5891 152.602C86.2666 152.395 85.7499 152.291 85.0389 152.289H83.2961V155.035V155.038ZM86.5196 156.384C86.7044 156.622 86.9672 157.005 87.3081 157.534C87.6491 158.063 88.0319 158.65 88.4566 159.295H90.1173V160.82H87.3224L84.6495 156.55H83.2935V159.295H84.8428V160.82H80.2393V159.295H81.6505V152.293H80.2393V150.768H85.0406C85.7326 150.768 86.2515 150.803 86.5972 150.872C86.9518 150.945 87.2912 151.079 87.6004 151.267C88.3666 151.766 88.7494 152.542 88.7488 153.596C88.7586 154.032 88.6687 154.463 88.486 154.858C88.3142 155.215 88.0579 155.524 87.7394 155.76C87.3653 156.026 86.9544 156.236 86.5196 156.384Z" fill="black"/>
<path fill-rule="evenodd" clip-rule="evenodd" d="M73.7757 153.222L72.4749 156.203H75.007L73.7757 153.222ZM74.4947 150.768L78.079 159.295H79.0475V160.82H74.7442V159.295H76.3354L75.6574 157.741H71.8521L71.2159 159.295H72.6682V160.82H68.3916V159.295H69.4011L72.4178 152.293H70.1067V150.768H74.4947Z" fill="black"/>
<path fill-rule="evenodd" clip-rule="evenodd" d="M58.3623 150.768H65.9444V152.294H63.039V159.295H65.9444V160.82H58.3623V159.295H61.3925V152.294H58.3623V150.768Z" fill="black"/>
<path fill-rule="evenodd" clip-rule="evenodd" d="M49.6178 152.294V159.295H53.6859V155.953H55.2762V160.82H46.2695V159.295H47.9713V152.294H46.2695V150.768H51.7071V152.294H49.6178Z" fill="black"/>
<path fill-rule="evenodd" clip-rule="evenodd" d="M38.1607 152.294V159.295H42.2289V155.953H43.8201V160.82H34.8125V159.295H36.5142V152.294H34.8125V150.768H40.25V152.294H38.1607Z" fill="black"/>
<path fill-rule="evenodd" clip-rule="evenodd" d="M23.9922 150.768H31.5752V152.294H28.6688V159.295H31.5752V160.82H23.9922V159.295H27.0223V152.294H23.9922V150.768Z" fill="black"/>
<path fill-rule="evenodd" clip-rule="evenodd" d="M14.8597 159.295H16.7004C17.2292 159.306 17.7578 159.262 18.2774 159.163C18.6736 159.075 18.9572 158.926 19.1283 158.716C19.2993 158.506 19.3855 158.218 19.3866 157.852C19.3866 157.288 19.1906 156.893 18.7986 156.667C18.4066 156.44 17.7078 156.327 16.7022 156.326H14.8614V159.294L14.8597 159.295ZM14.8597 152.293V154.844H16.8198C18.1028 154.844 18.744 154.41 18.7434 153.541C18.7434 152.708 18.1022 152.291 16.8198 152.291L14.8597 152.293ZM19.5363 155.469C20.0106 155.699 20.4161 156.05 20.7124 156.487C20.9851 156.915 21.1249 157.414 21.1142 157.922C21.1122 158.41 20.9756 158.887 20.7195 159.302C20.4708 159.727 20.1094 160.075 19.6753 160.306C19.3155 160.51 18.9238 160.65 18.5171 160.722C18.1292 160.788 17.5296 160.82 16.7182 160.82H11.8179V159.295H13.215V152.293H11.8135V150.768H16.8358C17.8503 150.768 18.7036 150.992 19.3956 151.44C20.0875 151.889 20.4335 152.589 20.4335 153.541C20.4353 154.346 20.1362 154.988 19.5363 155.469Z" fill="black"/>
<path fill-rule="evenodd" clip-rule="evenodd" d="M150.378 155.815C150.373 155.59 150.415 155.367 150.502 155.16C150.589 154.954 150.719 154.768 150.884 154.615C151.199 154.305 151.625 154.133 152.067 154.137C152.513 154.131 152.943 154.303 153.263 154.615C153.428 154.768 153.558 154.954 153.645 155.16C153.732 155.367 153.774 155.59 153.769 155.815C153.768 156.036 153.722 156.254 153.634 156.457C153.547 156.66 153.418 156.842 153.257 156.993C153.104 157.156 152.919 157.285 152.715 157.373C152.51 157.461 152.29 157.506 152.067 157.506C151.846 157.505 151.628 157.46 151.426 157.371C151.224 157.283 151.041 157.155 150.891 156.993C150.73 156.842 150.601 156.66 150.513 156.457C150.425 156.255 150.379 156.036 150.378 155.815Z" fill="black"/>
<path fill-rule="evenodd" clip-rule="evenodd" d="M129.994 153.222L128.694 156.203H131.226L129.994 153.222ZM130.713 150.768L134.298 159.295H135.266V160.82H130.963V159.295H132.554L131.876 157.741H128.071L127.435 159.295H128.887V160.82H124.61V159.295H125.62L128.637 152.293H126.325V150.768H130.713Z" fill="black"/>
<path fill-rule="evenodd" clip-rule="evenodd" d="M139.544 155.038H141.288C142.016 155.038 142.538 154.932 142.851 154.719C143.165 154.507 143.322 154.15 143.322 153.648C143.322 153.158 143.16 152.809 142.837 152.602C142.514 152.395 141.997 152.291 141.288 152.289H139.544V155.035V155.038ZM142.768 156.384C142.953 156.622 143.216 157.005 143.557 157.534C143.898 158.063 144.281 158.65 144.705 159.295H146.366V160.82H143.571L140.898 156.55H139.542V159.295H141.092V160.82H136.484V159.295H137.896V152.293H136.484V150.768H141.286C141.978 150.768 142.497 150.803 142.842 150.872C143.197 150.945 143.536 151.079 143.845 151.267C144.611 151.766 144.993 152.542 144.994 153.596C145.002 154.032 144.911 154.463 144.727 154.858C144.555 155.215 144.298 155.524 143.979 155.76C143.608 156.025 143.2 156.236 142.768 156.384Z" fill="black"/>
<path fill-rule="evenodd" clip-rule="evenodd" d="M117.95 159.295H119.791C120.32 159.306 120.848 159.262 121.368 159.163C121.764 159.075 122.048 158.926 122.219 158.716C122.389 158.506 122.473 158.218 122.471 157.852C122.471 157.288 122.275 156.893 121.883 156.667C121.491 156.44 120.792 156.327 119.787 156.326H117.946V159.294L117.95 159.295ZM117.95 152.293V154.844H119.91C121.193 154.844 121.834 154.41 121.834 153.541C121.834 152.708 121.192 152.291 119.91 152.291L117.95 152.293ZM122.627 155.469C123.101 155.699 123.506 156.05 123.803 156.487C124.075 156.915 124.215 157.414 124.204 157.922C124.202 158.41 124.066 158.887 123.81 159.302C123.561 159.727 123.2 160.075 122.766 160.306C122.406 160.51 122.014 160.65 121.607 160.722C121.22 160.788 120.62 160.82 119.808 160.82H114.908V159.295H116.305V152.293H114.908V150.768H119.931C120.945 150.768 121.798 150.992 122.49 151.44C123.182 151.889 123.528 152.589 123.528 153.541C123.527 154.346 123.227 154.988 122.627 155.469Z" fill="black"/>
<path fill-rule="evenodd" clip-rule="evenodd" d="M100.05 130.688V129.931H93.6715C93.6287 132.023 93.4479 133.502 93.1289 134.368C92.6822 135.595 91.9169 136.209 90.8329 136.208C88.9405 136.208 87.9943 134.449 87.9943 130.931C87.9943 128.893 88.3664 127.387 89.1107 126.412C88.3658 125.555 87.9937 124.283 87.9943 122.597C87.9943 121.091 88.217 119.846 88.6634 118.881C89.1098 117.916 89.7798 117.429 90.6734 117.429C92.4803 117.429 93.3837 119.611 93.3837 123.977H99.1277V112.666H94.28C94.28 113.424 94.2587 113.875 94.2159 114.019C92.6638 112.54 91.0797 111.8 89.4635 111.8C87.8181 111.78 86.221 112.356 84.9668 113.424C83.4575 114.686 82.4582 116.562 81.9687 119.052C81.7983 119.954 81.6548 120.712 81.5384 121.325C81.422 121.939 81.3329 122.426 81.2711 122.786C80.9522 124.446 80.463 125.673 79.8037 126.467C80.463 127.08 80.9625 128.397 81.3023 130.417C81.7703 133.303 82.1214 135.035 82.3554 135.613C83.2695 138.211 85.0981 140.086 87.8411 141.237C88.4148 141.49 89.2651 141.616 90.3919 141.617C92.6032 141.617 94.5595 141.009 96.2606 139.795C98.791 137.918 100.056 134.883 100.056 130.689L100.05 130.688ZM120.685 140.808V128.793H115.837V132.798C115.837 133.917 115.497 134.783 114.817 135.396C114.3 135.887 113.615 136.158 112.903 136.154C112.711 136.156 112.519 136.147 112.328 136.127C112.208 136.116 112.091 136.089 111.978 136.046V128.848C111.978 128.523 112.148 128.072 112.488 127.495C112.871 126.845 113.147 126.502 113.317 126.467C112.658 125.889 112.242 125.095 112.07 124.085C112.006 123.724 111.975 122.858 111.975 121.487C111.975 119.684 112.038 118.583 112.165 118.184C112.378 117.534 113.006 117.209 114.047 117.209H114.525C114.718 117.211 114.91 117.23 115.1 117.263V112.663H101.896V117.263H104.034C104.843 117.263 105.247 118.111 105.247 119.807V120.186C105.246 120.349 105.235 120.511 105.215 120.673V121.376C105.215 121.555 105.225 121.816 105.247 122.161C105.268 122.506 105.279 122.767 105.278 122.946C105.278 124.425 104.853 125.597 104.003 126.464C104.64 126.897 105.023 127.745 105.151 129.007C105.193 129.368 105.215 130.288 105.215 131.768L105.247 132.309V133.283C105.247 135.231 104.907 136.205 104.226 136.206H101.898V140.805L120.685 140.808ZM144.414 117.266V112.666H135.415V117.266C136.521 117.121 137.19 117.446 137.424 118.24C137.488 118.529 137.52 119.576 137.52 121.379C137.52 123.038 137.509 123.922 137.488 124.031C137.34 125.15 136.946 125.925 136.308 126.358C136.968 127.01 137.385 127.87 137.488 128.793C137.509 128.902 137.52 129.624 137.52 130.958C137.53 131.772 137.482 132.586 137.377 133.394C137.28 134.043 137.121 134.558 136.898 134.936C136.692 135.299 136.372 135.585 135.989 135.748C135.607 135.91 135.128 135.991 134.554 135.991C133.426 135.991 132.724 135.775 132.449 135.342C132.067 134.765 131.876 133.43 131.875 131.338C131.875 129.822 131.886 129.01 131.907 128.902C132.056 127.784 132.449 126.936 133.087 126.358C132.463 125.701 132.052 124.871 131.907 123.977C131.886 123.798 131.875 122.932 131.875 121.379C131.875 120.585 131.88 119.972 131.891 119.539C131.902 119.106 131.917 118.818 131.938 118.673C132.087 117.661 132.576 117.155 133.406 117.155C133.513 117.155 133.619 117.164 133.725 117.182C133.843 117.203 133.96 117.23 134.076 117.263V112.663H122.562V117.263C122.732 117.228 122.886 117.2 123.024 117.182C123.167 117.164 123.311 117.155 123.455 117.155C124.306 117.155 124.827 117.606 125.017 118.508C125.06 118.797 125.081 119.735 125.081 121.323C125.081 122.874 125.071 123.739 125.049 123.92C124.879 125.002 124.486 125.832 123.87 126.41C124.04 126.482 124.285 126.843 124.603 127.492C124.921 128.142 125.081 128.611 125.081 128.899V135.176C125.081 137.81 126.198 139.632 128.431 140.643C129.856 141.291 131.61 141.616 133.693 141.617C138.945 141.617 141.571 139.325 141.57 134.743V128.843C141.57 128.518 141.719 128.049 142.016 127.436C142.356 126.786 142.611 126.444 142.781 126.408C142.207 125.867 141.835 125.073 141.665 124.027C141.601 123.666 141.57 122.818 141.57 121.483C141.57 119.535 141.644 118.416 141.792 118.128C142.111 117.515 142.983 117.226 144.408 117.262L144.414 117.266ZM169.385 133.178C168.514 131.121 167.812 129.713 167.281 128.956C166.303 127.549 165.112 126.881 163.709 126.953C163.751 126.918 163.91 126.872 164.187 126.818C164.465 126.765 164.846 126.665 165.335 126.52C166.016 126.377 166.537 126.106 166.898 125.709C167.238 125.348 167.654 124.446 168.145 123.003C168.656 121.634 169.007 120.858 169.198 120.675C168.284 117.79 167.486 115.805 166.806 114.723C165.892 113.354 164.744 112.669 163.362 112.669H146.522V117.27H148.787C149.619 117.27 150.035 118.009 150.035 119.489C150.035 119.705 150.024 120.012 150.002 120.409C149.981 120.805 149.97 121.112 149.97 121.329C149.97 122.772 149.939 123.728 149.875 124.197C149.705 125.351 149.332 126.055 148.759 126.308C149.353 126.741 149.725 127.571 149.875 128.797C149.939 129.302 149.971 130.295 149.97 131.774L150.002 132.315V133.289C150.002 135.237 149.662 136.211 148.982 136.212H146.526V140.811H164.167C164.784 140.811 165.496 140.451 166.305 139.729C167.114 138.971 167.698 138.159 168.06 137.294C168.23 136.826 168.453 135.888 168.73 134.48C168.792 133.981 169.029 133.521 169.399 133.181L169.385 133.178ZM161.38 120.757C161.394 121.556 161.219 122.347 160.87 123.066C160.53 123.742 160.105 124.085 159.595 124.085H156.756V117.645H159.403C159.892 117.645 160.344 117.961 160.759 118.583C161.179 119.229 161.396 119.986 161.383 120.757H161.38ZM161.38 132.798C161.38 133.773 161.194 134.576 160.822 135.209C160.45 135.841 159.977 136.156 159.403 136.156H156.756V129.499H159.595C160.063 129.499 160.478 129.851 160.842 130.555C161.199 131.248 161.384 132.018 161.38 132.798Z" fill="black"/>
<path fill-rule="evenodd" clip-rule="evenodd" d="M73.7351 135.114C72.8281 129.222 69.9788 124.222 65.2665 120.245C64.7907 119.765 64.715 119.268 65.0393 118.768L65.663 117.846L66.3873 116.775C66.7606 116.225 66.9682 115.907 66.8978 115.781C66.8355 115.67 66.5602 115.681 66.0612 115.704C65.8554 115.713 65.6006 115.723 65.3092 115.728C64.8148 115.735 64.3149 115.764 63.8312 115.79C63.5585 115.806 63.2761 115.822 62.999 115.834H62.974L62.9919 115.817C63.6494 115.17 64.3283 114.501 65.0241 113.807C65.1694 113.661 65.2986 113.539 65.4126 113.429C65.6585 113.195 65.8207 113.04 65.7931 112.983C65.7654 112.926 65.4456 112.972 64.7987 113.109C62.9277 113.507 61.5494 114.367 60.572 115.739V115.745H60.5667C60.0668 115.668 60.0561 115.553 60.0089 115.069C59.9956 114.939 59.9795 114.777 59.951 114.582C59.8976 114.22 59.8435 113.859 59.7889 113.497L59.7318 113.11C59.7051 112.932 59.6837 112.78 59.665 112.643C59.5189 111.579 59.5189 111.579 58.5959 111.613C58.3749 111.621 58.1005 111.632 57.7592 111.63L53.2626 111.607C50.1014 111.592 46.8334 111.576 43.6643 111.557H43.282C42.6753 111.549 42.3706 111.544 42.2084 111.688C42.0463 111.832 42.0302 112.143 42.0151 112.721V112.73H6.59583L4.54662 111.212C4.43525 111.134 4.34882 111.067 4.27933 111.013C3.97996 110.784 3.94878 110.76 3.38837 110.77L1.53251 110.808C1.45411 110.808 1.39083 110.808 1.34005 110.808C1.23937 110.808 1.18413 110.808 1.16186 110.828C1.13958 110.849 1.13691 110.918 1.13958 111.037C1.13958 111.069 1.13958 111.105 1.13958 111.146C1.13958 111.325 1.13959 111.621 1.14493 111.93C1.14493 112.216 1.14494 112.514 1.15028 112.747V112.755H1.14315C0.824817 112.816 0.537682 112.987 0.33104 113.237C0.124398 113.487 0.0111486 113.801 0.0107422 114.126V116.508C0.0112137 116.878 0.158174 117.233 0.419396 117.495C0.680619 117.757 1.03477 117.904 1.4042 117.904H21.0053V118.782C21.0052 118.84 21.0152 118.898 21.0347 118.952V118.966H19.8115C19.6747 118.966 19.5436 119.021 19.4469 119.118C19.3502 119.214 19.2958 119.346 19.2956 119.483V120.376C19.2958 120.513 19.3502 120.644 19.4469 120.741C19.5436 120.838 19.6747 120.892 19.8115 120.892H41.8939V120.902C41.8868 121.383 41.8805 121.879 41.8752 122.398C41.9509 123.441 42.6628 123.46 43.2901 123.477L50.2119 123.458L50.8926 124.732C49.9322 126.747 49.9366 128.705 50.9051 130.244C51.8976 131.822 53.7882 132.728 56.0914 132.728C58.0515 132.616 59.5421 131.879 60.6353 130.478C60.8705 130.144 61.0879 129.975 61.283 129.975C61.2984 129.974 61.3139 129.974 61.3293 129.975C61.5494 130.007 61.7445 130.264 61.9076 130.74C62.2167 133.111 62.4662 135.9 61.9833 138.634C61.8719 140.003 62.4983 141.154 63.7456 141.874C65.8376 143.078 69.1858 142.828 71.3696 141.303C73.3359 139.939 74.1806 137.737 73.7351 135.114ZM1.61536 111.333H3.65209V111.346L5.51242 112.762L5.26474 113.089L3.49706 111.744H1.61536V111.333ZM0.730645 114.457C0.730645 114.02 1.1387 113.665 1.64031 113.665H40.4399C40.9406 113.665 41.3486 114.022 41.3486 114.457C41.3486 114.891 40.9406 115.249 40.4399 115.249H1.64031C1.13514 115.252 0.727078 114.897 0.727078 114.465L0.730645 114.457ZM1.91561 117.57C1.82699 117.57 1.74202 117.535 1.67936 117.472C1.6167 117.41 1.5815 117.325 1.5815 117.236C1.58173 117.147 1.61705 117.062 1.67968 117C1.74232 116.937 1.82715 116.902 1.91561 116.902H40.7081C40.7964 116.902 40.881 116.937 40.9434 117C41.0058 117.062 41.041 117.147 41.0413 117.236C41.0413 117.324 41.0062 117.409 40.9437 117.472C40.8812 117.535 40.7965 117.57 40.7081 117.57H1.91561ZM41.2301 120.258H20.0191C19.8622 120.258 19.7339 120.16 19.7339 120.042C19.7339 119.923 19.8622 119.826 20.0191 119.826H41.2301C41.3878 119.826 41.5161 119.923 41.5161 120.042C41.5161 120.16 41.3843 120.26 41.2266 120.26L41.2301 120.258ZM61.2411 115.526C61.8648 114.591 62.7647 114.008 63.9942 113.748C64.4548 113.65 64.6125 113.625 64.6384 113.675C64.6642 113.725 64.5733 113.805 64.396 113.974C64.3238 114.041 64.2428 114.12 64.151 114.211C63.7171 114.645 63.285 115.071 62.8662 115.481L62.7201 115.626L61.9236 115.581L61.2367 115.54L61.2411 115.526ZM56.1422 112.597H58.8026V112.627H58.8293V112.637L59.4147 116.334H65.5569V116.611H59.175V116.585L58.5878 112.878H56.1413L56.1422 112.597ZM54.9447 128.666C54.8396 128.823 54.7407 128.964 54.6543 129.087C54.5865 129.183 54.5135 129.287 54.4582 129.372C54.6997 129.257 55.0935 129.03 55.2708 128.925C56.8335 128.023 57.6639 126.313 57.8109 123.699L57.8234 123.473L58.0114 123.598C59.216 124.396 59.935 125.701 59.935 127.088C59.935 129.438 57.9098 131.35 55.4196 131.35C52.9293 131.35 50.9042 129.438 50.9042 127.088C50.9042 124.815 52.7868 122.946 55.1897 122.832L55.5238 122.816L55.3528 122.989C56.2856 124.951 56.1493 126.86 54.9411 128.665L54.9447 128.666ZM55.7386 123.451L56.3622 123.532C56.8451 125.954 56.348 127.907 54.7736 129.095C55.1095 128.313 56.7872 126.762 55.8 123.605L55.7386 123.451ZM59.3603 120.505C59.2336 120.804 59.158 121.123 59.1367 121.447C59.1068 121.89 59.131 122.336 59.2088 122.773L59.2436 122.986L58.8186 123.056L58.7839 122.843C58.6057 121.734 58.6948 120.833 59.0511 120.165C59.3073 119.687 59.717 119.309 60.2138 119.094C60.3911 119.014 60.5751 118.951 60.7636 118.905C61.4071 118.761 62.0715 118.737 62.7237 118.835C62.9527 118.863 63.1799 118.903 63.399 118.952C63.4988 118.975 63.5826 118.994 63.6663 119.019L63.8721 119.079L63.7519 119.493L63.5451 119.433C63.4658 119.41 63.383 119.391 63.3055 119.373C63.0988 119.327 62.885 119.29 62.6693 119.262C62.0687 119.172 61.4566 119.192 60.8634 119.323C60.6999 119.364 60.5404 119.418 60.3867 119.487C59.9279 119.683 59.5601 120.046 59.3568 120.502L59.3603 120.505ZM43.0557 122.45V112.042H53.1788C53.6467 112.039 54.1127 112.101 54.5634 112.227C54.3952 112.18 54.2245 112.143 54.052 112.115C55.7332 112.396 56.8727 113.49 57.4643 114.866C57.4492 114.83 57.435 114.791 57.418 114.755C57.4376 114.797 57.4537 114.844 57.4724 114.883V114.891C57.5347 115.04 57.5935 115.19 57.6443 115.348C57.8445 115.966 57.9456 116.613 57.9437 117.263C57.9459 117.91 57.8454 118.553 57.6461 119.169C57.455 119.773 57.1528 120.337 56.7551 120.83C55.89 121.891 54.6525 122.45 53.1762 122.45H43.0557ZM60.629 129.517L60.4847 129.665C59.9225 130.25 59.2967 130.771 58.619 131.217C57.9438 131.668 57.1872 131.982 56.3916 132.141C56.1103 132.193 55.825 132.219 55.539 132.22C55.2723 132.22 55.006 132.196 54.7434 132.15C54.1988 132.052 53.6742 131.864 53.1913 131.593C52.4079 131.145 51.7177 130.551 51.1581 129.842C50.9496 129.584 50.5603 128.794 50.4454 128.433L50.8463 128.375C50.8757 128.682 51.3221 129.392 51.5457 129.662C52.078 130.317 52.7315 130.862 53.4702 131.269C54.3548 131.754 55.3818 131.912 56.3711 131.715C57.6185 131.471 58.9024 130.681 60.1898 129.367L60.335 129.218L60.6299 129.508L60.629 129.517ZM71.7937 137.862C71.4004 138.86 70.7231 139.72 69.846 140.336C69.1233 140.839 68.2747 141.129 67.3959 141.175C67.3193 141.178 67.2426 141.18 67.166 141.18C66.2936 141.173 65.4381 140.938 64.6847 140.497C62.9919 139.536 63.0685 138.801 63.2039 137.462C63.2638 136.95 63.2954 136.435 63.2984 135.919C63.2832 131.671 62.4911 127.974 60.9453 124.938C60.8144 124.68 60.695 124.467 60.5889 124.279C60.1934 123.572 59.976 123.184 60.0419 121.986C60.0954 121.017 60.4535 120.387 61.1048 120.111C62.255 119.627 64.0521 120.401 65.1596 121.374C66.9976 122.989 68.6441 125.138 69.9218 127.589C71.0631 129.775 71.8632 132.123 72.175 134.195C72.363 135.495 72.2311 136.761 71.7865 137.859L71.7937 137.862Z" fill="black"/>
<path fill-rule="evenodd" clip-rule="evenodd" d="M57.7048 118.955C57.6968 118.981 57.6888 119.007 57.6816 119.033C57.6888 119.007 57.6977 118.981 57.7048 118.955Z" fill="black"/>
<path fill-rule="evenodd" clip-rule="evenodd" d="M57.765 118.725C57.7596 118.747 57.7543 118.769 57.748 118.792C57.7543 118.769 57.7596 118.75 57.765 118.725Z" fill="black"/>
<path fill-rule="evenodd" clip-rule="evenodd" d="M57.6529 115.389C57.6529 115.373 57.644 115.358 57.6387 115.344C57.644 115.357 57.6485 115.373 57.6529 115.389Z" fill="black"/>
<path fill-rule="evenodd" clip-rule="evenodd" d="M45.5311 112.54C45.1159 112.541 44.7181 112.707 44.4246 113.001C44.1311 113.295 43.9658 113.694 43.9648 114.11C43.9658 114.526 44.1311 114.925 44.4246 115.219C44.7181 115.514 45.1159 115.679 45.5311 115.681H52.5305C52.9459 115.68 53.344 115.514 53.6377 115.22C53.9314 114.925 54.0968 114.526 54.0977 114.11C54.0968 113.694 53.9314 113.295 53.6377 113.001C53.344 112.707 52.9459 112.541 52.5305 112.54H45.5311ZM45.5311 112.797H52.5305C52.8777 112.798 53.2103 112.937 53.4557 113.183C53.7011 113.429 53.8393 113.762 53.8402 114.11C53.8393 114.458 53.701 114.791 53.4556 115.037C53.2102 115.283 52.8776 115.422 52.5305 115.423H45.5329C45.1859 115.422 44.8533 115.283 44.6079 115.037C44.3624 114.791 44.2242 114.458 44.2232 114.11C44.2242 113.763 44.3622 113.43 44.6072 113.184C44.8522 112.938 45.1843 112.799 45.5311 112.797Z" fill="black"/>
<path d="M53.119 114.1H44.9409C44.7918 114.1 44.6709 114.221 44.6709 114.371V114.372C44.6709 114.521 44.7918 114.642 44.9409 114.642H53.119C53.2681 114.642 53.3889 114.521 53.3889 114.372V114.371C53.3889 114.221 53.2681 114.1 53.119 114.1Z" fill="black"/>
<path d="M53.119 117.137H44.9409C44.7918 117.137 44.6709 117.258 44.6709 117.407V117.408C44.6709 117.557 44.7918 117.679 44.9409 117.679H53.119C53.2681 117.679 53.3889 117.557 53.3889 117.408V117.407C53.3889 117.258 53.2681 117.137 53.119 117.137Z" fill="black"/>
<path fill-rule="evenodd" clip-rule="evenodd" d="M54.0941 117.081C54.0762 116.677 53.9036 116.295 53.6121 116.015C53.3206 115.734 52.9326 115.577 52.5286 115.576H45.531C45.127 115.577 44.7391 115.734 44.4476 116.015C44.1561 116.295 43.9835 116.677 43.9656 117.081H43.5264V122.1H53.0151C55.4697 122.1 57.4788 120.037 57.4788 117.514V117.081H54.0941ZM52.5286 121.456H45.531C45.1839 121.455 44.8513 121.316 44.6059 121.07C44.3605 120.824 44.2223 120.49 44.2213 120.142C44.2225 119.795 44.3609 119.462 44.6062 119.216C44.8516 118.97 45.184 118.831 45.531 118.83H52.5304C52.8775 118.831 53.2101 118.97 53.4555 119.216C53.7009 119.461 53.8392 119.795 53.8401 120.142C53.8392 120.49 53.7009 120.824 53.4556 121.07C53.2102 121.316 52.8776 121.455 52.5304 121.456H52.5286ZM52.5286 118.459H45.531C45.1839 118.458 44.8513 118.319 44.6059 118.073C44.3605 117.827 44.2223 117.493 44.2213 117.146C44.2225 116.798 44.3609 116.465 44.6062 116.219C44.8516 115.973 45.184 115.834 45.531 115.833H52.5304C52.8775 115.834 53.2101 115.973 53.4555 116.219C53.7009 116.464 53.8392 116.798 53.8401 117.146C53.8394 117.493 53.7012 117.827 53.4558 118.073C53.2104 118.319 52.8776 118.458 52.5304 118.459H52.5286Z" fill="black"/>
<path d="M53.119 120.133H44.9409C44.7918 120.133 44.6709 120.254 44.6709 120.403V120.404C44.6709 120.553 44.7918 120.675 44.9409 120.675H53.119C53.2681 120.675 53.3889 120.553 53.3889 120.404V120.403C53.3889 120.254 53.2681 120.133 53.119 120.133Z" fill="black"/>
<path fill-rule="evenodd" clip-rule="evenodd" d="M61.9638 124.599C61.9024 125.72 62.1688 125.87 62.6338 126.785C63.8277 129.134 64.3685 131.874 64.3792 134.936C64.3855 136.737 63.7556 137.36 65.4047 138.323C68.2612 139.99 71.5194 137.596 70.9501 133.66C70.4992 130.536 68.7414 126.773 65.7487 124.152C64.4933 123.052 62.0903 122.321 61.9638 124.599Z" fill="black"/>
<path fill-rule="evenodd" clip-rule="evenodd" d="M192.184 118.058C192.184 118.071 192.189 118.083 192.191 118.095C192.189 118.083 192.186 118.071 192.184 118.058Z" fill="black"/>
<path fill-rule="evenodd" clip-rule="evenodd" d="M196.038 111.664L196.165 111.646C196.122 111.652 196.08 111.657 196.038 111.664Z" fill="black"/>
<path fill-rule="evenodd" clip-rule="evenodd" d="M192.517 114.488C192.494 114.544 192.471 114.601 192.448 114.659C192.47 114.601 192.494 114.544 192.517 114.488Z" fill="black"/>
<path fill-rule="evenodd" clip-rule="evenodd" d="M176.268 134.677C177.175 128.785 180.024 123.781 184.738 119.809C185.213 119.328 185.289 118.831 184.964 118.331L184.34 117.41C184.098 117.053 183.856 116.696 183.615 116.338C183.243 115.789 183.035 115.471 183.105 115.344C183.168 115.232 183.442 115.245 183.942 115.266C184.147 115.275 184.402 115.287 184.694 115.29C185.188 115.298 185.688 115.326 186.172 115.354C186.445 115.369 186.727 115.385 187.004 115.398H187.029L187.011 115.38C186.353 114.733 185.675 114.065 184.979 113.369C184.834 113.224 184.705 113.101 184.59 112.992C184.344 112.758 184.182 112.603 184.21 112.546C184.239 112.489 184.558 112.535 185.204 112.673C187.075 113.071 188.453 113.932 189.43 115.304H189.437C189.935 115.227 189.947 115.112 189.994 114.629C190.007 114.499 190.023 114.336 190.052 114.141C190.106 113.779 190.159 113.417 190.213 113.056L190.271 112.669C190.297 112.491 190.319 112.34 190.337 112.202C190.484 111.138 190.484 111.138 191.406 111.173C191.627 111.181 191.902 111.191 192.242 111.189L196.74 111.167C199.9 111.151 203.168 111.135 206.338 111.117H206.719C207.326 111.109 207.631 111.104 207.793 111.249C207.955 111.394 207.971 111.703 207.987 112.281V112.291H243.407L245.45 110.773C245.562 110.694 245.648 110.628 245.718 110.574C246.017 110.345 246.048 110.32 246.609 110.331L248.464 110.369C248.542 110.369 248.605 110.369 248.657 110.369C248.757 110.369 248.812 110.369 248.835 110.39C248.858 110.412 248.86 110.479 248.858 110.599C248.858 110.631 248.858 110.667 248.858 110.707C248.858 110.886 248.858 111.183 248.852 111.491C248.852 111.777 248.852 112.075 248.847 112.309V112.317H248.855C249.173 112.378 249.46 112.548 249.667 112.799C249.873 113.049 249.987 113.363 249.987 113.688V116.072C249.987 116.442 249.84 116.797 249.578 117.058C249.317 117.32 248.963 117.467 248.594 117.468H228.993V118.345C228.993 118.404 228.983 118.462 228.963 118.517V118.529H230.187C230.324 118.53 230.455 118.584 230.552 118.681C230.648 118.778 230.702 118.909 230.702 119.046V119.939C230.702 120.076 230.648 120.207 230.552 120.304C230.455 120.401 230.324 120.456 230.187 120.456H208.115V120.465C208.121 120.946 208.127 121.447 208.133 121.96C208.057 123.004 207.346 123.023 206.718 123.039L199.796 123.021V123.026L199.115 124.299C200.076 126.314 200.071 128.271 199.103 129.811C198.109 131.389 196.219 132.295 193.916 132.295C191.956 132.182 190.465 131.446 189.368 130.045C189.133 129.711 188.915 129.541 188.721 129.541C188.705 129.54 188.69 129.54 188.674 129.541C188.454 129.573 188.26 129.83 188.096 130.306C187.787 132.676 187.538 135.466 188.02 138.199C188.131 139.57 187.506 140.72 186.258 141.439C184.167 142.644 180.817 142.393 178.634 140.869C176.665 139.503 175.824 137.301 176.268 134.677ZM248.389 110.894H246.351V110.907L244.491 112.322L244.739 112.65L246.507 111.304H248.389V110.894ZM249.273 114.018C249.273 113.581 248.865 113.225 248.364 113.225H209.564C209.063 113.225 208.655 113.583 208.655 114.018C208.655 114.454 209.063 114.811 209.564 114.811H248.364C248.865 114.816 249.273 114.465 249.273 114.024V114.018ZM248.089 117.131C248.177 117.131 248.261 117.096 248.324 117.033C248.386 116.971 248.421 116.886 248.422 116.797C248.422 116.709 248.387 116.624 248.324 116.561C248.262 116.499 248.177 116.463 248.089 116.463H209.296C209.252 116.463 209.209 116.472 209.168 116.489C209.128 116.505 209.091 116.53 209.06 116.561C209.029 116.592 209.004 116.629 208.987 116.669C208.971 116.71 208.962 116.753 208.962 116.797C208.962 116.886 208.998 116.971 209.06 117.033C209.123 117.096 209.208 117.131 209.296 117.131H248.089ZM208.773 119.821H229.984C230.142 119.821 230.27 119.725 230.27 119.606C230.27 119.487 230.142 119.39 229.984 119.39H208.773C208.615 119.39 208.487 119.487 208.487 119.606C208.487 119.725 208.615 119.821 208.773 119.821ZM188.762 115.09C188.138 114.155 187.239 113.572 186.009 113.311C185.548 113.214 185.391 113.19 185.365 113.24C185.339 113.29 185.431 113.368 185.608 113.537C185.679 113.606 185.761 113.683 185.853 113.775C186.286 114.209 186.719 114.634 187.137 115.046L187.284 115.189L188.081 115.143L188.768 115.104L188.762 115.09ZM193.862 112.161H191.201V112.192H191.175V112.201L190.589 115.898H184.448V116.175H190.829V116.149L191.416 112.443H193.864L193.862 112.161ZM195.059 128.231C195.164 128.387 195.263 128.529 195.35 128.652C195.418 128.749 195.49 128.851 195.546 128.936C195.304 128.822 194.911 128.594 194.733 128.49C193.171 127.587 192.339 125.877 192.193 123.264L192.181 123.038L191.992 123.162C190.788 123.961 190.068 125.265 190.068 126.652C190.068 129.002 192.094 130.913 194.584 130.913C197.073 130.913 199.099 129.002 199.099 126.652C199.099 124.379 197.217 122.51 194.814 122.396L194.479 122.38L194.651 122.552C193.714 124.515 193.851 126.427 195.059 128.228V128.231ZM194.266 123.016L193.642 123.097C193.159 125.519 193.657 127.471 195.231 128.66C194.895 127.877 193.218 126.327 194.204 123.17L194.266 123.016ZM190.643 120.07C190.77 120.369 190.846 120.687 190.867 121.011C190.897 121.455 190.873 121.9 190.794 122.338L190.761 122.551L191.185 122.62L191.219 122.407C191.398 121.299 191.308 120.398 190.952 119.729C190.696 119.25 190.286 118.873 189.788 118.658C189.611 118.578 189.427 118.515 189.239 118.469C188.673 118.328 188.012 118.304 187.279 118.398C187.05 118.428 186.822 118.467 186.604 118.516C186.504 118.538 186.42 118.559 186.337 118.583L186.13 118.644L186.251 119.057L186.457 118.997C186.537 118.974 186.619 118.954 186.698 118.937C186.904 118.891 187.117 118.853 187.333 118.826C188.017 118.736 188.625 118.759 189.14 118.887C189.303 118.928 189.463 118.982 189.617 119.051C190.074 119.248 190.44 119.611 190.643 120.067V120.07ZM206.952 122.015V111.608H196.828C196.36 111.603 195.893 111.663 195.441 111.786C195.609 111.74 195.78 111.702 195.953 111.674C194.271 111.955 193.132 113.049 192.54 114.426C192.556 114.389 192.57 114.351 192.587 114.314C192.567 114.357 192.55 114.403 192.533 114.443V114.451C192.469 114.598 192.411 114.75 192.36 114.906C192.16 115.525 192.059 116.172 192.061 116.822C192.059 117.469 192.159 118.113 192.358 118.728C192.55 119.333 192.852 119.896 193.249 120.39C194.114 121.449 195.352 122.01 196.827 122.01L206.952 122.015ZM189.382 129.079L189.526 129.225C190.088 129.811 190.714 130.332 191.391 130.779C192.067 131.229 192.823 131.543 193.619 131.703C193.9 131.754 194.186 131.78 194.472 131.78C194.739 131.78 195.005 131.757 195.267 131.712C195.812 131.613 196.336 131.425 196.82 131.155C197.603 130.706 198.293 130.112 198.853 129.404C199.062 129.146 199.45 128.356 199.566 127.994L199.166 127.936C199.137 128.241 198.691 128.952 198.466 129.222C197.934 129.876 197.281 130.422 196.543 130.829C195.658 131.313 194.631 131.471 193.641 131.275C192.394 131.03 191.11 130.24 189.823 128.926L189.678 128.778L189.383 129.067L189.382 129.079ZM178.218 137.423C178.611 138.422 179.288 139.282 180.165 139.897C180.888 140.399 181.737 140.69 182.615 140.736C182.692 140.736 182.768 140.742 182.844 140.742C183.717 140.735 184.572 140.499 185.326 140.058C187.018 139.097 186.943 138.362 186.806 137.023C186.748 136.51 186.719 135.995 186.717 135.479C186.732 131.232 187.519 127.534 189.069 124.498C189.2 124.24 189.321 124.026 189.426 123.838C189.821 123.132 190.04 122.743 189.973 121.546C189.919 120.577 189.562 119.947 188.911 119.671C187.761 119.187 185.963 119.96 184.855 120.933C183.017 122.549 181.371 124.698 180.093 127.148C178.953 129.335 178.153 131.682 177.84 133.754C177.637 135.059 177.769 136.325 178.214 137.423H178.218Z" fill="black"/>
<path fill-rule="evenodd" clip-rule="evenodd" d="M192.366 118.75C192.374 118.774 192.383 118.797 192.391 118.821C192.383 118.796 192.374 118.773 192.366 118.75Z" fill="black"/>
<path fill-rule="evenodd" clip-rule="evenodd" d="M192.233 118.289C192.239 118.311 192.245 118.334 192.25 118.356C192.247 118.334 192.241 118.311 192.233 118.289Z" fill="black"/>
<path fill-rule="evenodd" clip-rule="evenodd" d="M192.538 119.203C192.538 119.21 192.544 119.217 192.547 119.224C192.544 119.217 192.541 119.21 192.538 119.203Z" fill="black"/>
<path fill-rule="evenodd" clip-rule="evenodd" d="M204.468 112.104C204.883 112.105 205.281 112.271 205.575 112.565C205.869 112.859 206.034 113.258 206.035 113.674C206.034 114.09 205.869 114.489 205.575 114.783C205.282 115.077 204.884 115.243 204.468 115.244H197.471C197.056 115.243 196.658 115.077 196.364 114.783C196.071 114.489 195.905 114.09 195.904 113.674C195.905 113.258 196.071 112.859 196.365 112.565C196.658 112.271 197.056 112.105 197.471 112.104H204.468ZM204.468 112.361H197.471C197.124 112.362 196.792 112.501 196.546 112.747C196.301 112.993 196.162 113.326 196.161 113.674C196.162 114.022 196.3 114.355 196.546 114.601C196.791 114.847 197.124 114.986 197.471 114.987H204.468C204.815 114.986 205.148 114.847 205.393 114.601C205.639 114.355 205.777 114.021 205.778 113.674C205.777 113.326 205.639 112.993 205.393 112.747C205.148 112.501 204.815 112.362 204.468 112.361Z" fill="black"/>
<path d="M205.059 113.664H196.881C196.732 113.664 196.611 113.785 196.611 113.934V113.935C196.611 114.085 196.732 114.206 196.881 114.206H205.059C205.209 114.206 205.329 114.085 205.329 113.935V113.934C205.329 113.785 205.209 113.664 205.059 113.664Z" fill="black"/>
<path d="M205.059 116.7H196.881C196.732 116.7 196.611 116.821 196.611 116.971V116.971C196.611 117.121 196.732 117.242 196.881 117.242H205.059C205.209 117.242 205.329 117.121 205.329 116.971V116.971C205.329 116.821 205.209 116.7 205.059 116.7Z" fill="black"/>
<path fill-rule="evenodd" clip-rule="evenodd" d="M195.906 116.645C195.924 116.24 196.096 115.858 196.388 115.578C196.679 115.297 197.068 115.141 197.472 115.14H204.468C204.872 115.141 205.26 115.298 205.552 115.578C205.843 115.858 206.016 116.24 206.034 116.645H206.474V121.665H196.984C194.53 121.665 192.521 119.601 192.521 117.079V116.645H195.906ZM197.472 121.019H204.468C204.815 121.018 205.148 120.88 205.393 120.634C205.639 120.388 205.777 120.055 205.778 119.707C205.777 119.359 205.639 119.026 205.393 118.78C205.148 118.534 204.815 118.395 204.468 118.394H197.472C197.125 118.395 196.792 118.534 196.546 118.78C196.301 119.026 196.162 119.359 196.161 119.707C196.162 120.055 196.301 120.388 196.546 120.634C196.792 120.88 197.125 121.018 197.472 121.019ZM197.472 118.023H204.468C204.816 118.022 205.148 117.883 205.393 117.637C205.639 117.391 205.777 117.058 205.778 116.71C205.777 116.362 205.639 116.029 205.393 115.783C205.148 115.537 204.815 115.398 204.468 115.398H197.472C197.125 115.398 196.792 115.537 196.546 115.783C196.301 116.029 196.162 116.362 196.161 116.71C196.162 117.058 196.3 117.391 196.546 117.637C196.792 117.883 197.124 118.022 197.472 118.023Z" fill="black"/>
<path d="M205.059 119.697H196.881C196.732 119.697 196.611 119.818 196.611 119.968V119.968C196.611 120.118 196.732 120.239 196.881 120.239H205.059C205.209 120.239 205.329 120.118 205.329 119.968V119.968C205.329 119.818 205.209 119.697 205.059 119.697Z" fill="black"/>
<path fill-rule="evenodd" clip-rule="evenodd" d="M188.036 124.163C188.098 125.284 187.831 125.434 187.367 126.35C186.173 128.698 185.632 131.438 185.621 134.5C185.614 136.3 186.244 136.924 184.596 137.888C181.739 139.554 178.48 137.16 179.05 133.224C179.501 130.099 181.258 126.337 184.251 123.715C185.507 122.615 187.91 121.888 188.036 124.163Z" fill="black"/>
</g>
<defs>
<clipPath id="clip0_570_891">
<rect width="250" height="161" fill="white"/>
</clipPath>
</defs>
</svg>
