<svg width="138" height="40" viewBox="0 0 138 40" fill="none" xmlns="http://www.w3.org/2000/svg">
<path d="M0.282227 39.082V0H20.3784C25.0007 0 28.9189 0.740291 32.1328 2.22087C35.3467 3.6834 37.7933 5.84108 39.4725 8.69391C41.1517 11.5467 41.9913 15.0586 41.9913 19.2295V19.2837C41.9913 23.5088 41.1427 27.1019 39.4454 30.063C37.7662 33.0061 35.3197 35.2451 32.1057 36.7798C28.8918 38.3146 24.9827 39.082 20.3784 39.082H0.282227ZM13.0116 29.4672H19.1867C21.2993 29.4672 23.0868 29.1061 24.5493 28.3838C26.0119 27.6616 27.1223 26.5602 27.8806 25.0796C28.639 23.581 29.0182 21.6851 29.0182 19.392V19.3378C29.0182 17.2253 28.639 15.4468 27.8806 14.0023C27.1404 12.5579 26.0389 11.4655 24.5764 10.7252C23.1139 9.9849 21.3173 9.61476 19.1867 9.61476H13.0116V29.4672Z" fill="#FFBA0D"/>
<path d="M48 39.082V0H68.0962C72.7185 0 76.6366 0.740291 79.8506 2.22087C83.0645 3.6834 85.5111 5.84108 87.1903 8.69391C88.8695 11.5467 89.7091 15.0586 89.7091 19.2295V19.2837C89.7091 23.5088 88.8605 27.1019 87.1632 30.063C85.484 33.0061 83.0374 35.2451 79.8235 36.7798C76.6095 38.3146 72.7004 39.082 68.0962 39.082H48ZM60.7294 29.4672H66.9045C69.017 29.4672 70.8046 29.1061 72.2671 28.3838C73.7296 27.6616 74.8401 26.5602 75.5984 25.0796C76.3568 23.581 76.7359 21.6851 76.7359 19.392V19.3378C76.7359 17.2253 76.3568 15.4468 75.5984 14.0023C74.8581 12.5579 73.7567 11.4655 72.2942 10.7252C70.8317 9.9849 69.0351 9.61476 66.9045 9.61476H60.7294V29.4672Z" fill="#FFBA0D"/>
<path d="M95.9521 39.082V0H116.048C120.671 0 124.589 0.740291 127.803 2.22087C131.017 3.6834 133.463 5.84108 135.142 8.69391C136.822 11.5467 137.661 15.0586 137.661 19.2295V19.2837C137.661 23.5088 136.813 27.1019 135.115 30.063C133.436 33.0061 130.99 35.2451 127.776 36.7798C124.562 38.3146 120.653 39.082 116.048 39.082H95.9521ZM108.682 29.4672H114.857C116.969 29.4672 118.757 29.1061 120.219 28.3838C121.682 27.6616 122.792 26.5602 123.551 25.0796C124.309 23.581 124.688 21.6851 124.688 19.392V19.3378C124.688 17.2253 124.309 15.4468 123.551 14.0023C122.81 12.5579 121.709 11.4655 120.246 10.7252C118.784 9.9849 116.987 9.61476 114.857 9.61476H108.682V29.4672Z" fill="#FFBA0D"/>
</svg>
