<svg width="1140" height="262" viewBox="0 0 1140 262" fill="none" xmlns="http://www.w3.org/2000/svg">
<g clip-path="url(#clip0_576_30)">
<rect width="1140" height="262" fill="url(#paint0_radial_576_30)"/>
<g clip-path="url(#clip1_576_30)">
<path d="M489 49H488V50V212V213H489H651H652V212V50V49H651H489Z" fill="#1380D1" stroke="white" stroke-width="2"/>
<path d="M561.78 160.404C573.643 163.444 585.625 159.999 594.024 152.304C588.084 149.368 581.359 146.864 574.111 145.006C561.495 141.777 549.353 141.033 539.342 142.411C541.581 146.838 544.743 150.734 548.613 153.837C552.483 156.941 556.973 159.18 561.78 160.404Z" fill="#ED6C7D"/>
<path d="M528.603 82.5256L518.258 122.918C510.258 154.15 524.691 178.521 555.923 186.52C587.155 194.519 611.529 180.089 619.531 148.855L629.874 108.463L528.603 82.5256ZM563.336 158.312C547.396 154.228 537.576 138.467 540.6 122.526L600.473 137.862C595.46 153.295 579.278 162.393 563.336 158.312Z" fill="#FFBA0D"/>
<path d="M568.995 91.503C568.354 94.008 566.984 96.2665 565.059 97.9929C563.134 99.7193 560.74 100.836 558.18 101.202C555.62 101.568 553.009 101.166 550.678 100.048C548.346 98.9303 546.398 97.146 545.081 94.921C543.764 92.696 543.135 90.1303 543.276 87.5483C543.417 84.9663 544.32 82.4841 545.872 80.4155C547.423 78.347 549.554 76.785 551.993 75.9271C554.432 75.0692 557.071 74.954 559.576 75.596C561.239 76.0218 562.802 76.7711 564.175 77.8011C565.549 78.831 566.706 80.1214 567.58 81.5985C568.455 83.0757 569.03 84.7106 569.273 86.4101C569.516 88.1095 569.421 89.8401 568.995 91.503Z" fill="black"/>
<path d="M616.486 103.665C615.845 106.17 614.475 108.429 612.551 110.155C610.626 111.882 608.232 112.998 605.672 113.364C603.113 113.731 600.502 113.329 598.17 112.212C595.839 111.094 593.891 109.31 592.573 107.085C591.255 104.86 590.627 102.295 590.767 99.7129C590.908 97.131 591.811 94.6487 593.362 92.58C594.913 90.5112 597.043 88.9489 599.482 88.0906C601.921 87.2323 604.56 87.1166 607.065 87.7581C608.728 88.1833 610.292 88.9322 611.665 89.9619C613.039 90.9916 614.197 92.282 615.072 93.7593C615.947 95.2365 616.522 96.8717 616.765 98.5714C617.008 100.271 616.913 102.002 616.486 103.665Z" fill="black"/>
</g>
<rect x="486" y="47" width="168" height="168" rx="43.5" stroke="white" stroke-width="6"/>
<path d="M788 245.075L857.549 70L947.573 105.763C968.28 113.988 984.514 124.277 996.277 136.629C1008.07 148.9 1015.19 162.92 1017.64 178.688C1020.08 194.456 1017.59 211.682 1010.17 230.367L1010.08 230.609C1002.56 249.536 992.361 264.122 979.488 274.367C966.728 284.563 951.784 290.238 934.655 291.394C917.527 292.55 898.65 289.031 878.024 280.837L788 245.075ZM862.133 224.657L889.796 235.646C899.259 239.405 907.91 240.968 915.747 240.336C923.583 239.703 930.518 236.745 936.55 231.462C942.614 226.098 947.686 218.28 951.767 208.008L951.863 207.765C955.623 198.302 957.089 189.66 956.263 181.839C955.517 174.051 952.527 167.198 947.293 161.279C942.058 155.36 934.669 150.505 925.125 146.713L897.462 135.724L862.133 224.657Z" fill="#FFBA0D"/>
<path d="M213.919 161.511L128 12.6947L204.522 -31.4855C222.123 -41.6473 238.67 -47.4422 254.163 -48.8701C269.616 -50.3667 283.676 -47.5293 296.342 -40.3579C309.008 -33.1865 319.925 -21.6598 329.095 -5.77783L329.214 -5.57158C338.502 10.5167 343.17 26.0642 343.217 41.071C343.294 55.9694 338.9 69.8734 330.036 82.7831C321.172 95.6928 307.974 107.209 290.441 117.331L213.919 161.511ZM241.253 96.9152L264.766 83.3396C272.81 78.6953 278.823 73.3905 282.804 67.4251C286.786 61.4597 288.593 54.8245 288.225 47.5196C287.818 40.1459 285.094 32.0932 280.053 23.3616L279.934 23.1553C275.289 15.1112 269.936 9.17259 263.873 5.33951C257.878 1.46674 251.283 -0.271453 244.086 0.124931C236.89 0.521321 229.235 3.0615 221.122 7.74547L197.608 21.3211L241.253 96.9152Z" fill="#FFBA0D"/>
</g>
<defs>
<radialGradient id="paint0_radial_576_30" cx="0" cy="0" r="1" gradientUnits="userSpaceOnUse" gradientTransform="translate(570 131) scale(570 900.344)">
<stop stop-color="#062135"/>
<stop offset="1" stop-color="#12619B"/>
</radialGradient>
<clipPath id="clip0_576_30">
<rect width="1140" height="262" fill="white"/>
</clipPath>
<clipPath id="clip1_576_30">
<rect x="489" y="50" width="162" height="162" rx="40.5" fill="white"/>
</clipPath>
</defs>
</svg>
