<svg width="345" height="216" viewBox="0 0 345 216" fill="none" xmlns="http://www.w3.org/2000/svg">
<g clip-path="url(#clip0_645_30)">
<rect x="-5" width="355" height="216" fill="url(#paint0_radial_645_30)"/>
<g clip-path="url(#clip1_645_30)">
<path d="M231.5 49H113.5V167H231.5V49Z" fill="#1380D1"/>
<path d="M166.513 129.418C175.153 131.632 183.882 129.123 189.999 123.518C185.672 121.379 180.774 119.555 175.495 118.202C166.305 115.85 157.461 115.308 150.169 116.312C151.8 119.536 154.103 122.374 156.922 124.635C159.741 126.895 163.011 128.526 166.513 129.418Z" fill="#ED6C7D"/>
<path d="M142.346 72.6915L134.811 102.113C128.984 124.862 139.497 142.614 162.246 148.441C184.996 154.267 202.75 143.756 208.578 121.006L216.112 91.5842L142.346 72.6915ZM167.646 127.894C156.035 124.919 148.883 113.439 151.085 101.828L194.696 112.998C191.045 124.24 179.258 130.866 167.646 127.894Z" fill="#FFBA0D"/>
<path d="M171.768 79.2306C171.301 81.0552 170.303 82.7003 168.901 83.9578C167.499 85.2153 165.755 86.0287 163.89 86.2952C162.026 86.5617 160.124 86.2693 158.426 85.455C156.728 84.6406 155.309 83.3409 154.349 81.7202C153.39 80.0996 152.932 78.2307 153.035 76.35C153.137 74.4693 153.795 72.6613 154.925 71.1545C156.055 69.6478 157.607 68.51 159.384 67.8852C161.161 67.2603 163.083 67.1764 164.907 67.644C166.119 67.9542 167.257 68.5 168.257 69.2502C169.258 70.0004 170.101 70.9403 170.738 72.0162C171.375 73.0922 171.794 74.2831 171.971 75.5209C172.147 76.7588 172.079 78.0193 171.768 79.2306Z" fill="black"/>
<path d="M206.36 88.0894C205.893 89.914 204.895 91.5591 203.493 92.8166C202.091 94.0742 200.348 94.8877 198.483 95.1544C196.619 95.421 194.717 95.1288 193.019 94.3147C191.32 93.5005 189.901 92.201 188.942 90.5805C187.982 88.96 187.524 87.0913 187.626 85.2106C187.729 83.33 188.386 81.5219 189.516 80.015C190.646 78.5082 192.197 77.3702 193.974 76.745C195.751 76.1198 197.673 76.0355 199.497 76.5028C200.709 76.8125 201.848 77.358 202.848 78.1081C203.849 78.8581 204.692 79.798 205.33 80.874C205.967 81.9501 206.386 83.1411 206.563 84.3792C206.74 85.6172 206.671 86.878 206.36 88.0894Z" fill="black"/>
</g>
<rect x="111.042" y="46.5417" width="122.917" height="122.917" rx="31.9583" stroke="white" stroke-width="4.91667"/>
<path d="M235.5 220.895L268.828 137L311.968 154.137C321.89 158.079 329.67 163.009 335.306 168.929C340.958 174.809 344.37 181.527 345.542 189.083C346.714 196.639 345.521 204.894 341.965 213.847L341.918 213.963C338.315 223.033 333.43 230.023 327.261 234.932C321.147 239.818 313.985 242.537 305.777 243.091C297.569 243.645 288.523 241.959 278.64 238.033L235.5 220.895ZM271.025 211.111L284.281 216.377C288.816 218.178 292.961 218.927 296.716 218.624C300.472 218.321 303.795 216.904 306.685 214.372C309.591 211.802 312.022 208.055 313.977 203.133L314.023 203.017C315.825 198.482 316.528 194.341 316.131 190.593C315.774 186.861 314.341 183.577 311.833 180.74C309.325 177.904 305.784 175.578 301.21 173.761L287.955 168.495L271.025 211.111Z" fill="#FFBA0D"/>
<path d="M35.6363 78.3487L-9.5 0.170403L30.6998 -23.039C39.9461 -28.3773 48.6388 -31.4216 56.7778 -32.1717C64.896 -32.9579 72.282 -31.4674 78.9358 -27.7C85.5896 -23.9326 91.325 -17.8772 96.142 -9.53387L96.2046 -9.42552C101.084 -0.973805 103.536 7.19386 103.561 15.0775C103.601 22.9041 101.293 30.2084 96.6363 36.9903C91.9797 43.7721 85.0463 49.8219 75.8361 55.1394L35.6363 78.3487ZM49.9956 44.4143L62.3481 37.2826C66.5739 34.8428 69.7326 32.056 71.8241 28.9222C73.9155 25.7883 74.8648 22.3026 74.6718 18.4651C74.458 14.5915 73.0269 10.3611 70.3786 5.77407L70.316 5.66571C67.8762 1.43986 65.0637 -1.6799 61.8785 -3.69355C58.7294 -5.72805 55.2646 -6.64118 51.484 -6.43294C47.7035 -6.22471 43.6822 -4.89026 39.4202 -2.42961L27.0677 4.70211L49.9956 44.4143Z" fill="#FFBA0D"/>
</g>
<defs>
<radialGradient id="paint0_radial_645_30" cx="0" cy="0" r="1" gradientUnits="userSpaceOnUse" gradientTransform="translate(172.5 108) scale(283 283)">
<stop stop-color="#062135"/>
<stop offset="1" stop-color="#12619B"/>
</radialGradient>
<clipPath id="clip0_645_30">
<rect width="345" height="216" fill="white"/>
</clipPath>
<clipPath id="clip1_645_30">
<rect x="113.5" y="49" width="118" height="118" rx="29.5" fill="white"/>
</clipPath>
</defs>
</svg>
