<svg width="322" height="131" viewBox="0 0 322 131" fill="none" xmlns="http://www.w3.org/2000/svg">
<g clip-path="url(#clip0_565_87)">
<path fill-rule="evenodd" clip-rule="evenodd" d="M203.645 90.6356H191.219V89.2109C192.52 88.6897 193.868 88.2946 195.245 88.031V58.907C193.845 58.7211 192.485 58.3066 191.219 57.68V56.2554H203.645V57.68C203.078 57.9779 202.486 58.2247 201.875 58.4175C201.247 58.6156 200.608 58.779 199.961 58.907V71.7258H215.382V58.907C214.695 58.7438 214.049 58.5639 213.442 58.3673C212.848 58.1741 212.267 57.9446 211.701 57.68V56.2554H224.124V57.68C223.513 58.0158 222.861 58.2711 222.185 58.4394C221.482 58.6214 220.786 58.7773 220.098 58.907V88.031C220.827 88.157 221.549 88.3214 222.26 88.5237C222.899 88.7019 223.522 88.9317 224.124 89.2109V90.6356H211.701V89.2109C212.882 88.6865 214.116 88.2909 215.382 88.031V74.2802H199.961V88.031C200.608 88.16 201.247 88.3245 201.875 88.5237C202.48 88.7133 203.071 88.9429 203.645 89.2109V90.6356Z" fill="black"/>
<path fill-rule="evenodd" clip-rule="evenodd" d="M230.485 78.3439C230.477 79.7469 230.617 81.1469 230.902 82.5206C231.142 83.7266 231.591 84.8812 232.23 85.9317C232.821 86.8886 233.646 87.6792 234.627 88.2287C235.713 88.8114 236.932 89.0992 238.164 89.0634C239.929 89.0634 241.378 88.1963 242.51 86.462C243.642 84.7277 244.206 82.0259 244.204 78.3565C244.213 76.9461 244.073 75.5388 243.787 74.1578C243.546 72.963 243.106 71.8173 242.485 70.7687C241.927 69.8359 241.152 69.0521 240.225 68.4842C239.227 67.9063 238.087 67.6174 236.934 67.6495C235.005 67.6495 233.45 68.5177 232.27 70.2541C231.091 71.9905 230.495 74.6871 230.485 78.3439ZM225.778 78.3439C225.747 76.4867 226.02 74.6369 226.588 72.8681C227.071 71.3764 227.866 70.0042 228.919 68.842C229.936 67.7428 231.186 66.8851 232.578 66.3316C234.087 65.7463 235.695 65.4565 237.313 65.478C239.11 65.4383 240.896 65.7584 242.566 66.4194C243.967 66.9871 245.207 67.8888 246.178 69.046C247.141 70.2372 247.844 71.6174 248.24 73.0971C248.699 74.8076 248.922 76.573 248.902 78.3439C248.902 82.4694 247.856 85.6451 245.764 87.871C243.672 90.0969 240.856 91.2109 237.316 91.213C235.57 91.2526 233.833 90.9432 232.208 90.3029C230.821 89.7365 229.59 88.8442 228.621 87.7015C227.637 86.503 226.91 85.1142 226.487 83.6221C225.993 81.907 225.752 80.1288 225.772 78.3439H225.778Z" fill="black"/>
<path fill-rule="evenodd" clip-rule="evenodd" d="M253.283 80.9108C253.283 78.8502 253.332 76.8283 253.43 74.845C253.528 72.8618 253.578 70.889 253.578 68.9267L250.336 68.5345V67.2573C251.382 66.8661 252.454 66.5219 253.552 66.2249C254.651 65.9278 255.723 65.6789 256.769 65.478H257.996C257.996 67.9361 257.947 70.3754 257.848 72.7959C257.75 75.2164 257.701 77.6222 257.701 80.0134C257.692 81.1678 257.767 82.3214 257.924 83.4652C258.032 84.3564 258.298 85.2212 258.708 86.0195C259.063 86.6862 259.6 87.2388 260.255 87.6137C261.028 88.0199 261.894 88.2147 262.766 88.1785C263.461 88.1926 264.152 88.0576 264.791 87.7826C265.43 87.5077 266.003 87.0991 266.472 86.5844C267.545 85.3855 268.341 83.9648 268.803 82.4234V68.9299L265.609 68.5376V67.2604C266.646 66.8605 267.704 66.5159 268.778 66.228C269.874 65.933 270.946 65.6872 271.995 65.4906H273.225V87.8396L276.466 88.2318V89.2642C275.525 89.6879 274.558 90.0644 273.595 90.3939C272.611 90.7247 271.6 90.9703 270.573 91.1282H269.346L269.001 85.2852H268.806C268.622 86.0186 268.332 86.7215 267.947 87.372C267.522 88.094 266.983 88.7417 266.349 89.2894C265.682 89.8688 264.928 90.341 264.115 90.6889C263.252 91.0532 262.324 91.2369 261.388 91.2287C260.221 91.2465 259.057 91.0888 257.936 90.7611C256.955 90.4614 256.079 89.8915 255.407 89.1168C254.651 88.1925 254.115 87.1088 253.838 85.9474C253.435 84.2997 253.249 82.6066 253.283 80.9108Z" fill="black"/>
<path fill-rule="evenodd" clip-rule="evenodd" d="M291.394 85.0373C291.414 84.1782 291.106 83.3436 290.534 82.7027C289.888 82.0068 289.149 81.4037 288.337 80.9108C287.454 80.3564 286.513 79.8157 285.513 79.2885C284.514 78.7681 283.569 78.1523 282.689 77.4496C281.823 76.7699 281.08 75.9474 280.492 75.0176C279.89 73.9922 279.592 72.8169 279.632 71.6286C279.629 70.7695 279.845 69.9237 280.26 69.1715C280.668 68.4185 281.228 67.7582 281.904 67.2322C282.628 66.6727 283.442 66.2407 284.311 65.955C285.261 65.6384 286.256 65.4805 287.258 65.4874C288.712 65.4657 290.166 65.5644 291.604 65.7824C292.715 65.975 293.809 66.2541 294.877 66.6171C294.745 67.6652 294.591 68.7228 294.409 69.7865C294.221 70.8895 293.967 71.9803 293.65 73.0532H292.423L290.54 68.0324C290.116 67.8621 289.668 67.7563 289.213 67.7186C288.707 67.6676 288.199 67.6425 287.691 67.6433C287.158 67.6294 286.629 67.7367 286.144 67.9571C285.721 68.1562 285.338 68.4305 285.014 68.7667C284.704 69.0924 284.462 69.4764 284.302 69.8964C284.142 70.3034 284.059 70.7364 284.057 71.1735C284.041 72.0169 284.349 72.8343 284.917 73.458C285.559 74.1505 286.299 74.7456 287.113 75.2247C287.998 75.7645 288.94 76.2969 289.938 76.822C290.922 77.3384 291.867 77.929 292.762 78.5887C293.622 79.2158 294.365 79.9891 294.958 80.8732C295.548 81.8045 295.848 82.8903 295.818 83.9924C295.835 85.0351 295.59 86.0654 295.106 86.9892C294.624 87.8769 293.954 88.6482 293.141 89.2486C292.264 89.8912 291.283 90.3804 290.242 90.6952C289.101 91.0517 287.913 91.2305 286.718 91.2255C285.416 91.2349 284.116 91.1108 282.839 90.8552C281.588 90.59 280.357 90.2377 279.155 89.8009C279.216 88.6534 279.363 87.5121 279.595 86.3867C279.818 85.3124 280.113 84.2546 280.48 83.2204H281.71L283.894 88.5739C284.276 88.8427 284.729 88.9952 285.196 89.0132C285.704 89.0477 286.169 89.0634 286.596 89.0634C288.035 89.0634 289.197 88.6701 290.082 87.8835C290.497 87.5354 290.83 87.0997 291.057 86.6076C291.284 86.1154 291.399 85.5792 291.394 85.0373Z" fill="black"/>
<path fill-rule="evenodd" clip-rule="evenodd" d="M312.412 67.6495C310.544 67.6495 309.12 68.2771 308.139 69.5323C307.157 70.7876 306.568 73.0051 306.372 76.1849H317.176C317.207 75.8931 317.233 75.6044 317.251 75.3283C317.27 75.0521 317.276 74.7791 317.276 74.5155C317.276 72.4235 316.883 70.7499 316.097 69.4947C315.31 68.2395 314.082 67.6171 312.412 67.6276V67.6495ZM321.4 87.1963C321.102 87.7977 320.685 88.3317 320.173 88.7653C319.592 89.2725 318.947 89.7019 318.255 90.0425C317.505 90.4122 316.715 90.6984 315.902 90.896C315.051 91.1071 314.177 91.2125 313.301 91.2098C311.555 91.2436 309.819 90.9344 308.192 90.2998C306.776 89.7358 305.513 88.8443 304.508 87.6984C303.499 86.523 302.738 85.1556 302.27 83.6786C301.738 81.9514 301.48 80.1511 301.508 78.3439C301.508 74.1599 302.474 70.9675 304.407 68.7667C306.34 66.5659 309.075 65.4696 312.61 65.478C313.755 65.4784 314.894 65.6357 315.996 65.9456C317.085 66.2441 318.099 66.7715 318.968 67.4926C319.883 68.2759 320.606 69.2595 321.08 70.3671C321.663 71.7738 321.94 73.2885 321.892 74.8105C321.892 75.3691 321.867 75.9339 321.817 76.505C321.763 77.1225 321.673 77.7364 321.55 78.3439H306.224C306.215 79.6472 306.388 80.9453 306.739 82.2005C307.051 83.3295 307.576 84.3884 308.286 85.3197C308.981 86.2077 309.872 86.9221 310.891 87.4065C312.045 87.9366 313.305 88.1963 314.575 88.1659C315.754 88.1612 316.926 87.9965 318.061 87.6764C319.029 87.4541 319.935 87.0177 320.713 86.3992L321.4 87.1963Z" fill="black"/>
<path fill-rule="evenodd" clip-rule="evenodd" d="M0.0945705 57.0053C0.580964 57.0807 0.992045 57.1497 1.32781 57.2062C1.66358 57.2627 1.95542 57.338 2.24412 57.407C2.53281 57.476 2.81838 57.5796 3.13532 57.6926C3.80416 57.9435 4.37421 58.4035 4.76081 59.0043C5.22455 59.7176 5.58482 60.4931 5.83088 61.3076C6.18547 62.249 6.59656 63.4603 7.08609 64.9226C7.57562 66.3849 8.09026 68.001 8.6551 69.7802C9.21994 71.5595 9.78165 73.4015 10.3653 75.3251C10.949 77.2487 11.5044 79.1504 12.041 81.0238C12.5776 82.8972 13.0734 84.667 13.5222 86.3208C13.9709 87.9745 14.3349 89.4274 14.6205 90.6795C14.8945 90.6257 15.1729 90.5973 15.4521 90.5948C15.7878 90.5759 16.1518 90.5665 16.5347 90.5759C16.9175 90.5853 17.2784 90.5759 17.6142 90.6042C17.9499 90.6324 18.2167 90.6512 18.4081 90.6795C18.7616 89.5519 19.1915 88.2391 19.6978 86.7413C20.2041 85.2434 20.7585 83.6461 21.361 81.9495C21.9635 80.2571 22.5785 78.5489 23.2061 76.8251C23.8337 75.0961 24.4425 73.4423 25.023 71.8545C25.6036 70.2666 26.1339 68.8326 26.6109 67.5617C26.6546 67.5281 26.7033 67.5016 26.7552 67.4832C26.8211 67.4832 26.8682 67.4832 26.8996 67.502C27.2134 68.2206 27.5868 69.1872 28.045 70.3827C28.5031 71.5783 29.0115 72.9151 29.5575 74.3963C30.1035 75.8774 30.6558 77.4025 31.2363 78.9715C31.8169 80.5405 32.366 82.1095 32.8901 83.6001C33.4141 85.0907 33.9036 86.4683 34.3241 87.7015C34.7446 88.9347 35.0804 89.9389 35.3189 90.7234C35.5806 90.672 35.8462 90.6426 36.1128 90.6356C36.4486 90.6167 36.8095 90.6073 37.1923 90.6073C37.5751 90.6073 37.9391 90.6073 38.2843 90.6261C38.6295 90.645 38.8962 90.645 39.1065 90.6638C39.4987 89.44 39.9381 88.0373 40.4433 86.4494C40.9485 84.8616 41.4851 83.1608 42.0688 81.3627C42.6525 79.5646 43.2455 77.7194 43.8575 75.8429C44.4694 73.9664 45.0813 72.1432 45.6838 70.3451C46.2863 68.547 46.8605 66.865 47.416 65.2897C47.9714 63.7144 48.4672 62.3243 48.916 61.1193C49.1345 60.5167 49.4065 59.9349 49.7287 59.3808C49.9667 58.9652 50.2733 58.5927 50.6356 58.2794C50.9785 57.9964 51.3668 57.7736 51.7841 57.6204C52.136 57.4904 52.4968 57.3855 52.8636 57.3066C53.2276 57.2313 53.6952 57.1246 54.2506 56.9928C54.3235 56.8135 54.3598 56.6215 54.3573 56.4279C54.37 56.1663 54.3637 55.9041 54.3385 55.6434C54.3374 55.4775 54.3077 55.3129 54.2506 55.157C53.8583 55.157 53.3814 55.1759 52.8165 55.2041C52.2517 55.2324 51.5456 55.2512 50.6952 55.2794C49.8448 55.3077 48.7904 55.3296 47.5384 55.3296C46.5248 55.3296 45.5583 55.3108 44.6514 55.2794C43.7445 55.2481 42.9412 55.2229 42.2225 55.2041C41.5039 55.1853 40.9328 55.157 40.4809 55.157C40.3974 55.2411 40.3473 55.3526 40.3397 55.4708C40.2965 55.6564 40.2702 55.8454 40.2613 56.0357C40.2473 56.2336 40.2546 56.4324 40.2832 56.6288C40.2931 56.7643 40.3421 56.8941 40.4245 57.0022C41.2466 57.1058 41.937 57.2219 42.4893 57.316C43.0154 57.4188 43.5335 57.5593 44.0395 57.7365C44.4895 57.8573 44.8909 58.115 45.188 58.4739C45.4245 58.8171 45.5505 59.2245 45.5489 59.6413C45.5585 60.1603 45.4941 60.6781 45.3574 61.1789C45.2162 61.9258 44.9966 62.9017 44.6796 64.0973C44.3627 65.2929 44.0112 66.6077 43.6001 68.0449C43.1891 69.4821 42.7592 70.9601 42.2979 72.4633C41.8366 73.9664 41.4004 75.3973 40.9705 76.7655C40.5406 78.1337 40.1483 79.3481 39.7937 80.3993C39.7621 80.457 39.7109 80.5015 39.6494 80.5248C39.628 80.5375 39.6036 80.5442 39.5788 80.5442C39.5539 80.5442 39.5295 80.5375 39.5082 80.5248C39.2791 79.9725 38.9715 79.2257 38.5981 78.278C38.2247 77.3303 37.7948 76.2634 37.3272 75.0458C36.8597 73.8283 36.3858 72.5354 35.8555 71.2049C35.3252 69.8744 34.8325 68.478 34.3147 67.1004C33.797 65.7228 33.32 64.4048 32.8618 63.1339C32.4037 61.863 32.002 60.7051 31.638 59.6633C31.274 58.6214 31.0104 57.7491 30.7876 57.0618C30.5271 57.0995 30.16 57.1183 29.6956 57.1371C29.2311 57.156 28.7541 57.1371 28.2803 57.1371C27.8065 57.1371 27.4205 57.0995 27.1161 57.0618C26.8274 58.1225 26.4446 59.3871 25.9958 60.8494C25.5471 62.3117 25.0293 63.8902 24.477 65.5565C23.9247 67.2227 23.3473 68.9298 22.7637 70.6244C22.18 72.3189 21.6089 73.9507 21.0534 75.482C20.498 77.0134 20.0022 78.369 19.544 79.5458C19.4954 79.5956 19.4365 79.6341 19.3715 79.6587C19.3403 79.6675 19.3073 79.6668 19.2766 79.6567C19.2458 79.6467 19.2188 79.6277 19.1989 79.6023C18.8851 78.6075 18.5305 77.459 18.1382 76.1693C17.746 74.8795 17.316 73.5019 16.883 72.049C16.45 70.5961 16.0044 69.1213 15.565 67.6307C15.1257 66.1401 14.7052 64.7061 14.3098 63.3096C13.9144 61.9132 13.5536 60.6329 13.2366 59.4656C13.1423 59.1343 13.1423 58.7833 13.2366 58.452C13.2901 58.289 13.3801 58.1404 13.4997 58.0175C13.6194 57.8946 13.7655 57.8006 13.927 57.7428C14.2971 57.5802 14.6803 57.449 15.0724 57.3505C15.5336 57.2281 16.0859 57.112 16.7387 56.9991C16.8534 56.8398 16.9168 56.6493 16.9207 56.453C16.9442 56.1889 16.9442 55.9232 16.9207 55.6591C16.9103 55.481 16.8505 55.3094 16.7481 55.1633C16.2585 55.1633 15.7627 55.1633 15.2638 55.1916L13.6383 55.248L11.5546 55.3045C10.7607 55.3265 9.81617 55.3359 8.73041 55.3359C7.70742 55.3359 6.79948 55.3255 6.00661 55.3045L3.84451 55.248C3.2169 55.2292 2.5893 55.201 2.02759 55.1916C1.46589 55.1822 0.882214 55.1633 0.298542 55.1633C0.229505 55.201 0.173021 55.2951 0.12595 55.4771C0.0854181 55.6635 0.0560777 55.8521 0.0380859 56.042C0.0380859 56.2616 0.0380859 56.4625 0.0380859 56.6351C0.0462317 56.7636 0.0759338 56.8898 0.12595 57.0085L0.0945705 57.0053ZM64.0381 58.8882C64.0381 58.6833 64.0223 58.4787 63.991 58.2762C63.9626 58.0262 63.9111 57.7794 63.8373 57.5388C63.772 57.3208 63.6655 57.1173 63.5235 56.9394C63.3039 56.7255 63.0342 56.5701 62.7389 56.4876C62.2519 56.3229 61.7405 56.2423 61.2264 56.2491C60.7402 56.251 60.2559 56.3089 59.7829 56.4217C59.3183 56.5255 58.8645 56.6726 58.4273 56.861C58.0698 57.0058 57.7372 57.2059 57.442 57.4541C57.2876 57.6756 57.1807 57.9267 57.1282 58.1915C57.0691 58.5019 57.0376 58.817 57.034 59.1329C57.0221 59.3954 57.0379 59.6583 57.0811 59.9174C57.209 60.4552 57.4287 60.9669 57.7307 61.43C58.0144 61.8409 58.405 62.1664 58.8604 62.3714C59.1087 62.4744 59.3761 62.5236 59.6449 62.5157C60.0268 62.5338 60.4096 62.5244 60.7902 62.4875C61.1631 62.4524 61.5339 62.3979 61.9011 62.3243C62.1418 62.2835 62.3741 62.2029 62.5883 62.0858C62.8858 61.8317 63.1411 61.5319 63.3446 61.1977C63.5603 60.8421 63.7271 60.4589 63.8404 60.0586C63.9561 59.6737 64.0174 59.2744 64.0224 58.8725L64.0381 58.8882ZM67.4899 88.4327C67.5608 88.612 67.5867 88.8059 67.5652 88.9975C67.5635 89.267 67.5383 89.5358 67.4899 89.8008C67.4613 89.9937 67.3823 90.1755 67.2608 90.328H54.3447L54.2192 89.782C54.1941 89.515 54.1878 89.2466 54.2004 88.9787C54.1953 88.7866 54.2454 88.5971 54.3447 88.4327C54.8029 88.3762 55.2046 88.3197 55.5654 88.2507C55.9107 88.1837 56.2505 88.0914 56.5821 87.9745C56.7474 87.9214 56.8994 87.8334 57.0277 87.7165C57.156 87.5995 57.2577 87.4564 57.3259 87.2967C57.4871 86.8123 57.5646 86.304 57.5549 85.7936C57.5738 85.4609 57.5832 84.9997 57.5957 84.4191C57.6083 83.8386 57.624 83.1639 57.6334 82.4484C57.6428 81.733 57.6522 80.9673 57.6616 80.1922C57.671 79.4171 57.6616 78.6609 57.6616 77.936C57.6616 77.2111 57.6616 76.5772 57.6616 75.9088C57.6616 75.2404 57.6428 74.6065 57.6334 74.026C57.624 73.4454 57.6146 73.003 57.6146 72.6484C57.614 72.4025 57.5813 72.1578 57.5173 71.9204C57.4509 71.6773 57.3259 71.4543 57.1533 71.2708C56.9115 70.9981 56.6196 70.7743 56.2934 70.6118C55.7925 70.3568 55.2745 70.1366 54.7433 69.9528C54.677 69.792 54.648 69.6182 54.6585 69.4445C54.665 69.2137 54.6902 68.9839 54.7338 68.7572C54.7598 68.589 54.8219 68.4284 54.9159 68.2865C55.4767 68.2715 56.0361 68.2244 56.5916 68.1453C57.3259 68.048 58.1606 67.9257 59.0675 67.7531C59.9743 67.5805 60.875 67.3796 61.7724 67.1506C62.5818 66.9502 63.3774 66.6975 64.1542 66.3943C64.1542 67.2165 64.1542 68.1736 64.1354 69.2813C64.1165 70.389 64.1354 71.5469 64.1165 72.7614C64.0977 73.9758 64.0946 75.1337 64.0946 76.2634V79.4548C64.0946 80.575 64.0946 81.6828 64.1165 82.7654C64.1385 83.848 64.1354 84.8396 64.1542 85.7277C64.1441 86.1231 64.1821 86.5182 64.2672 86.9044C64.3257 87.1616 64.4513 87.3987 64.6312 87.5917C64.8059 87.7587 65.0146 87.8861 65.2431 87.9651C65.5302 88.0621 65.8238 88.1386 66.1217 88.1942C66.4669 88.2632 66.9157 88.3385 67.4805 88.4232L67.4899 88.4327ZM70.1007 88.4327C70.0297 88.6063 69.9904 88.7912 69.9846 88.9787C69.9658 89.2336 69.9658 89.4895 69.9846 89.7443L70.1007 90.328H82.7219C82.8184 90.1573 82.8772 89.9679 82.8945 89.7726C82.932 89.5128 82.9509 89.2506 82.951 88.9881C82.9595 88.8012 82.9405 88.614 82.8945 88.4327C82.5807 88.395 82.3108 88.3668 82.1006 88.3291C81.8903 88.2914 81.6989 88.2726 81.5263 88.2318C81.3537 88.191 81.1811 88.1471 81.0023 88.0906C80.7621 88.0332 80.5366 87.9263 80.3401 87.7768C80.155 87.6228 80.0214 87.4159 79.9573 87.1837C79.8523 86.8238 79.7984 86.4509 79.7972 86.076C79.7972 85.3009 79.769 84.372 79.7565 83.302C79.7439 82.2319 79.7565 81.074 79.7376 79.8502C79.7188 78.6263 79.7188 77.4496 79.7188 76.2759C79.7188 75.1023 79.6906 74.0197 79.6811 73.0438C79.6765 72.7923 79.7191 72.5422 79.8067 72.3064C79.8806 72.0956 80.0175 71.9126 80.1989 71.7823C80.5355 71.5449 80.8976 71.346 81.2784 71.1892C81.6553 71.0294 82.0461 70.9044 82.4457 70.8158C82.7999 70.7344 83.1619 70.6923 83.5252 70.6903C84.0546 70.6802 84.5828 70.7447 85.0942 70.8817C85.5547 71.0144 85.9823 71.2421 86.3494 71.5501C86.8211 71.8934 87.2093 72.3385 87.4854 72.8524C87.7451 73.3433 87.9232 73.8732 88.0126 74.4214C88.1076 75.0452 88.1683 75.6737 88.1946 76.3042C88.2406 77.0887 88.2689 77.9496 88.2793 78.8868C88.2982 79.8282 88.3076 80.7696 88.2982 81.711C88.2887 82.6524 88.2982 83.5185 88.2793 84.303C88.2605 85.0875 88.2511 85.7183 88.2417 86.1858C88.2442 86.6166 88.1599 87.0435 87.9938 87.441C87.8361 87.7323 87.5771 87.9556 87.2657 88.0686C87.0649 88.1251 86.8076 88.1816 86.5032 88.2412C86.1988 88.3009 85.8317 88.3542 85.43 88.4107C85.3599 88.5775 85.3247 88.7569 85.3264 88.9379C85.3186 89.2058 85.3249 89.4739 85.3453 89.7412C85.3516 89.9321 85.38 90.1217 85.43 90.3061C86.0137 90.2872 86.5879 90.2558 87.1528 90.237C87.7176 90.2182 88.3484 90.1805 89.0356 90.1617C89.7228 90.1429 90.5764 90.1335 91.546 90.1335C92.7604 90.1335 93.7834 90.1523 94.6087 90.1805C95.434 90.2088 96.0993 90.2276 96.6139 90.2558C97.1286 90.2841 97.5239 90.3061 97.8001 90.3061C97.9206 90.1459 97.9993 89.9582 98.0292 89.76C98.0847 89.5147 98.1163 89.2646 98.1233 89.0132C98.1397 88.8178 98.127 88.6211 98.0857 88.4295C97.5572 88.3631 97.0332 88.2646 96.5166 88.1345C96.0734 88.0072 95.6507 87.8169 95.2614 87.5697C95.1053 87.4721 94.9792 87.333 94.8974 87.168C94.7984 86.9927 94.7455 86.7951 94.7437 86.5938C94.7437 86.1074 94.7154 85.4672 94.7154 84.6639C94.7154 83.8606 94.6966 82.9913 94.6966 82.0154C94.6966 81.0395 94.6966 80.073 94.6966 79.0876V76.3262C94.7167 75.0761 94.6116 73.8273 94.3828 72.5982C94.1862 71.5198 93.7881 70.4882 93.2092 69.5574C92.6045 68.6204 91.7805 67.8449 90.8086 67.2981C89.7603 66.7568 88.5927 66.4881 87.4132 66.5167C86.215 66.5832 85.0447 66.9041 83.9802 67.4581C82.5278 68.1781 81.1596 69.0569 79.9008 70.0784C79.8759 70.0924 79.8478 70.0997 79.8192 70.0997C79.7906 70.0997 79.7625 70.0924 79.7376 70.0784C79.702 70.0655 79.6712 70.0421 79.6494 70.0113C79.6275 69.9804 79.6156 69.9436 79.6152 69.9058C79.6152 69.5731 79.6152 69.1997 79.6341 68.7792C79.6529 68.3587 79.6341 67.9665 79.6529 67.593C79.6717 67.2196 79.6717 66.9152 79.6717 66.6924C79.665 66.6141 79.6391 66.5387 79.5964 66.4728C79.5624 66.4002 79.5093 66.3384 79.4426 66.2939C78.8985 66.5625 78.3401 66.8013 77.7701 67.0094C77.0986 67.2479 76.3643 67.4863 75.5735 67.706C74.7827 67.9257 73.9574 68.139 73.1258 68.3085C72.2942 68.478 71.4627 68.6223 70.6687 68.7008C70.5912 68.8342 70.5361 68.9794 70.5056 69.1307C70.4585 69.3221 70.4208 69.5323 70.3895 69.7426C70.3711 69.9115 70.3711 70.082 70.3895 70.2509C70.9817 70.4523 71.5525 70.7119 72.0934 71.026C72.4088 71.2162 72.6899 71.4581 72.925 71.7415C73.0616 71.9281 73.1559 72.1423 73.2011 72.3691C73.2199 72.6296 73.2388 72.9967 73.2607 73.5082C73.2827 74.0197 73.289 74.55 73.2984 75.1525C73.3078 75.755 73.3172 76.3387 73.3172 76.9036C73.3172 77.6284 73.3172 78.4224 73.3172 79.2728C73.3172 80.1232 73.2984 80.9861 73.289 81.8365C73.2796 82.6869 73.2702 83.4714 73.2482 84.1775C73.2262 84.8835 73.2294 85.4704 73.2105 85.9097C73.1848 86.4049 73.0678 86.8911 72.8653 87.3438C72.7862 87.5241 72.6681 87.6847 72.5194 87.8138C72.3707 87.943 72.1952 88.0375 72.0055 88.0906C71.6729 88.1753 71.356 88.2507 71.0641 88.3103C70.7526 88.3671 70.4384 88.408 70.1227 88.4327H70.1007ZM120.645 83.7884C119.675 84.5518 118.586 85.1507 117.422 85.5614C116.332 85.9282 115.187 86.1064 114.036 86.0885C112.945 86.1087 111.859 85.9301 110.832 85.5614C109.895 85.1992 109.05 84.6345 108.356 83.9076C107.901 83.4452 107.509 82.9251 107.189 82.3606C106.881 81.8011 106.632 81.2111 106.445 80.6001C106.275 80.0334 106.17 79.4491 106.132 78.8585C106.134 78.7306 106.16 78.6041 106.207 78.4851C106.266 78.3627 106.332 78.2937 106.42 78.2843C107.289 78.2466 108.284 78.1996 109.383 78.1431C110.481 78.0866 111.629 78.0081 112.806 77.9328C113.983 77.8575 115.1 77.7508 116.183 77.6535C117.265 77.5563 118.219 77.4433 119.041 77.3397C119.662 77.2645 120.275 77.1428 120.877 76.9757C120.968 76.8633 121.033 76.7327 121.069 76.5929C121.134 76.3826 121.191 76.163 121.238 75.9433C121.276 75.7938 121.29 75.6391 121.279 75.4852C121.067 75.4251 120.867 75.3308 120.686 75.2059C120.535 75.111 120.424 74.9651 120.372 74.7948C120.269 74.0838 120.103 73.3834 119.876 72.7017C119.624 71.9346 119.287 71.1979 118.872 70.5051C118.429 69.7671 117.881 69.097 117.246 68.5156C116.549 67.9002 115.745 67.4174 114.874 67.091C113.833 66.7028 112.728 66.5102 111.617 66.523C110.862 66.5251 110.109 66.6051 109.37 66.7615C108.583 66.9169 107.81 67.134 107.057 67.411C106.331 67.6829 105.631 68.0189 104.964 68.4152C103.922 69.0807 103.002 69.9216 102.247 70.9005C101.43 71.9451 100.8 73.1223 100.383 74.3806C99.9125 75.7864 99.6771 77.2601 99.6861 78.7424C99.6856 79.8953 99.8002 81.0453 100.028 82.1754C100.252 83.2881 100.619 84.3671 101.12 85.3856C101.612 86.3922 102.271 87.3079 103.069 88.0938C103.961 88.9804 105.03 89.6681 106.207 90.1115C108.739 91.0442 111.512 91.0907 114.074 90.2433C115.329 89.8338 116.525 89.262 117.632 88.5425C118.75 87.8164 119.756 86.9304 120.617 85.9128C120.635 85.8469 120.673 85.7026 120.711 85.4923C120.748 85.2821 120.796 85.0436 120.827 84.7831C120.856 84.5679 120.862 84.3502 120.846 84.1336C120.839 84.0544 120.804 83.9801 120.748 83.9233C120.707 83.877 120.663 83.833 120.617 83.7915L120.645 83.7884ZM109.916 68.7572C110.71 68.7578 111.471 69.0699 112.037 69.6265C112.667 70.2635 113.145 71.0349 113.434 71.8827C113.802 72.8922 114.027 73.9486 114.102 75.0207C114.073 75.1311 114.029 75.2367 113.97 75.3345C113.907 75.4293 113.811 75.4974 113.7 75.526C113.366 75.5869 113.027 75.6246 112.687 75.6389C112.229 75.6797 111.714 75.6986 111.118 75.7268C110.522 75.755 109.932 75.755 109.32 75.7645C108.708 75.7739 108.152 75.7645 107.647 75.7645C107.142 75.7645 106.706 75.7645 106.414 75.7456C106.361 75.744 106.31 75.7291 106.264 75.7022C106.218 75.6753 106.18 75.6374 106.154 75.5919C106.109 75.5363 106.08 75.4704 106.069 75.4004C106.071 74.2302 106.247 73.0668 106.593 71.9486C106.848 71.0759 107.307 70.2766 107.933 69.6171C108.188 69.3494 108.494 69.1357 108.833 68.9886C109.172 68.8414 109.537 68.7638 109.907 68.7604L109.916 68.7572Z" fill="black"/>
<path fill-rule="evenodd" clip-rule="evenodd" d="M104.21 118.225C103.925 118.225 103.693 118.225 103.507 118.241C103.337 118.252 103.169 118.276 103.002 118.313V123.594H104.283C104.644 123.612 105.005 123.552 105.34 123.418C105.676 123.283 105.979 123.078 106.228 122.816C106.726 122.253 106.985 121.518 106.95 120.767C106.95 119.898 106.693 119.254 106.184 118.843C105.62 118.409 104.922 118.187 104.21 118.216V118.225ZM103.002 128.948C103.275 129.007 103.536 129.07 103.784 129.133C104.031 129.199 104.274 129.279 104.512 129.374V129.889H99.8359V129.374C100.076 129.263 100.326 129.173 100.583 129.108C100.821 129.048 101.057 128.995 101.295 128.948V118.401C101.018 118.352 100.744 118.284 100.476 118.197C100.263 118.128 100.054 118.048 99.8485 117.958V117.441H101.418C101.891 117.441 102.412 117.419 102.987 117.371C103.561 117.324 104.101 117.299 104.634 117.299C105.184 117.296 105.732 117.361 106.266 117.494C106.74 117.611 107.186 117.825 107.574 118.121C107.946 118.407 108.243 118.779 108.44 119.204C108.661 119.703 108.768 120.244 108.754 120.789C108.784 121.564 108.541 122.324 108.067 122.938C107.585 123.526 106.936 123.953 106.206 124.165C106.714 124.973 107.247 125.773 107.803 126.566C108.36 127.359 108.941 128.147 109.548 128.932L110.515 129.447V129.892H108.353L107.675 129.393C107.342 128.975 107.04 128.569 106.768 128.176C106.495 127.78 106.241 127.376 106.005 126.968C105.77 126.56 105.544 126.142 105.337 125.712C105.13 125.282 104.92 124.846 104.709 124.369H103.034L103.002 128.948Z" fill="black"/>
<path fill-rule="evenodd" clip-rule="evenodd" d="M121.855 117.441C121.855 117.918 121.821 118.382 121.793 118.871C121.764 119.361 121.717 119.835 121.661 120.321H121.197L120.468 118.366H116.593V123.073H119.489L120.183 121.755H120.629C120.701 122.952 120.701 124.152 120.629 125.348H120.183L119.489 123.996H116.593V128.957H120.672L121.545 126.823H121.987C122.072 127.324 122.132 127.829 122.166 128.336C122.201 128.851 122.207 129.367 122.185 129.883H113.427V129.368C113.892 129.162 114.383 129.019 114.886 128.941V118.401C114.639 118.352 114.395 118.291 114.155 118.216C113.907 118.137 113.665 118.052 113.427 117.958V117.441H121.855Z" fill="black"/>
<path fill-rule="evenodd" clip-rule="evenodd" d="M127.52 128.662C127.68 128.817 127.867 128.94 128.072 129.026C128.397 129.143 128.742 129.194 129.086 129.177C129.447 129.179 129.807 129.129 130.153 129.026C130.467 128.935 130.76 128.784 131.016 128.581C131.257 128.388 131.454 128.146 131.593 127.871C131.737 127.579 131.81 127.256 131.807 126.93C131.827 126.49 131.676 126.059 131.386 125.728C131.072 125.388 130.705 125.1 130.3 124.875C129.871 124.627 129.397 124.382 128.888 124.147C128.389 123.914 127.915 123.632 127.473 123.302C127.045 122.979 126.678 122.582 126.39 122.129C126.136 121.665 125.989 121.151 125.96 120.623C125.93 120.095 126.02 119.567 126.221 119.079C126.394 118.693 126.653 118.352 126.977 118.081C127.323 117.801 127.718 117.588 128.141 117.453C128.63 117.3 129.139 117.224 129.651 117.23C130.317 117.225 130.982 117.282 131.637 117.4C132.123 117.48 132.598 117.621 133.049 117.817C133.047 118.052 133.032 118.287 133.005 118.52C132.974 118.787 132.94 119.063 132.899 119.348C132.858 119.634 132.811 119.907 132.764 120.174C132.717 120.441 132.67 120.676 132.623 120.877H132.161L131.449 118.442C131.188 118.335 130.913 118.263 130.633 118.228C130.285 118.179 129.934 118.155 129.582 118.156C129.045 118.131 128.519 118.312 128.11 118.661C127.921 118.843 127.773 119.064 127.678 119.308C127.582 119.552 127.54 119.814 127.555 120.076C127.541 120.526 127.698 120.965 127.994 121.303C128.311 121.656 128.682 121.955 129.092 122.192C129.536 122.455 130.01 122.707 130.514 122.948C131.013 123.186 131.49 123.469 131.939 123.792C132.37 124.103 132.742 124.489 133.037 124.931C133.343 125.42 133.496 125.989 133.476 126.566C133.483 127.068 133.383 127.565 133.181 128.025C132.99 128.459 132.701 128.842 132.337 129.145C131.939 129.47 131.48 129.712 130.988 129.858C130.399 130.031 129.788 130.115 129.174 130.106C128.494 130.115 127.816 130.025 127.162 129.839C126.713 129.726 126.288 129.534 125.907 129.271C125.907 129.067 125.939 128.825 125.97 128.54C126.001 128.254 126.033 127.962 126.077 127.661C126.121 127.36 126.161 127.065 126.208 126.779C126.256 126.494 126.306 126.252 126.353 126.051H126.814L127.52 128.662Z" fill="black"/>
<path fill-rule="evenodd" clip-rule="evenodd" d="M144.126 129.889H139.13V129.374C139.391 129.28 139.654 129.196 139.921 129.123C140.206 129.05 140.494 128.992 140.784 128.948V118.366H138.063L137.122 120.908H136.676C136.642 120.673 136.61 120.403 136.588 120.102C136.566 119.8 136.544 119.49 136.526 119.176C136.507 118.862 136.491 118.548 136.482 118.25C136.472 117.952 136.463 117.679 136.463 117.441H146.793C146.793 117.679 146.793 117.946 146.778 118.241C146.762 118.536 146.749 118.843 146.731 119.157C146.712 119.471 146.696 119.785 146.677 120.083C146.658 120.381 146.633 120.66 146.596 120.908H146.134L145.193 118.366H142.491V128.948C142.805 129.007 143.087 129.064 143.354 129.123C143.619 129.183 143.877 129.267 144.126 129.374V129.889Z" fill="black"/>
<path fill-rule="evenodd" clip-rule="evenodd" d="M152.14 124.768H155.711L154.315 121.002L153.979 119.468H153.945L153.502 121.037L152.14 124.771V124.768ZM152.14 129.889H148.202V129.374C148.612 129.188 149.04 129.045 149.479 128.948L153.979 117.23H154.497L159 128.948C159.239 128.995 159.471 129.048 159.703 129.108C159.931 129.165 160.15 129.255 160.353 129.374V129.889H155.759V129.374C155.997 129.279 156.24 129.196 156.487 129.127C156.734 129.054 156.979 128.995 157.218 128.948L156.013 125.694H151.783L150.615 128.948C151.141 129.025 151.654 129.169 152.144 129.374L152.14 129.889Z" fill="black"/>
<path fill-rule="evenodd" clip-rule="evenodd" d="M161.721 117.441H166.239V117.955C166.014 118.049 165.788 118.134 165.565 118.203C165.342 118.272 165.113 118.341 164.887 118.398V125.65C164.874 126.18 164.943 126.709 165.091 127.219C165.205 127.599 165.409 127.946 165.687 128.229C165.96 128.49 166.293 128.678 166.657 128.778C167.083 128.897 167.523 128.954 167.965 128.948C168.365 128.973 168.765 128.918 169.142 128.786C169.52 128.653 169.867 128.445 170.162 128.176C170.687 127.661 170.949 126.813 170.947 125.631V118.558C170.673 118.464 170.416 118.366 170.181 118.266C169.966 118.173 169.756 118.069 169.553 117.952V117.437H173.341V117.955C173.115 118.084 172.889 118.203 172.657 118.31C172.431 118.415 172.196 118.498 171.954 118.558V125.69C171.965 126.355 171.859 127.017 171.64 127.645C171.461 128.152 171.173 128.614 170.796 128.998C170.423 129.359 169.972 129.629 169.478 129.789C168.923 129.967 168.344 130.054 167.761 130.046C166.28 130.046 165.148 129.711 164.366 129.042C163.584 128.372 163.192 127.344 163.192 125.957V118.401C162.687 118.326 162.195 118.177 161.733 117.958L161.721 117.441Z" fill="black"/>
<path fill-rule="evenodd" clip-rule="evenodd" d="M180.653 118.225C180.371 118.225 180.135 118.225 179.953 118.241C179.782 118.252 179.612 118.276 179.445 118.313V123.594H180.725C181.087 123.613 181.448 123.553 181.785 123.418C182.121 123.284 182.424 123.079 182.674 122.816C183.171 122.252 183.428 121.517 183.392 120.767C183.392 119.898 183.138 119.254 182.63 118.843C182.065 118.409 181.365 118.187 180.653 118.216V118.225ZM179.445 128.948C179.718 129.007 179.978 129.07 180.229 129.133C180.477 129.199 180.72 129.28 180.957 129.374V129.889H176.26V129.374C176.501 129.263 176.752 129.174 177.01 129.108C177.245 129.048 177.484 128.995 177.719 128.948V118.401C177.442 118.351 177.168 118.283 176.9 118.197C176.665 118.122 176.451 118.04 176.272 117.958V117.441H177.841C178.318 117.441 178.836 117.419 179.41 117.372C179.985 117.324 180.524 117.299 181.061 117.299C181.61 117.296 182.157 117.362 182.69 117.494C183.165 117.611 183.612 117.825 184.001 118.122C184.371 118.408 184.667 118.78 184.864 119.204C185.086 119.702 185.193 120.244 185.178 120.789C185.208 121.564 184.965 122.324 184.491 122.938C184.008 123.526 183.358 123.954 182.627 124.165C183.135 124.973 183.669 125.773 184.227 126.566C184.786 127.359 185.366 128.148 185.969 128.932L186.938 129.447V129.892H184.773L184.099 129.393C183.766 128.975 183.464 128.569 183.192 128.176C182.919 127.78 182.664 127.376 182.426 126.968C182.188 126.56 181.968 126.142 181.761 125.712C181.554 125.283 181.343 124.846 181.133 124.369H179.454L179.445 128.948Z" fill="black"/>
<path fill-rule="evenodd" clip-rule="evenodd" d="M193.557 124.768H197.128L195.731 121.002L195.402 119.468H195.364L194.922 121.037L193.563 124.771L193.557 124.768ZM193.557 129.889H189.615V129.374C190.026 129.189 190.455 129.046 190.896 128.948L195.402 117.23H195.916L200.423 128.948C200.658 128.995 200.893 129.048 201.126 129.108C201.352 129.166 201.57 129.255 201.772 129.374V129.889H197.172V129.374C197.411 129.279 197.655 129.196 197.903 129.127C198.151 129.054 198.392 128.995 198.631 128.948L197.429 125.694H193.205L192.038 128.948C192.563 129.026 193.076 129.169 193.566 129.374L193.557 129.889Z" fill="black"/>
<path fill-rule="evenodd" clip-rule="evenodd" d="M212.767 117.441H216.608V117.958C216.161 118.265 215.67 118.504 215.152 118.668V130.102H214.135L207.68 120.306L206.99 118.919H206.934L207.094 120.306V128.75C207.582 128.883 208.045 129.095 208.465 129.378V129.892H204.624V129.378C204.842 129.243 205.071 129.127 205.308 129.029C205.55 128.929 205.807 128.838 206.08 128.753V118.561C205.845 118.467 205.609 118.366 205.38 118.247C205.151 118.128 204.932 118.034 204.731 117.933V117.434H207.734L213.335 125.882L214.154 127.41H214.23L214.139 125.882V118.664C213.891 118.558 213.652 118.448 213.42 118.329C213.188 118.209 212.971 118.084 212.77 117.955L212.767 117.441Z" fill="black"/>
<path fill-rule="evenodd" clip-rule="evenodd" d="M227.3 129.889H222.301V129.374C222.562 129.28 222.828 129.196 223.095 129.123C223.378 129.05 223.665 128.992 223.955 128.948V118.366H221.237L220.296 120.908H219.847C219.813 120.673 219.784 120.403 219.759 120.102C219.734 119.8 219.715 119.49 219.697 119.176C219.678 118.862 219.665 118.548 219.653 118.25C219.64 117.952 219.634 117.679 219.634 117.441H229.967C229.967 117.679 229.961 117.946 229.948 118.241C229.948 118.539 229.92 118.843 229.905 119.157C229.889 119.471 229.867 119.785 229.848 120.083C229.829 120.381 229.804 120.66 229.77 120.908H229.293L228.351 118.366H225.646V128.948C225.96 129.007 226.242 129.064 226.509 129.123C226.775 129.183 227.034 129.267 227.284 129.374L227.3 129.889Z" fill="black"/>
<path d="M82.6429 124.529H14.5195V125.122H82.6429V124.529Z" fill="black"/>
<path d="M307.372 124.529H239.249V125.122H307.372V124.529Z" fill="black"/>
<path fill-rule="evenodd" clip-rule="evenodd" d="M152.097 84.7611C152.116 84.5645 152.093 84.3662 152.03 84.1788C151.968 83.9915 151.867 83.8193 151.734 83.6732C151.601 83.5271 151.439 83.4104 151.258 83.3306C151.078 83.2507 150.882 83.2095 150.685 83.2095C150.487 83.2095 150.292 83.2507 150.112 83.3306C149.931 83.4104 149.769 83.5271 149.636 83.6732C149.503 83.8193 149.402 83.9915 149.34 84.1788C149.277 84.3662 149.254 84.5645 149.273 84.7611V88.577L152.097 87.849V84.7611Z" fill="black"/>
<path fill-rule="evenodd" clip-rule="evenodd" d="M149.253 80.5405H152.078V76.7215C152.096 76.5249 152.073 76.3266 152.011 76.1392C151.948 75.9519 151.847 75.7797 151.714 75.6336C151.582 75.4875 151.42 75.3708 151.239 75.291C151.058 75.2111 150.863 75.1699 150.665 75.1699C150.468 75.1699 150.273 75.2111 150.092 75.291C149.911 75.3708 149.749 75.4875 149.616 75.6336C149.484 75.7797 149.383 75.9519 149.32 76.1392C149.257 76.3266 149.235 76.5249 149.253 76.7215V80.5405Z" fill="black"/>
<path fill-rule="evenodd" clip-rule="evenodd" d="M155.112 87.0425L154.484 86.8386V87.2057C154.817 87.121 155.153 87.0363 155.489 86.9578L155.112 87.0425Z" fill="black"/>
<path fill-rule="evenodd" clip-rule="evenodd" d="M152.097 85.0467V84.7643C152.098 84.557 152.056 84.3518 151.975 84.1612C151.893 83.9706 151.774 83.7989 151.623 83.6566H149.74C149.571 83.8159 149.441 84.0125 149.36 84.2308L150.06 84.4316C150.713 84.6199 151.397 84.8333 152.097 85.0467Z" fill="black"/>
<path fill-rule="evenodd" clip-rule="evenodd" d="M152.097 86.0352C151.614 85.8783 151.134 85.7214 150.657 85.5896C150.18 85.4578 149.716 85.3385 149.264 85.2193V88.7245L149.665 88.577L150.058 88.4577C150.568 88.3008 151.077 88.1492 151.586 88.0027C151.755 87.9525 151.928 87.896 152.097 87.849V86.0352Z" fill="black"/>
<path fill-rule="evenodd" clip-rule="evenodd" d="M160.255 85.9975V85.6147C160.273 85.2247 160.212 84.835 160.076 84.4693C159.939 84.1035 159.729 83.7693 159.46 83.4869C159.19 83.2044 158.866 82.9796 158.507 82.826C158.148 82.6723 157.762 82.5931 157.371 82.5931C156.981 82.5931 156.595 82.6723 156.236 82.826C155.877 82.9796 155.552 83.2044 155.283 83.4869C155.013 83.7693 154.804 84.1035 154.667 84.4693C154.53 84.835 154.469 85.2247 154.488 85.6147V85.8469C155.2 86.1074 155.903 86.3898 156.577 86.7067L156.163 86.804C157.516 86.5027 158.878 86.2329 160.255 85.9975Z" fill="black"/>
<path fill-rule="evenodd" clip-rule="evenodd" d="M150.669 67.1945C150.284 67.2044 149.919 67.3666 149.653 67.6454C149.388 67.9243 149.244 68.2971 149.253 68.6819V72.4978H152.078V68.6819C152.087 68.2982 151.944 67.9263 151.68 67.6476C151.416 67.3689 151.052 67.206 150.669 67.1945Z" fill="black"/>
<path fill-rule="evenodd" clip-rule="evenodd" d="M162.593 80.5405H165.417V76.7215C165.436 76.5249 165.413 76.3266 165.351 76.1392C165.288 75.9519 165.187 75.7797 165.054 75.6336C164.921 75.4875 164.759 75.3708 164.579 75.291C164.398 75.2111 164.203 75.1699 164.005 75.1699C163.808 75.1699 163.612 75.2111 163.432 75.291C163.251 75.3708 163.089 75.4875 162.956 75.6336C162.823 75.7797 162.722 75.9519 162.66 76.1392C162.597 76.3266 162.575 76.5249 162.593 76.7215V80.5405Z" fill="black"/>
<path fill-rule="evenodd" clip-rule="evenodd" d="M164.021 67.1945C163.831 67.199 163.643 67.2411 163.468 67.3183C163.294 67.3955 163.136 67.5064 163.005 67.6445C162.873 67.7827 162.771 67.9455 162.702 68.1235C162.634 68.3015 162.601 68.4913 162.606 68.6819V72.4978H165.43V68.6819C165.439 68.2982 165.297 67.9263 165.033 67.6476C164.769 67.3689 164.405 67.206 164.021 67.1945Z" fill="black"/>
<path fill-rule="evenodd" clip-rule="evenodd" d="M173.865 84.5101C175.061 84.4348 176.285 84.3344 177.512 84.2779V66.7332C177.512 55.4018 176.128 50.6571 173.57 47.017L170.834 43.6405C166.689 39.1437 164.426 38.9335 164.426 33.3258C164.426 30.875 164.467 21.9191 164.467 13.7697C164.467 10.9109 165.239 11.2938 165.239 9.10029C165.239 8.78649 165.239 5.69553 165.239 5.33466C165.239 4.49995 164.476 3.45185 164.476 2.75834C164.476 2.19978 164.476 2.33157 164.476 1.89539C164.476 0.803355 163.729 0.0125732 162.807 0.0125732H151.783C150.86 0.0125732 150.113 0.800217 150.113 1.89539C150.113 2.33157 150.113 2.25312 150.113 2.81169C150.113 3.52089 149.348 3.96335 149.348 4.79806C149.348 5.17462 149.348 8.24989 149.348 8.56369C149.348 10.7603 150.113 10.9298 150.113 13.7885C150.113 21.9474 150.139 30.8907 150.139 33.3415C150.139 39.0496 147.057 39.1594 143.483 43.8853C139.855 48.6802 136.918 51.9092 136.833 66.1213L136.52 99.3593C149.379 94.3478 157.965 92.3081 177.515 90.8678V86.6283C176.918 86.6283 176.329 86.6283 175.751 86.644C172.692 86.7193 169.635 86.8605 166.585 87.121C162.213 87.4817 157.881 88.2283 153.641 89.3521C149.354 90.5048 145.128 91.8715 140.979 93.4472C139.62 93.9619 138.252 94.4702 136.899 95.0005V93.6638C140.097 92.0488 143.406 90.6625 146.8 89.5153V84.62C145.469 84.3062 144.136 84.0551 142.789 83.8229C140.837 83.4903 138.87 83.2518 136.899 83.1012V81.8805C138.914 82.0562 140.919 82.3198 142.912 82.687C144.217 82.9254 145.513 83.2173 146.8 83.5405V64.7437H167.944V84.9777C169.914 84.7832 171.891 84.62 173.865 84.5101ZM149.63 48.4511C151.568 48.0119 153.424 47.2707 155.131 46.2545C155.867 45.8375 156.572 45.3699 157.243 44.8549C157.723 44.4721 158.106 43.9135 158.621 43.5997C158.862 43.446 159.176 43.8037 159.176 44.0328C159.176 45.492 157.472 46.3769 156.324 46.8946C154.303 47.8015 151.899 48.3225 149.709 48.5986C149.64 48.6174 149.542 48.4699 149.63 48.4511ZM145.268 52.132C149.329 51.6048 153.38 50.8454 157.133 49.154C159.785 47.9584 162.468 46.3298 164.056 43.8194C164.257 43.5056 164.608 44.0296 164.592 44.2336C164.398 47.1363 160.827 48.7555 158.483 49.6216C154.264 51.2108 149.809 52.0817 145.303 52.1979C145.271 52.2105 145.228 52.1352 145.268 52.132ZM164.489 48.5986C163.199 49.7471 161.592 50.836 159.819 50.9176C159.71 50.9176 159.565 50.6791 159.706 50.6352C161.423 50.0797 163.014 49.7157 164.461 48.5641C164.476 48.5547 164.501 48.5861 164.489 48.5986ZM144.129 62.999L149.194 57.1058H165.32L170.385 62.999H144.129Z" fill="black"/>
<path fill-rule="evenodd" clip-rule="evenodd" d="M155.951 80.5939H158.775V76.7749C158.793 76.5782 158.771 76.3799 158.708 76.1926C158.646 76.0052 158.545 75.833 158.412 75.6869C158.279 75.5409 158.117 75.4242 157.936 75.3443C157.756 75.2644 157.56 75.2232 157.363 75.2232C157.165 75.2232 156.97 75.2644 156.789 75.3443C156.609 75.4242 156.447 75.5409 156.314 75.6869C156.181 75.833 156.08 76.0052 156.017 76.1926C155.955 76.3799 155.932 76.5782 155.951 76.7749V80.5939Z" fill="black"/>
<path fill-rule="evenodd" clip-rule="evenodd" d="M158.781 68.7384C158.799 68.5418 158.777 68.3435 158.714 68.1561C158.651 67.9688 158.551 67.7966 158.418 67.6505C158.285 67.5044 158.123 67.3877 157.942 67.3079C157.761 67.228 157.566 67.1868 157.369 67.1868C157.171 67.1868 156.976 67.228 156.795 67.3079C156.614 67.3877 156.453 67.5044 156.32 67.6505C156.187 67.7966 156.086 67.9688 156.023 68.1561C155.961 68.3435 155.938 68.5418 155.956 68.7384V72.5543H158.781V68.7384Z" fill="black"/>
<path fill-rule="evenodd" clip-rule="evenodd" d="M165.424 84.7611C165.443 84.5645 165.42 84.3662 165.358 84.1788C165.295 83.9915 165.194 83.8193 165.061 83.6732C164.928 83.5271 164.766 83.4104 164.586 83.3306C164.405 83.2507 164.21 83.2095 164.012 83.2095C163.815 83.2095 163.619 83.2507 163.439 83.3306C163.258 83.4104 163.096 83.5271 162.963 83.6732C162.83 83.8193 162.729 83.9915 162.667 84.1788C162.604 84.3662 162.581 84.5645 162.6 84.7611V85.6272C163.539 85.4892 164.481 85.3636 165.424 85.2507V84.7611Z" fill="black"/>
<path d="M159.364 80.597H155.366V81.507H159.364V80.597Z" fill="black"/>
</g>
<defs>
<clipPath id="clip0_565_87">
<rect width="321.892" height="130.102" fill="white"/>
</clipPath>
</defs>
</svg>
